<svg xmlns="http://www.w3.org/2000/svg" xmlns:xlink="http://www.w3.org/1999/xlink" version="1.1" id="Слой_2" x="0px" y="0px" viewBox="0 778 1590 422" enable-background="new 0 778 1590 422" xml:space="preserve">
<path fill="black" stroke="" stroke-width="2" stroke-miterlimit="10" d="M1573.7,1046.4v-7h-14v-3.4h-7.9v3.4h-59.9v-3.4  h-6.4v3.4h-123.1v-3.4h-4.1v3.4H1319v-66.2h4.1v-0.9h-4.1v-5.8h-1.3v5.8h-3.2v0.9h3.2v62.9h-43.9v-8.2h-3.6v8.2h-147.8l4.5-0.1  l5.4-4.5l-6-3.8c0,0-5.2-4.2-9.9-3c-4.6,1.3-23.2,0-23.2,0l-12.1-15.8h-8.3l3,16.7l-9.1,2h9.4l0.3,1.7l17.6,6.9h-47.3v-10.5h-3.6  v10.5H876.9V1023h-3.2v10.7h-17.9v-4.6h-7.6v7.3H845v-15.9h-5.4V999h11.8v-29.5h6.5v-16.8h-3.6v-12.3h-9.1v-6.9h-15H828v-11.4h-2.7  V915h-1.9v6.9h-3.2v11.4h-4.9V926H799v-24h-1.9v23.7h-4.9v-13.2h-5.8V902h3.6v-2.6h-20.1v-31h8.9v4.1H775V883h7.8v-10.5h-2v-4.1  h11.7V867h-8.9l-0.8-15.8h-2L779,867c0,0-1.2-6.4-3.8-6.5c-2.5-0.1-1.7,6.5-1.7,6.5h-3.3v-24.6h20.1v-2.6h-20.1v-7.3  c4.6-1.2,8.2-5.3,8.2-10.3c0-5.8-4.9-10.7-11-10.7s-11,4.8-11,10.7c0,5.4,4.1,9.9,9.5,10.6v7h-28.2v-21.1c0.9-0.1,3-0.7,3.2-3.6  c0.1-3-2.1-4.9-3.2-5.6v-17.1h-0.9v14.7c-0.4-0.8-1.3-1.5-3.2-0.7c-3.7,1.7-4.5,4.9-4.5,4.9h6.5l1.3,5.6v22.7H729v2.7h7.8h0.9H750  l15.9,10.9v13.6h-10.7l3.2-0.4l-2.6-4.5l-2.5-4.2l-2.5-2v6.9l-4.9,1.7v2.8h-11v1.3h11l0,0l0,0h4.9l14.6,14.6v16.4h-21.6l3.6-1.3  c0,0,6.8-4.4,5.8-6.9c-0.9-2.5-7.2-6.2-7.6-6.9c-0.1-0.3-1.6,0-3.4,0.3v-6.2l-11.3,4.9l8.2,1.6c-4,0.7-8.2,1.6-8.2,1.6v5h9.4  l-3.7,10.3l3.7-1.5v1.5h7.3l17.8,13.4v10.3H756v-4.1h-5v4.1h-4.9v7.3h-22.7v-2.3h-8.2l-6.9,4.9h-7v5l-7.3,5.2v-13.1h4.4v-7.3h-8.9  v7.3h2.5v14.4l-0.4,0.3v1.2h-4.9V960h4.9v25.3h-4l-1.1-5.7l-4.4-2.7v-4.8l-4,0.7v12.7h-5.7v7.3h6.6l12.6,10.6v16.3h-4.1l-2.1-9.5  h-3.2v9.5h-1.9v7.3h-19.6v-26h8.7v-1h-8.7v-27.3h8.7v-1.3h-8.7v-30.3l10.5-10.7h1.3v-3.2h-11.8v-4.6l15.4-5.3L666,888.5l-21.1,7.4  l8.1,22.8h-0.4v8.7h-8.7h-11v12.3h11v-9.1h1.2l7.6,8.6v32.6h-11.3v-11.5H636v11.1h-4.6v1.3h5.3l16,17.4v9.9H647v-7.3h-5.4v7.3h-2.8  v-7.3h-2.6v7.3H627v0.9h6.5v3.8l12.1,1.6v13.1H629v-2.3h-9.4v2.3h-11.4v-2.3h-8.7v2.3h-5.8v8.9h-76.2l7.3-6l-7.9-4.9  c0,0-6.9-5.7-13-4c-6.2,1.7-30.3,0-30.3,0L458,992.7h-11l4.1,22l-11.9,2.6h12.3l0.4,2.3l22.5,8.9h-60.6v-6.1h-6.5v6H175.4v-13h-9.3  v13h-3.7v-13H159v13H57.6l-0.4-0.4v-9.9h-6.6v7.3l-38.8,8.6v2.3l16.7,3.6c0,0,3.8,0.9,8.6,2.1l0.3,47.7h-5.7l1.7,4.8  c0,0,6.9,4.4,15.4,9.3s11,10.6,11,10.6h4.5v0.9l-2.3,0.9v-0.2H44.2v27.3H62h1427.8v-11.4c1.7-4.5,1.5-28.6,15-44  c13.6-15.5,51-29.5,56.2-29.5c4.9,0,11.8-3.6,20.5-12.3L1573.7,1046.4z M660.8,930.9h7l-7,8.6V930.9z M50.5,1062.2  c-3.8,2.4-11.1,1.1-11.1,1.1v-20.1c5.4,1.6,11.5,3.4,13.6,4.9C57.5,1051.3,54.5,1059.7,50.5,1062.2z M645,1003.6l-9.9-2.1h0.7h2.6  h2.8h3.6v2.1H645z M652.7,985.3l-10.7-12h10.7V985.3z M652.7,934.7l-2.9-3.8h2.9V934.7z M691.9,998.3l-6.6-4.9h6.6V998.3z   M765.7,913.2l-13.6-11.1h13.6V913.2z M765.7,880.8l-10.9-12.3h10.9V880.8z M765.7,850.4l-11.9-8.1h11.9V850.4z M780.6,912.6H778  v13.2h-8.2v-23.7h10.7L780.6,912.6L780.6,912.6z"/>
</svg>