<svg width="2090" height="468" viewBox="0 0 2090 468" fill="none" xmlns="http://www.w3.org/2000/svg">
<path d="M2076.35 338.062V328.773H2057.75V324.261H2047.26V328.773H1967.69V324.261H1959.19V328.773H1795.68V324.261H1790.23V328.773H1738.03V240.924H1743.48V239.73H1738.03V232.033H1736.3V239.73H1732.05V240.924H1736.3V324.393H1677.99V313.512H1673.21V324.393H1476.89L1482.86 324.261L1490.04 318.289L1482.07 313.246C1482.07 313.246 1475.16 307.673 1468.92 309.265C1462.81 310.99 1438.1 309.265 1438.1 309.265L1422.03 288.299H1411L1414.99 310.46L1402.9 313.114H1415.39L1415.78 315.37L1439.16 324.526H1376.33V310.592H1371.55V324.526H1150.79V307.009H1146.54V321.208H1122.76V315.104H1112.67V324.791H1108.42V303.692H1101.24V275.161H1116.92V236.014H1125.55V213.72H1120.77V197.398H1108.68V188.242H1088.76H1085.83V173.114H1082.25V163.692H1079.72V172.848H1075.47V187.976H1068.96V178.289H1047.31V146.441H1044.79V177.891H1038.28V160.374H1030.58V146.441H1035.36V142.991H1008.66V101.853H1020.48V107.294H1015.43V121.227H1025.79V107.294H1023.14V101.853H1038.68V99.9952H1026.86L1025.79 79.0284H1023.14L1020.75 99.9952C1020.75 99.9952 1019.15 91.5023 1015.7 91.3696C1012.38 91.2369 1013.44 99.9952 1013.44 99.9952H1009.06V67.3507H1035.76V63.9004H1009.06V54.2132C1015.17 52.6208 1019.95 47.1801 1019.95 40.545C1019.95 32.8483 1013.44 26.3459 1005.34 26.3459C997.236 26.3459 990.728 32.7156 990.728 40.545C990.728 47.7109 996.174 53.6824 1003.35 54.6113V63.9004H965.888V35.9005C967.084 35.7678 969.873 34.9715 970.139 31.1232C970.272 27.1421 967.35 24.6208 965.888 23.6919V1H964.693V20.507C964.162 19.4454 962.966 18.5166 960.442 19.5782C955.528 21.8341 954.465 26.0805 954.465 26.0805H963.099L964.826 33.5118V63.635H954.332V67.218H964.693H965.888H982.227L1003.35 81.6824V99.7298H989.134L993.384 99.1991L989.931 93.2275L986.61 87.654L983.289 85V94.1563L976.781 96.4123V100.128H962.169V101.853H976.781H983.289L1002.68 121.227V142.991H973.991L978.773 141.265C978.773 141.265 987.805 135.427 986.477 132.109C985.282 128.791 976.913 123.881 976.382 122.953C976.249 122.554 974.257 122.953 971.866 123.351V115.123L956.856 121.626L967.748 123.749C962.435 124.678 956.856 125.872 956.856 125.872V132.507H969.342L964.427 146.175L969.342 144.185V146.175H979.039L1002.68 163.957V177.626H990.196V172.185H983.555V177.626H977.046V187.313H946.894V184.261H936.002L926.836 190.763H917.538V197.398L907.842 204.299V186.915H913.686V177.227H901.864V186.915H905.185V206.024L904.654 206.422V208.014H898.145V223.408H904.654V256.981H899.34L897.879 249.417L892.035 245.834V239.464L886.722 240.393V257.246H879.15V266.934H887.917L904.654 281V302.63H899.208L896.418 290.024H892.168V302.63H889.644V312.318H863.609V277.815H875.165V276.488H863.609V240.261H875.165V238.536H863.609V198.327L877.556 184.128H879.283V179.881H863.609V173.777L884.065 166.744L870.649 128.526L842.622 138.346L853.381 168.602H852.85V180.147H841.294H826.682V196.469H841.294V184.393H842.888L852.983 195.806V239.066H837.973V223.806H830.8V238.536H824.69V240.261H831.73L852.983 263.351V276.488H845.411V266.801H838.239V276.488H834.519V266.801H831.066V276.488H818.845V277.682H827.479V282.725L843.552 284.848V302.232H821.502V299.18H809.016V302.232H793.873V299.18H782.317V302.232H774.613V314.043H673.396L683.093 306.081L672.599 299.578C672.599 299.578 663.434 292.014 655.331 294.27C647.096 296.526 615.084 294.27 615.084 294.27L594.362 266.801H579.751L585.197 295.995L569.39 299.445H585.728L586.26 302.498L616.147 314.308H535.651V306.213H527.017V314.175H218.984V296.924H206.631V314.175H201.716V296.924H197.2V314.175H62.5103L61.979 313.645V300.507H53.2122V310.194L1.67407 321.607V324.659L23.8567 329.436C23.8567 329.436 28.9043 330.63 35.2801 332.223L35.6786 395.521H28.1073L30.3654 401.891C30.3654 401.891 39.5307 407.73 50.8212 414.232C62.1118 420.735 65.4326 428.299 65.4326 428.299H71.4099V429.493L68.3548 430.687V430.422H44.7111V466.649H68.3548H1964.9V451.521C1967.16 445.55 1966.9 413.569 1984.83 393.133C2002.89 372.564 2052.57 353.986 2059.48 353.986C2065.99 353.986 2075.15 349.208 2086.71 337.663L2076.35 338.062ZM863.742 184.791H873.04L863.742 196.204V184.791ZM53.0794 359.028C48.0318 362.213 38.3352 360.488 38.3352 360.488V333.815C45.508 335.938 53.6107 338.327 56.4001 340.317C62.3775 344.564 58.3926 355.711 53.0794 359.028ZM842.755 281.265L829.605 278.479H830.534H833.988H837.707H842.489V281.265H842.755ZM852.983 256.981L838.77 241.057H852.983V256.981ZM852.983 189.834L849.131 184.791H852.983V189.834ZM905.052 274.232L896.285 267.73H905.052V274.232ZM1003.08 161.303L985.016 146.573H1003.08V161.303ZM1003.08 118.308L988.602 101.986H1003.08V118.308ZM1003.08 77.9668L987.274 67.218H1003.08V77.9668ZM1022.87 160.507H1019.42V178.024H1008.53V146.573H1022.74L1022.87 160.507Z" fill="black" stroke="black" stroke-width="2" stroke-miterlimit="10"/>
</svg>
