<svg width="804" height="181" viewBox="0 0 804 181" fill="none" xmlns="http://www.w3.org/2000/svg">
<path d="M797.025 130.57V126.999H789.89V125.264H785.863V126.999H755.335V125.264H752.073V126.999H689.335V125.264H687.246V126.999H667.216V93.2291H669.306V92.77H667.216V89.8113H666.554V92.77H664.923V93.2291H666.554V125.315H644.18V121.133H642.345V125.315H567.019L569.312 125.264L572.065 122.969L569.007 121.03C569.007 121.03 566.356 118.888 563.961 119.5C561.617 120.163 552.137 119.5 552.137 119.5L545.97 111.44H541.74L543.269 119.959L538.631 120.979H543.422L543.575 121.847L552.545 125.366H528.438V120.01H526.604V125.366H441.9V118.633H440.269V124.091H431.146V121.745H427.273V125.469H425.642V117.358H422.89V106.39H428.903V91.3417H432.216V82.7717H430.381V76.4973H425.744V72.9775H418.099H416.978V67.1621H415.602V63.5403H414.633V67.0601H413.002V72.8754H410.505V69.1516H402.198V56.9088H401.229V68.9986H398.732V62.265H395.776V56.9088H397.611V55.5825H387.367V39.7689H391.903V41.8603H389.966V47.2166H393.941V41.8603H392.922V39.7689H398.885V39.0547H394.349L393.941 30.9949H392.922L392.005 39.0547C392.005 39.0547 391.393 35.79 390.068 35.7389C388.794 35.6879 389.202 39.0547 389.202 39.0547H387.52V26.5058H397.764V25.1795H387.52V21.4557C389.864 20.8435 391.699 18.7521 391.699 16.2015C391.699 13.2428 389.202 10.7432 386.093 10.7432C382.984 10.7432 380.487 13.1918 380.487 16.2015C380.487 18.9561 382.576 21.2516 385.328 21.6087V25.1795H370.956V14.4161C371.415 14.3651 372.485 14.059 372.587 12.5796C372.638 11.0493 371.517 10.0801 370.956 9.72299V1H370.497V8.49869C370.294 8.0906 369.835 7.73354 368.866 8.14164C366.981 9.00883 366.573 10.6412 366.573 10.6412H369.886L370.548 13.4979V25.0775H366.522V26.4548H370.497H370.956H377.225L385.328 32.0151V38.9527H379.875L381.506 38.7486L380.181 36.4531L378.907 34.3106L377.632 33.2904V36.8102L375.135 37.6774V39.1057H369.529V39.7689H375.135H377.632L385.073 47.2166V55.5825H374.065L375.9 54.9193C375.9 54.9193 379.365 52.6748 378.856 51.3995C378.397 50.1242 375.186 48.2368 374.982 47.8797C374.931 47.7267 374.167 47.8797 373.249 48.0327V44.87L367.49 47.3696L371.67 48.1858C369.631 48.5429 367.49 49.002 367.49 49.002V51.5526H372.281L370.395 56.8068L372.281 56.0416V56.8068H376.002L385.073 63.6423V68.8965H380.283V66.8051H377.734V68.8965H375.237V72.6204H363.668V71.4471H359.489L355.972 73.9467H352.405V76.4973L348.684 79.1499V72.4674H350.927V68.7435H346.391V72.4674H347.665V79.813L347.461 79.9661V80.5782H344.964V86.4956H347.461V99.4015H345.423L344.862 96.4938L342.619 95.1166V92.668L340.581 93.0251V99.5035H337.676V103.227H341.04L347.461 108.635V116.95H345.372L344.301 112.103H342.67V116.95H341.702V120.673H331.713V107.41H336.147V106.9H331.713V92.9741H336.147V92.3109H331.713V76.8543L337.064 71.3961H337.727V69.7637H331.713V67.4172L339.562 64.7136L334.414 50.0222L323.66 53.7971L327.789 65.4277H327.585V69.8658H323.151H317.545V76.1402H323.151V71.4981H323.762L327.636 75.8851V92.5149H321.877V86.6486H319.124V92.3109H316.78V92.9741H319.481L327.636 101.85V106.9H324.731V103.176H321.979V106.9H320.552V103.176H319.226V106.9H314.538V107.359H317.85V109.298L324.017 110.114V116.797H315.557V115.623H310.766V116.797H304.956V115.623H300.522V116.797H297.566V121.337H258.731L262.451 118.276L258.425 115.776C258.425 115.776 254.908 112.869 251.8 113.736C248.64 114.603 236.357 113.736 236.357 113.736L228.407 103.176H222.8L224.89 114.399L218.825 115.725H225.094L225.298 116.899L236.765 121.439H205.88V118.327H202.567V121.388H84.379V114.756H79.6392V121.388H77.7535V114.756H76.0207V121.388H24.342L24.1382 121.184V116.133H20.7745V119.857L1 124.244V125.418L9.51118 127.254C9.51118 127.254 11.4479 127.713 13.8942 128.325L14.0471 152.658H11.1421L12.0085 155.106C12.0085 155.106 15.5251 157.351 19.8571 159.85C24.1891 162.35 25.4633 165.258 25.4633 165.258H27.7567V165.717L26.5845 166.176V166.074H17.5127V180H26.5845H754.265V174.185C755.131 171.889 755.029 159.595 761.91 151.74C768.841 143.833 787.902 136.691 790.552 136.691C793.049 136.691 796.566 134.855 801 130.417L797.025 130.57ZM331.764 71.6512H335.331L331.764 76.0382V71.6512ZM20.7235 138.629C18.7868 139.854 15.0664 139.191 15.0664 139.191V128.937C17.8185 129.753 20.9274 130.672 21.9976 131.437C24.2911 133.069 22.7621 137.354 20.7235 138.629ZM323.711 108.737L318.666 107.665H319.023H320.348H321.775H323.609V108.737H323.711ZM327.636 99.4015L322.182 93.2801H327.636V99.4015ZM327.636 73.5896L326.158 71.6512H327.636V73.5896ZM347.614 106.033L344.25 103.533H347.614V106.033ZM385.226 62.6221L378.295 56.9598H385.226V62.6221ZM385.226 46.0943L379.671 39.8199H385.226V46.0943ZM385.226 30.5868L379.161 26.4548H385.226V30.5868ZM392.82 62.316H391.495V69.0496H387.316V56.9598H392.769L392.82 62.316Z" fill="black" stroke="black" stroke-width="2" stroke-miterlimit="10"/>
</svg>
