<svg width="800" height="356" viewBox="0 0 800 356" fill="none" xmlns="http://www.w3.org/2000/svg">
<path d="M94.1046 355.413C93.72 355.028 93.4054 354.144 93.4054 353.449C93.4054 352.754 93.2422 351.369 93.0427 350.37C92.6331 348.319 92.0625 348.224 84.5089 348.938C80.2908 349.337 80.6069 349.086 79.1335 353.202C78.6337 354.598 77.5626 352.243 77.9658 350.634C78.221 349.616 77.9662 349.161 76.8577 348.655C75.0436 347.828 75.0065 346.394 76.7784 345.586C77.7759 345.131 78.0706 344.609 77.8836 343.63C77.7434 342.896 77.949 341.695 78.3405 340.963C79.0261 339.68 79.0816 339.671 79.8463 340.719C80.283 341.316 80.6403 342.54 80.6403 343.437C80.6403 344.501 80.9436 345.069 81.5106 345.069C82.1522 345.069 82.381 344.398 82.381 342.517C82.381 340.785 82.1015 339.858 81.5106 339.631C81.0319 339.447 80.6403 338.888 80.6403 338.389C80.6403 337.889 81.0319 337.33 81.5106 337.146C83.0754 336.545 82.4265 335.391 80.1378 334.704C78.5752 334.236 71.1372 334.067 55.623 334.148C43.3736 334.213 35.375 334.354 37.8482 334.463L42.345 334.661L42.3349 336.815C42.3183 340.381 40.728 346.79 39.2255 349.347C36.9895 353.152 35.2118 354.499 32.0648 354.77C28.4846 355.079 25.9582 353.559 24.2699 350.08L23.0313 347.527L24.6237 341.1L26.2162 334.674L28.6234 334.454C29.9473 334.333 25.5781 334.189 18.9141 334.133C4.65662 334.014 3.99676 333.8 1.38016 328.445C-0.114413 325.387 -0.168833 324.963 0.171751 319.035C0.759415 308.807 3.09359 299.433 5.56389 297.38C6.21866 296.836 6.37065 293.55 6.37065 279.934C6.37065 269.138 6.57745 263.159 6.95088 263.159C7.3156 263.159 7.53111 266.935 7.53111 273.325C7.53111 278.916 7.7632 283.491 8.04687 283.491C8.33054 283.491 8.52637 283.818 8.48205 284.217C8.29499 285.903 11.2499 293.948 12.056 293.948C12.6923 293.948 12.739 294.136 12.249 294.727C11.4825 295.652 11.9562 296.271 13.4301 296.271C14.6563 296.271 14.7976 295.646 13.7976 294.645C13.2561 294.103 13.3194 293.948 14.0828 293.948C14.6226 293.948 15.3904 294.471 15.789 295.11C16.351 296.011 17.1421 296.271 19.3118 296.271C21.8804 296.271 22.095 296.164 21.9283 294.964C21.7676 293.808 22.0302 293.637 24.2128 293.479C25.8918 293.357 26.6787 293.033 26.6787 292.462C26.6787 292.001 27.201 291.624 27.8392 291.624C28.4839 291.624 28.9997 292.011 28.9997 292.495C28.9997 292.975 29.2608 293.367 29.5799 293.367C29.899 293.367 30.1601 292.975 30.1601 292.495C30.1601 292.011 30.6759 291.624 31.3206 291.624C31.9588 291.624 32.4811 291.988 32.4811 292.433C32.4811 292.878 32.8893 293.399 33.3882 293.591C33.8871 293.783 34.1328 294.203 33.9342 294.525C33.7154 294.879 34.4445 295.105 35.7831 295.097C37.6912 295.086 38.1122 294.832 38.8636 293.239C39.3423 292.224 40.0603 291.293 40.4592 291.17C41.323 290.904 41.4529 293.132 40.6043 293.657C39.1612 294.55 40.3099 295.11 43.5865 295.11C46.2919 295.11 47.3389 294.865 47.9383 294.093C48.6846 293.132 48.7773 293.14 49.6433 294.238C50.5195 295.35 50.5509 295.312 50.3686 293.367L50.1781 291.334H53.6595C57.1158 291.334 57.1395 291.345 56.9543 292.931C56.7268 294.879 57.9969 296.271 60.0006 296.271H61.4926V288.798C61.4926 282.117 61.6201 281.162 62.6952 279.793C63.3566 278.952 64.2052 278.267 64.581 278.272C65.0121 278.278 65.05 278.438 64.6839 278.707C63.825 279.339 63.6518 280.708 63.3987 288.865L63.1688 296.271H71.9296H80.6905L80.5203 294.093C80.3516 291.933 80.3682 291.915 82.5264 291.915C83.7233 291.915 84.7025 291.718 84.7023 291.479C84.7021 291.239 82.2214 291.043 79.1897 291.043C75.9017 291.043 73.6775 290.809 73.6775 290.462C73.6775 290.114 75.987 289.881 79.4456 289.881C84.6577 289.881 87.0752 289.305 85.1407 288.524C84.7398 288.363 85.5369 288.21 86.912 288.184C88.2871 288.159 89.2692 288.37 89.0944 288.653C88.71 289.276 90.6964 289.863 93.2261 289.873C95.1539 289.882 96.2699 289.035 95.0046 288.524C94.6037 288.363 95.4289 288.21 96.8384 288.184C98.2479 288.159 99.2117 288.328 98.9803 288.56C98.7488 288.792 99.4233 289.272 100.479 289.628C102.953 290.462 102.933 291.702 100.435 292.35C98.1879 292.933 96.8868 294.036 96.8868 295.359C96.8868 296.156 98.2556 296.271 107.689 296.271C118.205 296.271 118.483 296.241 118.187 295.11C117.912 294.055 118.169 293.948 120.966 293.948C123.763 293.948 124.021 294.055 123.746 295.11C123.449 296.245 123.728 296.271 136.143 296.271H148.844L149.492 293.512C149.848 291.994 150.046 290.652 149.932 290.529C149.817 290.405 140.055 290.172 128.237 290.009L106.751 289.714V287.764V285.815L120.531 285.813C128.11 285.812 138.417 285.641 143.435 285.432L152.559 285.053L153.193 283.13C153.869 281.078 156.754 278.263 158.18 278.263C158.653 278.263 158.879 278.524 158.681 278.844C158.469 279.188 159.135 279.425 160.317 279.425C161.413 279.425 162.623 279.801 163.005 280.262C163.975 281.433 165.354 280.735 165.354 279.072C165.354 277.873 165.631 277.682 167.367 277.682C168.917 277.682 169.303 277.482 169.045 276.811C168.834 276.259 169.053 275.939 169.644 275.939C170.157 275.939 170.576 275.678 170.576 275.358C170.576 275.012 168.352 274.777 165.064 274.777C161.776 274.777 159.552 274.543 159.552 274.196C159.552 273.848 161.861 273.615 165.32 273.615C170.532 273.615 172.949 273.039 171.015 272.259C170.614 272.097 171.439 271.944 172.849 271.918C174.258 271.893 175.222 272.062 174.991 272.294C174.759 272.526 175.434 273.006 176.49 273.362C179.043 274.223 178.926 275.483 176.233 276.12C173.263 276.823 173.493 277.682 176.65 277.682C178.717 277.682 179.175 277.859 178.909 278.553C178.51 279.595 177.783 279.595 187.403 278.553C191.711 278.087 195.562 277.7 195.961 277.693C196.51 277.685 196.687 279.806 196.687 286.396V295.11H193.874C191.531 295.11 190.957 294.892 190.432 293.803C189.838 292.57 189.8 292.603 189.763 294.383L189.724 296.271H198.427C203.843 296.271 207.131 296.052 207.131 295.691C207.131 295.371 207.764 295.11 208.537 295.11H209.944L209.952 277.02C209.961 258.614 210.23 256.23 212.021 258.657C212.433 259.216 212.938 259.673 213.142 259.673C213.346 259.673 213.513 255.548 213.513 250.507V241.341L216.158 235.258C217.613 231.912 219.276 228.129 219.855 226.851C225.997 213.277 236.201 189.018 236.791 186.588C237.394 184.102 237.398 183.277 236.808 182.331C236.309 181.532 236.262 180.933 236.66 180.453C236.981 180.065 237.323 177.929 237.418 175.705C237.553 172.577 237.79 171.663 238.463 171.663C239.177 171.663 239.386 173.019 239.624 179.215C239.783 183.369 240.083 187.029 240.289 187.348C240.495 187.668 241.094 197.994 241.619 210.295C242.145 222.596 242.814 234.651 243.107 237.084L243.639 241.509L238.681 250.929C235.954 256.11 233.868 260.494 234.046 260.672C234.224 260.85 239.638 261.35 246.078 261.782C252.517 262.214 258.073 262.623 258.424 262.691C258.774 262.758 259.918 262.358 260.964 261.801C264.305 260.022 265.23 261.887 261.963 263.816C260.847 264.476 260.077 265.248 260.253 265.533C260.429 265.817 260.201 265.907 259.747 265.733C259.292 265.558 258.505 265.832 257.996 266.341C257.488 266.85 256.867 267.276 256.616 267.287C255.447 267.337 249.6 271.004 249.904 271.496C250.093 271.802 249.991 271.894 249.679 271.701C249.367 271.507 245.083 273.652 240.161 276.467L231.21 281.585L231.035 284.571C230.877 287.253 230.981 287.558 232.05 287.558C233.129 287.558 233.241 287.913 233.241 291.334V295.11H236.432C238.882 295.11 239.624 294.907 239.624 294.238C239.624 293.525 240.623 293.367 245.136 293.367C249.649 293.367 250.648 293.525 250.648 294.238C250.648 295.469 252.212 295.319 253.683 293.948C255.048 292.675 257.024 292.431 258.006 293.414C258.456 293.864 258.702 293.453 258.876 291.962L259.118 289.881H247.63H236.142V287.848V285.815L249.923 285.813C257.502 285.812 267.809 285.641 272.827 285.432L281.95 285.053L282.584 283.13C283.26 281.078 286.146 278.263 287.572 278.263C288.045 278.263 288.27 278.524 288.073 278.844C287.86 279.188 288.527 279.425 289.708 279.425C290.805 279.425 292.015 279.801 292.396 280.262C293.367 281.433 294.746 280.735 294.746 279.072C294.746 277.873 295.022 277.682 296.758 277.682C298.309 277.682 298.694 277.482 298.437 276.811C298.225 276.259 298.445 275.939 299.035 275.939C299.548 275.939 299.968 275.678 299.968 275.358C299.968 275.012 297.743 274.777 294.456 274.777C291.168 274.777 288.943 274.543 288.943 274.196C288.943 273.848 291.253 273.615 294.711 273.615C299.923 273.615 302.341 273.039 300.406 272.259C300.006 272.097 300.831 271.944 302.24 271.918C303.65 271.893 304.614 272.062 304.382 272.294C304.151 272.526 304.825 273.006 305.881 273.362C308.435 274.223 308.318 275.483 305.625 276.12C302.655 276.823 302.884 277.682 306.042 277.682C308.216 277.682 308.575 277.837 308.266 278.643C307.95 279.469 308.217 279.555 310.17 279.253C311.42 279.06 314.734 278.722 317.536 278.501C320.337 278.281 322.738 277.922 322.873 277.705C323.161 277.238 302.442 265.289 301.346 265.289C300.935 265.289 300.702 265.122 300.827 264.919C301.047 264.563 294.048 260.451 293.709 260.737C293.618 260.814 293.128 260.46 292.619 259.951C292.111 259.442 291.323 259.168 290.869 259.343C290.415 259.517 290.187 259.427 290.363 259.143C290.539 258.858 289.769 258.086 288.652 257.426C285.385 255.496 286.311 253.631 289.652 255.412C290.698 255.97 291.723 256.382 291.93 256.327C292.137 256.272 302.554 255.562 315.08 254.748C334.927 253.46 337.956 253.14 338.639 252.26C339.377 251.31 339.469 251.308 340.193 252.239C340.682 252.868 340.878 254.281 340.732 256.118C340.509 258.92 340.552 259.013 342.139 259.195C343.495 259.351 343.805 259.691 343.951 261.184C344.099 262.706 344.33 262.947 345.436 262.735C346.187 262.592 347.072 262.877 347.508 263.403C348.778 264.935 349.287 264.449 349.287 261.706C349.287 259.753 349.511 259.092 350.171 259.092C350.946 259.092 351.049 256.536 351.014 238.179C350.983 222.307 350.805 217.261 350.275 217.247C349.892 217.237 350.247 216.638 351.065 215.916C352.851 214.34 353.541 212.779 352.593 212.463C352.208 212.334 352.543 211.867 353.351 211.409C354.425 210.798 357.684 210.536 365.969 210.395C372.112 210.291 377.138 209.992 377.138 209.731C377.138 209.046 375.402 208.481 374.676 208.93C374.332 209.143 374.226 209.04 374.437 208.699C374.645 208.361 373.902 207.545 372.786 206.886C371.669 206.226 370.756 205.432 370.756 205.12C370.756 203.923 372.033 203.858 373.9 204.962C375.468 205.888 376 205.97 376.637 205.386C377.073 204.987 394.139 195.704 414.563 184.756C434.988 173.808 451.885 164.68 452.113 164.472C452.341 164.264 452.245 161.596 451.898 158.542L451.268 152.991L446.406 149.936C443.732 148.255 441.544 146.712 441.544 146.506C441.544 145.654 452.096 91.5681 452.486 90.4208C452.947 89.0643 452.945 88.9895 451.982 62.229C451.516 49.275 451.506 43.8199 451.947 43.378C452.366 42.9585 452.569 35.7951 452.569 21.378C452.569 7.51329 452.772 0 453.149 0C453.527 0 453.729 8.98174 453.729 25.7834C453.729 51.0782 453.751 51.5725 454.889 51.8706C456.017 52.1659 456.05 52.663 456.05 69.5656C456.05 85.0686 456.168 87.2978 457.138 90.0976C458.304 93.4613 473.914 131.77 474.515 132.741C474.713 133.061 474.915 133.584 474.964 133.903C475.012 134.223 476.263 137.36 477.742 140.874L480.432 147.264L478.295 181.953L476.157 216.642L479.243 233.946C480.941 243.463 482.429 251.366 482.55 251.507C482.672 251.649 482.75 244.003 482.724 234.515C482.688 221.571 482.503 217.261 481.983 217.247C481.602 217.237 481.959 216.638 482.777 215.916C484.563 214.34 485.254 212.779 484.305 212.463C483.92 212.334 484.256 211.867 485.063 211.409C486.165 210.782 489.011 210.585 496.956 210.585C504.902 210.585 507.747 210.782 508.849 211.409C509.657 211.867 509.992 212.334 509.607 212.463C508.659 212.779 509.349 214.34 511.135 215.916C511.953 216.638 512.312 217.237 511.933 217.247C511.419 217.261 511.23 221.181 511.191 232.607L511.139 247.949L513.622 247.631C516.582 247.253 516.747 247.147 515.926 246.157C515.577 245.736 515.208 243.769 515.106 241.786L514.92 238.179H517.087H519.254L519.209 229.029C519.176 222.364 518.941 219.446 518.344 218.282L517.525 216.685H533.221H548.917L548.082 218.3C547.421 219.581 547.268 222.591 547.342 232.823L547.436 245.731L545.261 245.731L543.085 245.731V249.771C543.085 253.255 543.275 254.002 544.47 255.198C545.612 256.341 545.806 257.009 545.576 259L545.297 261.416H550.864C554.188 261.416 556.43 261.65 556.43 261.997C556.43 262.343 554.206 262.578 550.918 262.578C547.63 262.578 545.406 262.812 545.406 263.159C545.406 263.478 545.797 263.74 546.276 263.74C546.755 263.74 547.146 264.001 547.146 264.321C547.146 264.64 547.538 264.902 548.017 264.902C548.755 264.902 548.887 266.354 548.887 274.487C548.887 282.62 549.019 284.072 549.757 284.072C550.299 284.072 550.628 283.523 550.628 282.62C550.628 281.347 550.879 281.167 552.658 281.167H554.689V273.035C554.689 266.909 554.868 264.904 555.415 264.913C555.813 264.919 559.665 265.306 563.973 265.773C573.592 266.815 572.866 266.815 572.467 265.773C572.2 265.078 572.659 264.902 574.725 264.902C577.883 264.902 578.112 264.043 575.142 263.34C572.449 262.702 572.332 261.443 574.886 260.582C575.942 260.226 576.617 259.745 576.385 259.514C576.154 259.282 577.118 259.113 578.527 259.138C579.937 259.163 580.762 259.316 580.361 259.478C578.426 260.259 580.844 260.835 586.056 260.835C589.515 260.835 591.824 261.068 591.824 261.416C591.824 261.763 589.6 261.997 586.312 261.997C583.024 261.997 580.8 262.231 580.8 262.578C580.8 262.897 581.219 263.159 581.732 263.159C582.323 263.159 582.542 263.478 582.331 264.03C582.073 264.702 582.459 264.902 584.009 264.902C585.745 264.902 586.022 265.093 586.022 266.292C586.022 267.955 587.4 268.653 588.371 267.481C588.753 267.021 589.962 266.644 591.059 266.644C592.241 266.644 592.907 266.408 592.694 266.063C592.497 265.744 592.723 265.482 593.196 265.482C594.622 265.482 597.507 268.298 598.183 270.349L598.817 272.273L607.941 272.652C612.959 272.86 623.265 273.031 630.845 273.033L644.625 273.034V274.984V276.934L623.139 277.229C611.321 277.391 601.559 277.625 601.444 277.748C600.947 278.284 602.603 283.491 603.27 283.491C603.677 283.491 604.009 283.23 604.009 282.91C604.009 282.591 605.445 282.329 607.2 282.329C610.217 282.329 610.391 282.25 610.391 280.877C610.391 279.457 610.488 279.424 614.743 279.424C618.225 279.424 619.095 279.599 619.095 280.296C619.095 280.78 619.611 281.167 620.255 281.167C621.029 281.167 621.416 280.78 621.416 280.005C621.416 279.231 621.803 278.844 622.576 278.844C623.221 278.844 623.737 279.231 623.737 279.715C623.737 280.194 623.998 280.586 624.317 280.586C624.636 280.586 624.897 280.194 624.897 279.715C624.897 278.745 627.008 278.502 627.319 279.436C627.453 279.839 628.521 279.838 630.652 279.433C632.377 279.106 633.896 278.946 634.028 279.077C634.159 279.209 633.849 280.125 633.338 281.113C632.419 282.893 632.425 282.91 633.876 282.91C635.052 282.91 635.341 282.623 635.341 281.458C635.341 280.038 635.438 280.005 639.693 280.005C643.948 280.005 644.045 280.038 644.045 281.458C644.045 282.256 644.306 282.91 644.625 282.91C644.944 282.91 645.205 282.256 645.205 281.458C645.205 280.038 645.302 280.005 649.557 280.005C653.844 280.005 653.909 280.027 653.909 281.499C653.909 282.827 654.005 282.896 654.779 282.122C655.258 281.642 655.649 280.709 655.649 280.047C655.649 278.867 655.893 278.843 668.124 278.843C680.356 278.843 680.599 278.867 680.599 280.047C680.599 282.029 682.014 282.91 685.2 282.91C686.818 282.91 688.142 282.666 688.142 282.369C688.142 282.071 688.962 281.243 689.965 280.528C691.643 279.332 691.843 279.306 692.495 280.198C692.884 280.731 693.5 281.167 693.864 281.167C694.724 281.167 694.714 279.846 693.848 278.979C692.785 277.914 695.178 277.299 699.312 277.575C700.675 277.666 700.908 277.936 700.908 279.424C700.908 280.383 701.169 281.167 701.488 281.167C701.807 281.167 702.068 280.383 702.068 279.424C702.068 278.069 702.326 277.682 703.229 277.682C704.147 277.682 704.389 278.069 704.389 279.535C704.389 281.297 704.432 281.333 705.26 280.262C706.084 279.194 706.172 279.188 706.919 280.151C707.353 280.71 708.006 281.167 708.37 281.167C709.23 281.167 709.22 279.846 708.354 278.979C707.838 278.462 707.941 278.197 708.789 277.866C710.207 277.311 713.641 277.305 715.044 277.854C715.952 278.209 716.004 278.422 715.371 279.185C714.75 279.935 714.764 280.186 715.451 280.622C715.909 280.912 716.462 281.153 716.68 281.158C717.428 281.175 717.831 278.788 717.207 278.036C716.264 276.898 717.047 276.52 720.346 276.52C723.645 276.52 724.427 276.898 723.484 278.036C722.643 279.051 723.409 281.527 724.291 280.645C724.642 280.293 725.843 280.005 726.96 280.005C728.539 280.005 728.836 280.16 728.295 280.703C727.912 281.086 727.598 281.609 727.598 281.864C727.598 282.12 732.276 282.329 737.994 282.329C745.794 282.329 748.451 282.148 748.634 281.603C748.824 281.037 749.091 281.053 749.843 281.674C750.639 282.332 750.967 282.339 751.722 281.711C752.475 281.085 752.719 281.086 753.106 281.712C753.75 282.755 761.132 282.3 761.827 281.174C762.238 280.51 762.482 280.502 763.238 281.13C763.992 281.756 764.314 281.756 765.067 281.13C765.806 280.516 766.07 280.513 766.439 281.111C766.782 281.666 767.275 281.474 768.399 280.348C769.226 279.52 770.346 278.843 770.889 278.843C771.808 278.843 771.81 278.916 770.915 279.906C769.528 281.44 769.707 281.748 771.986 281.748C774.264 281.748 774.443 281.44 773.056 279.906C772.162 278.916 772.163 278.843 773.082 278.843C773.625 278.843 774.722 279.497 775.519 280.296C777.273 282.051 778.145 282.122 779.104 280.586C779.502 279.947 780.27 279.424 780.81 279.424C781.573 279.424 781.636 279.579 781.095 280.121C780.013 281.204 780.265 281.748 781.849 281.748C783.371 281.748 783.777 280.95 782.62 280.234C782.162 279.951 782.314 279.676 783.086 279.39C783.823 279.117 784.938 277.235 786.215 274.112L788.198 269.258L788.401 256.623C788.517 249.365 788.833 243.988 789.143 243.988C789.464 243.988 789.682 251.604 789.682 262.84C789.682 277.342 789.49 282.43 788.85 284.892C787.462 290.224 786.54 303.639 787.307 307.333C788.223 311.748 790.225 315.818 793.135 319.185C796.97 323.621 798.261 325.875 799.302 329.955C802.257 341.537 795.787 350.154 780.689 354.744C777.34 355.762 764.191 355.809 436.005 355.957C170.438 356.078 94.6482 355.957 94.104 355.412L94.1046 355.413ZM332.938 270.711L332.741 264.321H334.272C335.726 264.321 335.833 264.114 336.423 260.128C336.765 257.823 336.968 255.859 336.874 255.766C336.649 255.54 295.142 257.921 294.889 258.174C294.594 258.469 301.307 262.181 302.144 262.186C302.543 262.189 302.744 262.316 302.591 262.469C302.439 262.621 307.857 265.957 314.631 269.88C326.052 276.495 327.174 277.017 330.042 277.057L333.135 277.101L332.938 270.711ZM439.804 268.097C439.804 266.87 440.074 266.644 441.544 266.644C442.898 266.644 443.285 266.903 443.285 267.806C443.285 269.141 443.501 269.204 445.112 268.341C446.235 267.739 446.241 267.668 445.255 266.577C444.689 265.951 444.167 264.992 444.094 264.445C444.02 263.897 443.793 262.919 443.589 262.271C443.272 261.268 443.588 260.994 445.717 260.425C449.253 259.479 453.388 260.551 452.845 262.272C452.641 262.919 452.414 263.897 452.34 264.445C452.267 264.992 451.743 265.953 451.175 266.581C450.176 267.686 450.199 267.751 451.907 268.636C454.308 269.878 454.332 269.863 454.124 267.225C453.943 264.944 453.975 264.902 455.865 264.902H457.791V260.043V255.184L455.035 254.109C453.519 253.517 452.063 253.096 451.8 253.173C451.537 253.249 451.444 253.109 451.593 252.862C451.819 252.485 436.153 243.214 420.571 234.504L416.594 232.281V233.789C416.594 235.107 416.777 235.251 418.045 234.932C419.142 234.656 419.495 234.795 419.495 235.502C419.495 236.111 418.991 236.436 418.045 236.436C416.981 236.436 416.594 236.746 416.594 237.598C416.594 238.237 416.797 238.76 417.045 238.76C417.794 238.76 417.188 245.332 416.351 246.291C415.285 247.511 414.695 249.631 415.315 250.015C415.595 250.188 415.709 251.647 415.569 253.258C415.357 255.704 415.474 256.188 416.279 256.188C416.809 256.188 417.082 256.449 416.884 256.769C416.416 257.527 418.136 257.505 421.859 256.705C423.734 256.303 424.997 256.268 425.224 256.612C425.451 256.957 428.2 256.884 432.551 256.419C436.38 256.009 439.796 255.659 440.142 255.641C440.982 255.595 441.011 256.859 440.282 261.706C439.568 266.458 439.088 267.225 436.831 267.225C435.548 267.225 435.162 267.494 435.162 268.387C435.162 269.355 435.548 269.549 437.483 269.549C439.571 269.549 439.804 269.404 439.804 268.097ZM220.691 259.528C221.546 258.656 224.217 246.085 223.786 244.96C223.537 244.31 217.059 242.495 216.688 242.972C216.626 243.052 216.415 246.824 216.218 251.355C215.892 258.85 215.95 259.617 216.862 259.856C218.766 260.356 219.981 260.252 220.691 259.528ZM399.075 256.051C400.099 254.667 401.135 254.751 400.76 256.188C400.285 258.005 401.71 257.565 402.565 255.63C402.984 254.684 403.201 253.117 403.048 252.147C402.896 251.177 403.02 250.23 403.324 250.042C403.981 249.635 403.428 247.546 402.332 246.291C401.495 245.332 400.889 238.76 401.638 238.76C401.886 238.76 402.088 238.237 402.088 237.598C402.088 236.746 401.702 236.436 400.638 236.436C399.692 236.436 399.187 236.111 399.187 235.502C399.187 234.784 399.539 234.656 400.708 234.95C402.132 235.307 402.212 235.22 401.971 233.577L401.714 231.823L408.554 231.661L415.395 231.498L400.834 223.123C392.826 218.517 385.916 214.748 385.478 214.748C385.04 214.748 384.812 214.618 384.971 214.459C385.426 214.003 382.15 212.181 381.382 212.462C380.44 212.807 381.114 214.336 382.904 215.916C383.722 216.638 384.078 217.237 383.695 217.247C383.169 217.261 382.989 222.014 382.956 236.727L382.913 256.188H384.992C386.135 256.188 386.949 255.992 386.801 255.752C386.653 255.512 387.786 255.405 389.319 255.514C391.526 255.67 392.076 255.912 391.96 256.675C391.628 258.857 397.374 258.353 399.075 256.051ZM457.77 232.515C457.797 212.745 457.749 211.89 455.464 191.163C454.18 179.522 453.069 169.949 452.994 169.89C452.92 169.83 438.106 179.286 420.076 190.904C402.045 202.522 387.034 212.029 386.719 212.032C386.403 212.035 393.18 216.072 401.778 221.003C410.376 225.934 417.618 229.84 417.873 229.683C418.127 229.525 418.335 229.667 418.335 229.997C418.335 230.694 421.493 232.453 422.033 232.056C422.233 231.909 422.272 231.957 422.119 232.163C421.698 232.732 452.69 250.367 453.4 249.963C453.741 249.77 453.813 249.837 453.562 250.114C453.165 250.55 456.194 252.61 457.331 252.678C457.557 252.691 457.754 243.618 457.77 232.515ZM472.911 242.681C472.93 242.601 473.18 238.615 473.465 233.822L473.984 225.108L468.934 196.714L463.883 168.319L463.697 194.681C463.545 216.184 463.695 223.049 464.513 231.934L465.515 242.826H469.196C471.22 242.826 472.892 242.761 472.911 242.681ZM237.266 208.407C237.246 197.463 237.016 189.033 236.757 189.672C236.497 190.311 233.09 199.068 229.187 209.133C225.284 219.197 221.973 227.628 221.829 227.868C221.686 228.107 225.108 228.303 229.435 228.303H237.303L237.266 208.407ZM476.113 178.81C476.863 163.697 477.486 150.509 477.498 149.505L477.519 147.679L471.861 149.112C466.365 150.505 463.593 152.062 463.593 153.756C463.593 154.345 464.991 154.526 469.557 154.526H475.521L475.413 156.704C475.353 157.903 475.28 159.337 475.251 159.892C475.217 160.536 473.726 161.643 471.136 162.949C468.902 164.076 467.068 165.19 467.061 165.426C467.028 166.469 474.349 206.687 474.538 206.499C474.654 206.384 475.363 193.924 476.113 178.81ZM470.594 128.53C469.673 126.053 466.287 117.1 463.069 108.633C459.85 100.166 457.215 92.7655 457.214 92.1875C457.212 91.6095 456.949 91.2981 456.63 91.4956C456.261 91.724 456.05 99.3441 456.05 112.443V133.032H464.159H472.267L470.594 128.53Z" fill="black"/>
</svg>
