<svg width="1656" height="736" viewBox="0 0 1656 736" fill="none" xmlns="http://www.w3.org/2000/svg">
<path d="M194.796 734.785C194 733.989 193.349 732.163 193.349 730.726C193.349 729.289 193.011 726.425 192.598 724.361C191.75 720.121 190.569 719.923 174.933 721.399C166.202 722.224 166.856 721.705 163.806 730.216C162.772 733.102 160.555 728.232 161.389 724.906C161.918 722.802 161.39 721.861 159.095 720.816C155.34 719.105 155.263 716.14 158.931 714.469C160.996 713.528 161.606 712.45 161.219 710.426C160.929 708.908 161.354 706.427 162.165 704.912C163.584 702.261 163.699 702.242 165.282 704.407C166.186 705.643 166.925 708.172 166.925 710.028C166.925 712.226 167.553 713.401 168.727 713.401C170.055 713.401 170.529 712.014 170.529 708.125C170.529 704.543 169.95 702.627 168.727 702.158C167.736 701.778 166.925 700.622 166.925 699.59C166.925 698.557 167.736 697.402 168.727 697.021C171.966 695.779 170.623 693.393 165.885 691.973C162.651 691.004 147.254 690.655 115.14 690.824C89.7834 690.957 73.2262 691.25 78.3458 691.475L87.6542 691.884L87.6333 696.337C87.5988 703.708 84.307 716.958 81.1967 722.245C76.5682 730.113 72.8884 732.896 66.3742 733.457C58.963 734.096 53.7334 730.953 50.2388 723.76L47.6747 718.483L50.9712 705.196L54.2676 691.909L59.2504 691.456C61.9909 691.206 52.9467 690.907 39.1522 690.792C9.63921 690.545 8.2733 690.103 2.85694 679.032C-0.236835 672.709 -0.349484 671.833 0.355525 659.578C1.57199 638.433 6.40374 619.053 11.5173 614.809C12.8726 613.684 13.1872 606.889 13.1872 578.741C13.1872 556.42 13.6153 544.059 14.3883 544.059C15.1433 544.059 15.5894 551.865 15.5894 565.076C15.5894 576.636 16.0698 586.094 16.657 586.094C17.2442 586.094 17.6496 586.77 17.5578 587.595C17.1706 591.08 23.2873 607.712 24.956 607.712C26.2731 607.712 26.3697 608.102 25.3555 609.324C23.7687 611.236 24.7494 612.516 27.8004 612.516C30.3386 612.516 30.6311 611.223 28.5611 609.154C27.44 608.033 27.5712 607.712 29.1514 607.712C30.2688 607.712 31.8581 608.793 32.6832 610.114C33.8465 611.977 35.4842 612.516 39.9754 612.516C45.2925 612.516 45.7366 612.295 45.3916 609.814C45.059 607.422 45.6026 607.069 50.1204 606.742C53.596 606.491 55.225 605.82 55.225 604.641C55.225 603.688 56.306 602.908 57.6272 602.908C58.9617 602.908 60.0293 603.709 60.0293 604.71C60.0293 605.701 60.5698 606.511 61.2304 606.511C61.891 606.511 62.4315 605.701 62.4315 604.71C62.4315 603.709 63.4991 602.908 64.8336 602.908C66.1548 602.908 67.2358 603.661 67.2358 604.581C67.2358 605.501 68.0808 606.579 69.1135 606.975C70.1463 607.371 70.6549 608.24 70.2437 608.905C69.7909 609.637 71.3001 610.104 74.0711 610.088C78.0209 610.066 78.8922 609.541 80.4477 606.247C81.4385 604.149 82.9249 602.224 83.7506 601.97C85.5385 601.419 85.8075 606.026 84.0509 607.112C81.0637 608.958 83.4415 610.114 90.2242 610.114C95.8242 610.114 97.9916 609.609 99.2322 608.013C100.777 606.025 100.969 606.041 102.762 608.313C104.575 610.611 104.64 610.533 104.263 606.511L103.869 602.308H111.075C118.23 602.308 118.279 602.332 117.895 605.61C117.425 609.637 120.054 612.516 124.201 612.516H127.29V597.065C127.29 583.252 127.554 581.278 129.779 578.449C131.148 576.709 132.905 575.293 133.683 575.303C134.575 575.315 134.654 575.647 133.896 576.204C132.118 577.51 131.759 580.341 131.235 597.203L130.759 612.516H148.894H167.029L166.677 608.013C166.328 603.546 166.362 603.509 170.83 603.509C173.307 603.509 175.334 603.103 175.334 602.608C175.333 602.113 170.198 601.707 163.923 601.707C157.117 601.707 152.512 601.223 152.512 600.506C152.512 599.786 157.293 599.305 164.452 599.305C175.241 599.305 180.246 598.114 176.241 596.5C175.411 596.166 177.061 595.849 179.908 595.797C182.754 595.745 184.787 596.181 184.425 596.767C183.63 598.054 187.742 599.266 192.978 599.289C196.969 599.306 199.279 597.556 196.66 596.5C195.83 596.166 197.538 595.849 200.455 595.797C203.373 595.745 205.368 596.094 204.889 596.573C204.41 597.052 205.806 598.046 207.992 598.782C213.113 600.506 213.071 603.07 207.9 604.409C203.249 605.615 200.556 607.895 200.556 610.629C200.556 612.277 203.389 612.516 222.916 612.516C244.684 612.516 245.259 612.453 244.647 610.114C244.078 607.935 244.611 607.712 250.4 607.712C256.19 607.712 256.723 607.935 256.153 610.114C255.539 612.462 256.116 612.516 281.816 612.516H308.107L309.448 606.812C310.185 603.674 310.595 600.898 310.358 600.643C310.122 600.389 289.913 599.905 265.451 599.57L220.974 598.959V594.929V590.898L249.5 590.894C265.189 590.892 286.524 590.538 296.911 590.107L315.796 589.324L317.109 585.346C318.508 581.106 324.481 575.285 327.432 575.285C328.412 575.285 328.879 575.825 328.47 576.486C328.031 577.198 329.41 577.687 331.856 577.687C334.126 577.687 336.63 578.465 337.419 579.417C339.429 581.839 342.283 580.396 342.283 576.958C342.283 574.479 342.856 574.084 346.449 574.084C349.659 574.084 350.456 573.67 349.924 572.282C349.486 571.142 349.94 570.481 351.162 570.481C352.224 570.481 353.093 569.94 353.093 569.28C353.093 568.563 348.488 568.079 341.682 568.079C334.876 568.079 330.272 567.594 330.272 566.878C330.272 566.158 335.053 565.677 342.212 565.677C353.001 565.677 358.005 564.486 354.001 562.872C353.171 562.537 354.879 562.221 357.797 562.169C360.714 562.116 362.71 562.466 362.23 562.945C361.751 563.424 363.148 564.418 365.333 565.154C370.62 566.934 370.378 569.537 364.803 570.855C358.655 572.309 359.13 574.084 365.666 574.084C369.944 574.084 370.893 574.45 370.342 575.885C369.516 578.039 368.012 578.039 387.924 575.885C396.842 574.921 404.814 574.121 405.64 574.108C406.775 574.09 407.141 578.475 407.141 592.099V610.114H401.319C396.469 610.114 395.28 609.663 394.194 607.412C392.965 604.863 392.886 604.931 392.809 608.613L392.728 612.516H410.744C421.954 612.516 428.761 612.063 428.761 611.315C428.761 610.655 430.071 610.114 431.672 610.114H434.583L434.602 572.716C434.62 534.663 435.176 529.734 438.883 534.751C439.737 535.907 440.781 536.853 441.204 536.853C441.627 536.853 441.972 528.325 441.972 517.902V498.952L447.448 486.376C450.459 479.459 453.902 471.638 455.099 468.995C467.813 440.933 488.936 390.78 490.157 385.755C491.406 380.616 491.413 378.909 490.192 376.954C489.16 375.301 489.062 374.063 489.886 373.07C490.551 372.269 491.258 367.853 491.456 363.256C491.736 356.789 492.224 354.899 493.619 354.899C495.097 354.899 495.528 357.702 496.021 370.512C496.351 379.1 496.971 386.666 497.398 387.326C497.825 387.987 499.064 409.335 500.152 434.766C501.24 460.198 502.626 485.121 503.232 490.152L504.334 499.299L494.069 518.774C488.424 529.485 484.106 538.55 484.474 538.918C484.843 539.286 496.05 540.318 509.381 541.212C522.711 542.105 534.211 542.95 534.937 543.091C535.663 543.231 538.029 542.403 540.196 541.251C547.112 537.573 549.026 541.428 542.264 545.418C539.953 546.781 538.36 548.378 538.723 548.966C539.087 549.555 538.615 549.741 537.675 549.38C536.735 549.02 535.105 549.586 534.053 550.638C533 551.69 531.714 552.57 531.195 552.592C528.776 552.697 516.672 560.277 517.3 561.294C517.691 561.927 517.482 562.118 516.835 561.718C516.189 561.318 507.322 565.753 497.132 571.572L478.605 582.153L478.242 588.327C477.916 593.871 478.131 594.501 480.344 594.501C482.577 594.501 482.809 595.236 482.809 602.308V610.114H489.415C494.486 610.114 496.021 609.696 496.021 608.313C496.021 606.838 498.089 606.511 507.431 606.511C516.773 606.511 518.841 606.838 518.841 608.313C518.841 610.858 522.079 610.548 525.124 607.712C527.949 605.08 532.04 604.576 534.072 606.609C535.003 607.539 535.513 606.689 535.873 603.606L536.375 599.305H512.595H488.814V595.102V590.898L517.34 590.894C533.029 590.892 554.364 590.538 564.751 590.107L583.637 589.324L584.949 585.346C586.349 581.106 592.322 575.285 595.273 575.285C596.252 575.285 596.719 575.825 596.311 576.486C595.871 577.198 597.25 577.687 599.696 577.687C601.967 577.687 604.47 578.465 605.26 579.417C607.27 581.839 610.123 580.396 610.123 576.958C610.123 574.479 610.696 574.084 614.289 574.084C617.499 574.084 618.297 573.67 617.764 572.282C617.327 571.142 617.781 570.481 619.003 570.481C620.065 570.481 620.933 569.94 620.933 569.28C620.933 568.563 616.329 568.079 609.523 568.079C602.717 568.079 598.113 567.594 598.113 566.878C598.113 566.158 602.893 565.677 610.053 565.677C620.842 565.677 625.846 564.486 621.841 562.872C621.012 562.537 622.72 562.221 625.637 562.169C628.555 562.116 630.55 562.466 630.071 562.945C629.592 563.424 630.988 564.418 633.174 565.154C638.46 566.934 638.218 569.537 632.644 570.855C626.496 572.309 626.97 574.084 633.507 574.084C638.007 574.084 638.751 574.405 638.111 576.071C637.456 577.779 638.01 577.956 642.053 577.333C644.64 576.934 651.5 576.234 657.299 575.778C663.097 575.322 668.069 574.581 668.347 574.131C668.942 573.167 626.055 548.462 623.786 548.462C622.936 548.462 622.453 548.118 622.713 547.698C623.167 546.962 608.68 538.46 607.979 539.051C607.79 539.21 606.774 538.479 605.722 537.427C604.669 536.374 603.039 535.808 602.099 536.169C601.159 536.53 600.688 536.344 601.051 535.755C601.415 535.167 599.821 533.57 597.51 532.207C590.747 528.217 592.663 524.36 599.579 528.043C601.745 529.196 603.867 530.048 604.295 529.934C604.723 529.821 626.287 528.353 652.216 526.671C693.298 524.006 699.568 523.345 700.983 521.525C702.51 519.561 702.701 519.559 704.199 521.483C705.212 522.784 705.618 525.704 705.315 529.502C704.854 535.295 704.942 535.487 708.227 535.864C711.034 536.186 711.677 536.89 711.978 539.977C712.284 543.123 712.762 543.621 715.053 543.183C716.607 542.886 718.439 543.476 719.341 544.563C721.971 547.731 723.025 546.727 723.025 541.056C723.025 537.017 723.487 535.651 724.853 535.651C726.458 535.651 726.672 530.366 726.598 492.415C726.535 459.601 726.166 449.169 725.07 449.141C724.275 449.12 725.011 447.882 726.704 446.389C730.401 443.129 731.83 439.903 729.867 439.249C729.07 438.983 729.765 438.018 731.436 437.069C733.66 435.807 740.406 435.266 757.556 434.975C770.272 434.759 780.677 434.141 780.677 433.602C780.677 432.185 777.081 431.017 775.578 431.946C774.867 432.385 774.648 432.172 775.084 431.467C775.516 430.769 773.978 429.082 771.667 427.718C769.356 426.355 767.465 424.713 767.465 424.069C767.465 421.593 770.107 421.46 773.974 423.741C777.219 425.656 778.32 425.826 779.639 424.618C780.54 423.794 815.868 404.601 858.146 381.967C900.424 359.333 935.402 340.462 935.874 340.032C936.346 339.602 936.146 334.085 935.429 327.773L934.125 316.296L924.061 309.98C918.525 306.506 913.996 303.315 913.996 302.889C913.996 301.128 935.838 189.309 936.645 186.937C937.6 184.133 937.597 183.978 935.603 128.653C934.638 101.872 934.617 90.594 935.531 89.6803C936.398 88.8132 936.817 74.0034 936.817 44.1973C936.817 15.5331 937.239 0 938.018 0C938.801 0 939.219 18.569 939.219 53.305C939.219 105.6 939.265 106.622 941.621 107.238C943.956 107.849 944.023 108.876 944.023 143.821C944.023 175.872 944.268 180.481 946.276 186.269C948.689 193.223 981.003 272.423 982.247 274.431C982.656 275.092 983.074 276.173 983.175 276.833C983.276 277.494 985.864 283.979 988.926 291.246L994.494 304.457L990.07 376.173L985.646 447.889L992.033 483.663C995.547 503.339 998.627 519.677 998.879 519.97C999.131 520.263 999.292 504.455 999.238 484.841C999.164 458.079 998.781 449.169 997.705 449.141C996.916 449.12 997.655 447.882 999.348 446.389C1003.05 443.129 1004.48 439.903 1002.51 439.249C1001.71 438.983 1002.41 438.018 1004.08 437.069C1006.36 435.774 1012.25 435.367 1028.7 435.367C1045.15 435.367 1051.04 435.774 1053.32 437.069C1054.99 438.018 1055.68 438.983 1054.89 439.249C1052.92 439.903 1054.35 443.129 1058.05 446.389C1059.74 447.882 1060.49 449.12 1059.7 449.141C1058.64 449.169 1058.25 457.273 1058.17 480.896L1058.06 512.613L1063.2 511.957C1069.32 511.175 1069.67 510.956 1067.97 508.908C1067.24 508.039 1066.48 503.972 1066.27 499.871L1065.88 492.415H1070.37H1074.85L1074.76 473.499C1074.69 459.719 1074.21 453.686 1072.97 451.28L1071.28 447.978H1103.77H1136.26L1134.53 451.317C1133.16 453.965 1132.84 460.188 1133 481.343L1133.19 508.028L1128.69 508.028L1124.19 508.028V516.381C1124.19 523.583 1124.58 525.128 1127.05 527.6C1129.42 529.964 1129.82 531.344 1129.34 535.461L1128.77 540.456H1140.29C1147.17 540.456 1151.81 540.939 1151.81 541.657C1151.81 542.373 1147.21 542.858 1140.4 542.858C1133.59 542.858 1128.99 543.342 1128.99 544.059C1128.99 544.719 1129.8 545.26 1130.79 545.26C1131.78 545.26 1132.59 545.8 1132.59 546.461C1132.59 547.121 1133.4 547.662 1134.39 547.662C1135.92 547.662 1136.2 550.664 1136.2 567.478C1136.2 584.293 1136.47 587.295 1138 587.295C1139.12 587.295 1139.8 586.161 1139.8 584.293C1139.8 581.662 1140.32 581.29 1144 581.29H1148.21V564.476C1148.21 551.812 1148.58 547.668 1149.71 547.685C1150.53 547.699 1158.51 548.499 1167.42 549.463C1187.34 551.617 1185.83 551.617 1185.01 549.463C1184.45 548.027 1185.4 547.662 1189.68 547.662C1196.22 547.662 1196.69 545.887 1190.54 544.433C1184.97 543.115 1184.73 540.511 1190.01 538.731C1192.2 537.996 1193.6 537.002 1193.12 536.523C1192.64 536.043 1194.63 535.694 1197.55 535.746C1200.47 535.798 1202.18 536.115 1201.35 536.449C1197.34 538.064 1202.35 539.255 1213.14 539.255C1220.3 539.255 1225.08 539.735 1225.08 540.456C1225.08 541.172 1220.47 541.657 1213.67 541.657C1206.86 541.657 1202.26 542.141 1202.26 542.858C1202.26 543.518 1203.12 544.059 1204.19 544.059C1205.41 544.059 1205.86 544.719 1205.42 545.86C1204.89 547.248 1205.69 547.662 1208.9 547.662C1212.49 547.662 1213.06 548.057 1213.06 550.536C1213.06 553.973 1215.92 555.416 1217.93 552.995C1218.72 552.043 1221.22 551.265 1223.49 551.265C1225.94 551.265 1227.32 550.775 1226.88 550.064C1226.47 549.403 1226.94 548.863 1227.92 548.863C1230.87 548.863 1236.84 554.684 1238.24 558.924L1239.55 562.901L1258.44 563.685C1268.82 564.115 1290.16 564.47 1305.85 564.472L1334.37 564.475V568.506V572.537L1289.9 573.147C1265.43 573.483 1245.23 573.966 1244.99 574.221C1243.96 575.328 1247.39 586.094 1248.77 586.094C1249.61 586.094 1250.3 585.553 1250.3 584.893C1250.3 584.232 1253.27 583.692 1256.9 583.692C1263.15 583.692 1263.51 583.528 1263.51 580.689C1263.51 577.753 1263.71 577.687 1272.52 577.687C1279.72 577.687 1281.53 578.047 1281.53 579.488C1281.53 580.489 1282.59 581.29 1283.93 581.29C1285.53 581.29 1286.33 580.489 1286.33 578.888C1286.33 577.286 1287.13 576.486 1288.73 576.486C1290.07 576.486 1291.14 577.286 1291.14 578.287C1291.14 579.278 1291.68 580.089 1292.34 580.089C1293 580.089 1293.54 579.278 1293.54 578.287C1293.54 576.283 1297.91 575.78 1298.55 577.711C1298.83 578.544 1301.04 578.542 1305.45 577.705C1309.02 577.028 1312.16 576.696 1312.44 576.968C1312.71 577.241 1312.07 579.135 1311.01 581.178C1309.11 584.856 1309.12 584.892 1312.12 584.892C1314.56 584.892 1315.16 584.3 1315.16 581.89C1315.16 578.954 1315.36 578.887 1324.16 578.887C1332.97 578.887 1333.17 578.954 1333.17 581.89C1333.17 583.541 1333.71 584.892 1334.37 584.892C1335.03 584.892 1335.57 583.541 1335.57 581.89C1335.57 578.954 1335.78 578.887 1344.58 578.887C1353.46 578.887 1353.59 578.933 1353.59 581.976C1353.59 584.721 1353.79 584.864 1355.39 583.262C1356.38 582.272 1357.19 580.341 1357.19 578.973C1357.19 576.534 1357.7 576.485 1383.02 576.485C1408.34 576.485 1408.84 576.534 1408.84 578.973C1408.84 583.072 1411.77 584.892 1418.36 584.892C1421.71 584.892 1424.45 584.389 1424.45 583.773C1424.45 583.158 1426.15 581.445 1428.23 579.968C1431.7 577.495 1432.11 577.441 1433.46 579.286C1434.27 580.388 1435.54 581.289 1436.3 581.289C1438.08 581.289 1438.06 578.558 1436.27 576.765C1434.06 574.564 1439.02 573.293 1447.58 573.863C1450.4 574.051 1450.88 574.61 1450.88 577.686C1450.88 579.668 1451.42 581.289 1452.08 581.289C1452.74 581.289 1453.28 579.668 1453.28 577.686C1453.28 574.884 1453.82 574.083 1455.68 574.083C1457.58 574.083 1458.09 574.884 1458.09 577.916C1458.09 581.558 1458.17 581.633 1459.89 579.417C1461.59 577.209 1461.78 577.197 1463.32 579.188C1464.22 580.344 1465.57 581.289 1466.33 581.289C1468.11 581.289 1468.09 578.558 1466.29 576.765C1465.22 575.696 1465.44 575.149 1467.19 574.464C1470.13 573.318 1477.24 573.304 1480.14 574.439C1482.02 575.173 1482.13 575.614 1480.82 577.192C1479.53 578.742 1479.56 579.261 1480.98 580.162C1481.93 580.762 1483.08 581.261 1483.53 581.271C1485.08 581.306 1485.91 576.37 1484.62 574.816C1482.67 572.463 1484.29 571.681 1491.12 571.681C1497.94 571.681 1499.56 572.463 1497.61 574.816C1495.87 576.913 1497.46 582.034 1499.28 580.209C1500.01 579.482 1502.49 578.888 1504.81 578.888C1508.08 578.888 1508.69 579.208 1507.57 580.329C1506.78 581.121 1506.13 582.202 1506.13 582.731C1506.13 583.259 1515.81 583.692 1527.65 583.692C1543.79 583.692 1549.29 583.317 1549.67 582.19C1550.07 581.02 1550.62 581.052 1552.17 582.337C1553.82 583.698 1554.5 583.712 1556.06 582.415C1557.62 581.12 1558.13 581.121 1558.93 582.416C1560.26 584.573 1575.54 583.632 1576.98 581.304C1577.83 579.93 1578.34 579.914 1579.9 581.213C1581.46 582.507 1582.13 582.507 1583.69 581.213C1585.22 579.944 1585.76 579.936 1586.53 581.174C1587.24 582.32 1588.26 581.923 1590.59 579.596C1592.3 577.885 1594.62 576.485 1595.74 576.485C1597.64 576.485 1597.65 576.635 1595.79 578.681C1592.92 581.853 1593.29 582.49 1598.01 582.49C1602.73 582.49 1603.1 581.853 1600.23 578.681C1598.37 576.635 1598.38 576.485 1600.28 576.485C1601.4 576.485 1603.67 577.836 1605.33 579.488C1608.96 583.118 1610.76 583.264 1612.74 580.088C1613.57 578.767 1615.16 577.686 1616.28 577.686C1617.86 577.686 1617.99 578.006 1616.87 579.127C1614.63 581.366 1615.15 582.49 1618.43 582.49C1621.58 582.49 1622.42 580.841 1620.02 579.361C1619.08 578.775 1619.39 578.206 1620.99 577.615C1622.51 577.051 1624.82 573.161 1627.46 566.703L1631.57 556.668L1631.99 530.546C1632.23 515.542 1632.88 504.424 1633.53 504.424C1634.19 504.424 1634.64 520.17 1634.64 543.399C1634.64 573.382 1634.24 583.899 1632.92 588.989C1630.05 600.014 1628.14 627.749 1629.73 635.385C1631.62 644.512 1635.77 652.928 1641.79 659.888C1649.73 669.059 1652.4 673.719 1654.55 682.155C1660.67 706.099 1647.28 723.914 1616.03 733.404C1609.09 735.509 1581.88 735.604 902.531 735.912C352.806 736.161 195.922 735.911 194.795 734.785L194.796 734.785ZM689.182 559.672L688.774 546.461H691.942C694.954 546.461 695.173 546.033 696.396 537.794C697.104 533.027 697.524 528.968 697.33 528.774C696.863 528.307 610.944 533.23 610.42 533.754C609.81 534.364 623.705 542.038 625.437 542.048C626.263 542.053 626.68 542.316 626.364 542.632C626.048 542.948 637.263 549.843 651.286 557.955C674.928 571.63 677.25 572.71 683.187 572.793L689.59 572.883L689.182 559.672ZM910.393 554.267C910.393 551.732 910.954 551.265 913.996 551.265C916.799 551.265 917.6 551.798 917.6 553.667C917.6 556.427 918.046 556.557 921.382 554.772C923.707 553.528 923.719 553.381 921.677 551.125C920.507 549.832 919.425 547.848 919.274 546.717C919.122 545.585 918.651 543.563 918.228 542.224C917.573 540.15 918.227 539.583 922.634 538.406C929.954 536.451 938.513 538.666 937.389 542.225C936.966 543.564 936.496 545.585 936.344 546.717C936.192 547.848 935.107 549.836 933.933 551.134C931.864 553.419 931.912 553.553 935.448 555.382C940.417 557.951 940.467 557.919 940.036 552.466C939.663 547.75 939.729 547.662 943.641 547.662H947.627V537.616V527.571L941.922 525.348C938.784 524.126 935.771 523.255 935.226 523.413C934.682 523.571 934.488 523.282 934.797 522.77C935.266 521.991 902.837 502.825 870.582 484.817L862.35 480.221V483.339C862.35 486.064 862.728 486.361 865.353 485.702C867.623 485.132 868.355 485.42 868.355 486.88C868.355 488.14 867.311 488.812 865.353 488.812C863.151 488.812 862.35 489.453 862.35 491.214C862.35 492.535 862.77 493.616 863.283 493.616C864.833 493.616 863.58 507.203 861.846 509.185C859.64 511.708 858.419 516.091 859.702 516.884C860.281 517.242 860.518 520.26 860.228 523.591C859.788 528.646 860.031 529.646 861.697 529.646C862.795 529.646 863.359 530.187 862.951 530.847C861.982 532.414 865.541 532.369 873.249 530.716C877.129 529.884 879.744 529.812 880.214 530.524C880.685 531.236 886.373 531.087 895.38 530.125C903.307 529.278 910.378 528.554 911.094 528.515C912.832 528.422 912.893 531.034 911.384 541.056C909.905 550.879 908.912 552.466 904.241 552.466C901.585 552.466 900.785 553.022 900.785 554.868C900.785 556.869 901.585 557.27 905.589 557.27C909.913 557.27 910.393 556.969 910.393 554.267ZM456.83 536.552C458.6 534.749 464.13 508.76 463.237 506.435C462.721 505.09 449.312 501.337 448.545 502.323C448.417 502.489 447.978 510.288 447.571 519.655C446.896 535.151 447.016 536.736 448.905 537.231C452.845 538.264 455.361 538.048 456.83 536.552ZM826.086 529.365C828.204 526.503 830.35 526.676 829.573 529.646C828.59 533.403 831.54 532.493 833.311 528.493C834.176 526.538 834.626 523.297 834.31 521.293C833.994 519.288 834.25 517.329 834.88 516.94C836.24 516.1 835.097 511.781 832.827 509.185C831.094 507.203 829.84 493.616 831.391 493.616C831.903 493.616 832.323 492.535 832.323 491.214C832.323 489.453 831.522 488.812 829.32 488.812C827.362 488.812 826.318 488.14 826.318 486.88C826.318 485.396 827.046 485.131 829.465 485.739C832.413 486.478 832.579 486.298 832.081 482.901L831.548 479.274L845.708 478.939L859.867 478.603L829.727 461.289C813.151 451.766 798.846 443.974 797.939 443.974C797.033 443.974 796.56 443.705 796.889 443.376C797.831 442.434 791.05 438.665 789.46 439.247C787.511 439.961 788.906 443.122 792.612 446.389C794.305 447.882 795.042 449.12 794.249 449.141C793.16 449.169 792.787 458.996 792.719 489.413L792.631 529.646H796.934C799.3 529.646 800.985 529.241 800.678 528.746C800.371 528.25 802.716 528.029 805.89 528.253C810.458 528.576 811.597 529.076 811.357 530.655C810.67 535.165 822.563 534.123 826.086 529.365ZM947.583 480.705C947.64 439.833 947.541 438.065 942.81 395.213C940.152 371.147 937.852 351.356 937.698 351.232C937.544 351.109 906.88 370.659 869.557 394.678C832.233 418.696 801.161 438.353 800.508 438.359C799.855 438.365 813.882 446.711 831.68 456.905C849.478 467.1 864.47 475.175 864.996 474.849C865.523 474.524 865.953 474.817 865.953 475.499C865.953 476.94 872.491 480.576 873.608 479.757C874.022 479.453 874.103 479.552 873.787 479.978C872.915 481.154 937.068 517.613 938.539 516.778C939.243 516.378 939.394 516.518 938.873 517.089C938.052 517.991 944.322 522.251 946.675 522.39C947.143 522.418 947.552 503.66 947.583 480.705ZM978.926 501.723C978.966 501.558 979.482 493.316 980.073 483.407L981.147 465.392L970.693 406.689L960.238 347.986L959.852 402.486C959.538 446.943 959.849 461.135 961.541 479.504L963.616 502.023H971.235C975.426 502.023 978.887 501.888 978.926 501.723ZM491.141 430.863C491.099 408.239 490.624 390.809 490.086 392.131C489.548 393.452 482.497 411.557 474.418 432.364C466.338 453.172 459.485 470.602 459.187 471.097C458.889 471.593 465.974 471.998 474.931 471.998H491.217L491.141 430.863ZM985.554 369.675C987.106 338.429 988.396 311.165 988.42 309.088L988.463 305.313L976.753 308.277C965.376 311.157 959.637 314.376 959.637 317.877C959.637 319.096 962.531 319.469 971.983 319.469H984.329L984.104 323.973C983.98 326.45 983.829 329.416 983.769 330.564C983.699 331.894 980.613 334.184 975.251 336.884C970.627 339.213 966.831 341.516 966.816 342.003C966.748 344.161 981.903 427.307 982.294 426.92C982.534 426.682 984.001 400.921 985.554 369.675ZM974.129 265.724C972.224 260.605 965.214 242.094 958.552 224.589C951.89 207.085 946.436 191.785 946.432 190.59C946.429 189.395 945.885 188.751 945.225 189.159C944.46 189.632 944.023 205.386 944.023 232.467V275.032H960.808H977.593L974.129 265.724Z" fill="black"/>
</svg>
