<svg width="800" height="195" viewBox="0 0 800 195" fill="none" xmlns="http://www.w3.org/2000/svg">
<path d="M407.263 195H32.0714L24.8224 181.133C19.8947 172.035 14.539 163.352 8.78669 155.133L0 143L95.1159 144.444V146.756C95.1159 147.911 96.6536 148.778 98.4109 148.778H101.706V143H118.84L119.719 145.889L120.378 148.2L129.164 148.778H144.541L151.131 148.2L145.639 145.311V134.333L120.378 133.467L149.154 130L156.842 119.889H169.803L175.075 143L166.727 151.667H185.179V145.889H198.14L200.776 151.667H222.962L217.69 143H234.385L226.257 150.8L253.057 154.844L257.45 149.067C260.086 145.6 262.063 141.844 262.063 140.111V137.222H251.08V132.022L261.624 128.556L275.243 132.311V137.222H271.948C270.191 137.222 268.653 137.8 268.653 138.667C268.653 139.533 269.751 143.289 271.289 147.333L273.705 154.556H297.429L298.747 149.933C299.406 147.622 300.065 136.933 300.285 126.244L300.505 106.889L304.898 102.556H327.304L330.16 80.0222L333.675 78.2889C335.652 77.4222 340.045 76.5556 343.34 76.5556H349.93L354.323 87.8222V105.444L382.88 98.8V91L374.093 87.5333V76.5556H378.487V85.2222H380.244C381.123 85.2222 383.539 83.2 385.736 81.1778L389.69 77.1333L386.175 75.4C384.418 74.5333 382.88 72.5111 382.88 71.0667V68.1778L391.227 71.0667L394.522 64.1333L383.978 53.4444H387.273C389.031 53.4444 392.326 55.4667 394.522 57.4889L398.257 61.2444V65.5778C398.257 67.8889 396.939 71.3556 395.621 73.3778L392.765 76.8444L400.453 84.3556L397.817 102.556H402.65V79.4444H406.165L406.824 91.5778C407.043 98.2222 407.702 104.289 408.142 104.867C408.581 105.444 410.778 104.578 413.194 102.844L417.587 99.9555L415.391 87.5333L423.518 89.8444L422.2 99.6667H426.813V80.3111C426.813 69.3333 427.472 53.7333 428.131 45.6444L429.669 30.3333H423.079V21.6667L426.374 20.2222C427.912 19.3556 430.108 19.3556 430.987 20.2222L432.744 21.3778L432.525 10.6889L432.305 0H436.698L436.259 20.8L445.485 17.9111L436.698 26.8667L435.161 98.5111L441.092 101.978C444.167 104 448.121 105.444 449.879 105.444H453.174V137.511L460.862 135.778L462.4 124.222C463.278 117.867 463.937 106.022 463.937 97.9333L464.157 82.9111L467.672 81.1778C469.649 80.3111 478.435 79.4444 487.442 79.4444H503.477L513.802 84.6444L519.074 102.556L524.565 120.178H550.925L551.584 82.0444L552.243 43.6222L558.174 28.0222L553.122 25.1333L558.833 24.8444L555.538 20.5111C553.781 18.2 551.145 16.1778 550.047 16.1778H547.63V10.4H571.794V16.1778H560.591L561.909 25.7111C562.787 30.6222 563.886 45.0667 564.545 57.4889C565.204 69.6222 565.643 79.7333 566.082 79.7333C566.522 79.7333 569.817 76.8444 572.233 73.3778L591.564 57.4889L571.135 77.1333L565.204 87.8222L566.522 116.422C567.181 132.022 568.059 147.622 568.718 151.089L569.597 157.733H578.384V122.778H595.957L596.397 138.667L599.033 116.422L601.669 93.8889L606.062 89.8444C607.999 87.5726 610.341 85.9825 612.872 85.2222C614.409 85.2222 617.924 86.6667 620.999 88.6889L626.711 91.8667L628.029 102.267C628.688 108.044 630.225 115.556 631.543 119.311L633.96 125.667H650.874V114.111H677.234V125.667L706.889 127.111L707.548 140.689L708.207 154.267H753.678C778.501 154.556 799.369 155.422 799.808 156C800.467 156.867 799.369 159.756 797.392 162.644C795.195 165.533 793.658 169.289 793.658 170.733C793.658 172.178 791.241 178.244 788.166 184.311L782.455 195H407.263Z" fill="black"/>
</svg>
