<svg width="1262" height="234" viewBox="0 0 1262 234" fill="none" xmlns="http://www.w3.org/2000/svg">
<path d="M642.458 234H50.5927L39.1573 217.36C31.3839 206.442 22.9353 196.022 13.861 186.16L0 171.6L150.045 173.333V176.107C150.045 177.493 152.471 178.533 155.243 178.533H160.441V171.6H187.47L188.856 175.067L189.896 177.84L203.757 178.533H228.014L238.409 177.84L229.746 174.373V161.2L189.896 160.16L235.291 156L247.419 143.867H267.864L276.181 171.6L263.013 182H292.121V175.067H312.566L316.724 182H351.723L343.406 171.6H369.742L356.921 180.96L399.197 185.813L406.127 178.88C410.286 174.72 413.404 170.213 413.404 168.133V164.667H396.078V158.427L412.711 154.267L434.196 158.773V164.667H428.998C426.226 164.667 423.8 165.36 423.8 166.4C423.8 167.44 425.533 171.947 427.958 176.8L431.77 185.467H469.195L471.274 179.92C472.314 177.147 473.353 164.32 473.7 151.493L474.046 128.267L480.977 123.067H516.322L520.827 96.0267L526.372 93.9467C529.49 92.9067 536.421 91.8667 541.619 91.8667H552.014L558.945 105.387V126.533L603.993 118.56V109.2L590.132 105.04V91.8667H597.063V102.267H599.835C601.221 102.267 605.033 99.84 608.498 97.4133L614.736 92.56L609.191 90.48C606.419 89.44 603.993 87.0133 603.993 85.28V81.8133L617.161 85.28L622.359 76.96L605.726 64.1333H610.924C613.696 64.1333 618.894 66.56 622.359 68.9867L628.25 73.4933V78.6933C628.25 81.4667 626.171 85.6267 624.092 88.0533L619.587 92.2133L631.715 101.227L627.557 123.067H635.181V95.3333H640.725L641.764 109.893C642.111 117.867 643.151 125.147 643.844 125.84C644.537 126.533 648.002 125.493 651.814 123.413L658.744 119.947L655.279 105.04L668.1 107.813L666.021 119.6H673.298V96.3733C673.298 83.2 674.338 64.48 675.377 54.7733L677.803 36.4H667.407V26L672.605 24.2667C675.031 23.2267 678.496 23.2267 679.882 24.2667L682.654 25.6533L682.308 12.8267L681.961 0H688.892L688.199 24.96L702.753 21.4933L688.892 32.24L686.466 118.213L695.822 122.373C700.674 124.8 706.911 126.533 709.683 126.533H714.881V165.013L727.01 162.933L729.435 149.067C730.821 141.44 731.861 127.227 731.861 117.52L732.208 99.4933L737.752 97.4133C740.871 96.3733 754.732 95.3333 768.939 95.3333H794.236L810.522 101.573L818.839 123.067L827.502 144.213H869.085L870.124 98.4533L871.164 52.3467L880.52 33.6267L872.55 30.16L881.56 29.8133L876.362 24.6133C873.59 21.84 869.431 19.4133 867.699 19.4133H863.887V12.48H902.005V19.4133H884.332L886.411 30.8533C887.797 36.7467 889.53 54.08 890.569 68.9867C891.609 83.5467 892.302 95.68 892.995 95.68C893.688 95.68 898.886 92.2133 902.698 88.0533L933.192 68.9867L900.965 92.56L891.609 105.387L893.688 139.707C894.728 158.427 896.114 177.147 897.153 181.307L898.54 189.28H912.401V147.333H940.123L940.816 166.4L944.974 139.707L949.132 112.667L956.063 107.813C959.118 105.087 962.814 103.179 966.805 102.267C969.231 102.267 974.775 104 979.626 106.427L988.636 110.24L990.715 122.72C991.755 129.653 994.181 138.667 996.26 143.173L1000.07 150.8H1026.75V136.933H1068.34V150.8L1115.12 152.533L1116.16 168.827L1117.2 185.12H1188.93C1228.08 185.467 1261 186.507 1261.7 187.2C1262.74 188.24 1261 191.707 1257.89 195.173C1254.42 198.64 1252 203.147 1252 204.88C1252 206.613 1248.18 213.893 1243.33 221.173L1234.32 234H642.458Z" fill="black"/>
</svg>
