<svg width="903" height="315" viewBox="0 0 903 315" fill="none" xmlns="http://www.w3.org/2000/svg">
<path d="M19.5385 213.811L39.1994 210.223L33.7634 181.827L14.2783 185.439L19.5385 213.811Z" fill="#666666" stroke="#040000"/>
<path d="M17.158 210.827L17.8681 214.349L40.8552 209.916L40.2514 206.66L17.158 210.827Z" fill="#666666" stroke="#040000"/>
<path d="M16.0017 204.589L16.7119 208.112L39.6989 203.679L39.0951 200.422L16.0017 204.589Z" fill="#666666" stroke="#040000"/>
<path d="M14.8914 198.601L15.6015 202.123L38.5886 197.69L37.9848 194.433L14.8914 198.601Z" fill="#666666" stroke="#040000"/>
<path d="M13.7349 192.363L14.445 195.886L37.4321 191.452L36.8283 188.196L13.7349 192.363Z" fill="#666666" stroke="#040000"/>
<path d="M12.4812 185.601L13.1914 189.124L36.1784 184.691L35.5746 181.434L12.4812 185.601Z" fill="#666666" stroke="#040000"/>
<path d="M8.08269 216.078L27.7436 212.49L22.3076 184.093L2.82251 187.706L8.08269 216.078Z" fill="#666666" stroke="#040000"/>
<path d="M5.70239 213.094L6.41256 216.616L29.3996 212.183L28.7958 208.926L5.70239 213.094Z" fill="#666666" stroke="#040000"/>
<path d="M4.54614 206.856L5.25631 210.379L28.2434 205.945L27.6396 202.689L4.54614 206.856Z" fill="#666666" stroke="#040000"/>
<path d="M3.43579 200.867L4.14595 204.39L27.133 199.956L26.5292 196.7L3.43579 200.867Z" fill="#666666" stroke="#040000"/>
<path d="M2.2793 194.63L2.98946 198.152L25.9765 193.719L25.3727 190.462L2.2793 194.63Z" fill="#666666" stroke="#040000"/>
<path d="M1.02563 187.868L1.7358 191.39L24.7229 186.957L24.119 183.7L1.02563 187.868Z" fill="#666666" stroke="#040000"/>
<path d="M554.414 157.883H518.321V162.313H554.414V157.883Z" fill="#999999" stroke="#040000" stroke-width="0.617035"/>
<path d="M511.693 129.221V158.108H559.237V138.248H552.015C552.015 138.248 550.92 139.585 550.209 140.054C549.308 140.649 548.037 141.258 547.034 141.66C546.031 142.061 545.252 142.257 544.191 142.461C543.403 142.613 542.586 142.561 541.784 142.561C540.781 142.561 539.775 142.532 538.775 142.461C537.36 142.361 535.916 142.282 534.562 141.859C533.278 141.458 532.078 140.79 530.951 140.054C529.64 139.196 528.437 138.164 527.34 137.045C526.441 136.127 525.72 135.051 524.933 134.036C524.319 133.243 523.655 132.482 523.128 131.628C522.656 130.865 521.924 129.221 521.924 129.221H511.693Z" fill="#999999" stroke="#040000"/>
<path d="M554.067 136.053L554.666 138.182L558.991 138.215L558.792 135.986L554.067 136.053Z" fill="#999999" stroke="#040000" stroke-width="0.601813"/>
<path d="M543.687 131.262L535.369 131.296L535.469 136.486L543.653 136.419L543.687 131.262Z" fill="#666666" stroke="#040000" stroke-width="0.601813"/>
<path d="M543.886 125.174V138.315H550.274V125.107L543.886 125.174Z" fill="#666666" stroke="#040000" stroke-width="0.601813"/>
<path d="M550.241 131.229L557.028 131.262V135.986L550.274 135.953L550.241 131.229Z" fill="#666666" stroke="#040000" stroke-width="0.601813"/>
<path d="M557.062 131.229L560.588 132.26L560.555 134.589L558.459 135.953L557.095 135.986L557.062 131.229Z" fill="#666666" stroke="#040000" stroke-width="0.601813"/>
<path d="M550.208 131.196L543.787 131.162Z" fill="#999999"/>
<path d="M550.208 131.196L543.787 131.162" stroke="#040000" stroke-width="0.601813"/>
<path d="M537.998 131.262L537.964 136.552Z" fill="#999999"/>
<path d="M537.998 131.262L537.964 136.552" stroke="#040000" stroke-width="0.601813"/>
<path d="M560.588 132.36L584.776 132.094V133.957L560.488 134.19L560.588 132.36Z" fill="#666666" stroke="#040000" stroke-width="0.601813"/>
<path d="M584.775 132.127L590.365 131.262L590.398 134.389L584.742 133.857L584.775 132.127Z" fill="#666666" stroke="#040000" stroke-width="0.601813"/>
<path d="M583.345 130.597L585.008 130.597L584.975 135.155L583.312 135.188L583.345 130.597Z" fill="#999999" stroke="#040000" stroke-width="0.601813"/>
<path d="M561.686 130.863V135.754L561.553 135.487" fill="#999999"/>
<path d="M561.686 130.863V135.754L561.553 135.487" stroke="#040000" stroke-width="0.601813"/>
<path d="M563.083 135.487L563.05 121.281Z" fill="#999999"/>
<path d="M563.083 135.487L563.05 121.281" stroke="#040000" stroke-width="0.601813"/>
<path d="M564.248 130.63C564.214 135.354 564.214 135.354 564.214 135.354Z" fill="#999999"/>
<path d="M564.248 130.63C564.214 135.354 564.214 135.354 564.214 135.354" stroke="#040000" stroke-width="0.601813"/>
<path d="M565.429 130.63C565.396 135.354 565.396 135.354 565.396 135.354Z" fill="#999999"/>
<path d="M565.429 130.63C565.396 135.354 565.396 135.354 565.396 135.354" stroke="#040000" stroke-width="0.601813"/>
<path d="M566.435 130.63C566.402 135.354 566.402 135.354 566.402 135.354Z" fill="#999999"/>
<path d="M566.435 130.63C566.402 135.354 566.402 135.354 566.402 135.354" stroke="#040000" stroke-width="0.601813"/>
<path d="M567.616 130.63C567.583 135.354 567.583 135.354 567.583 135.354Z" fill="#999999"/>
<path d="M567.616 130.63C567.583 135.354 567.583 135.354 567.583 135.354" stroke="#040000" stroke-width="0.601813"/>
<path d="M568.802 130.63C568.768 135.354 568.768 135.354 568.768 135.354Z" fill="#999999"/>
<path d="M568.802 130.63C568.768 135.354 568.768 135.354 568.768 135.354" stroke="#040000" stroke-width="0.601813"/>
<path d="M569.983 130.63C569.949 135.354 569.949 135.354 569.949 135.354Z" fill="#999999"/>
<path d="M569.983 130.63C569.949 135.354 569.949 135.354 569.949 135.354" stroke="#040000" stroke-width="0.601813"/>
<path d="M570.989 130.63C570.956 135.354 570.956 135.354 570.956 135.354Z" fill="#999999"/>
<path d="M570.989 130.63C570.956 135.354 570.956 135.354 570.956 135.354" stroke="#040000" stroke-width="0.601813"/>
<path d="M572.17 130.63C572.137 135.354 572.137 135.354 572.137 135.354Z" fill="#999999"/>
<path d="M572.17 130.63C572.137 135.354 572.137 135.354 572.137 135.354" stroke="#040000" stroke-width="0.601813"/>
<path d="M573.245 130.63C573.212 135.354 573.212 135.354 573.212 135.354Z" fill="#999999"/>
<path d="M573.245 130.63C573.212 135.354 573.212 135.354 573.212 135.354" stroke="#040000" stroke-width="0.601813"/>
<path d="M574.426 130.63C574.393 135.354 574.393 135.354 574.393 135.354Z" fill="#999999"/>
<path d="M574.426 130.63C574.393 135.354 574.393 135.354 574.393 135.354" stroke="#040000" stroke-width="0.601813"/>
<path d="M575.433 130.63C575.399 135.354 575.399 135.354 575.399 135.354Z" fill="#999999"/>
<path d="M575.433 130.63C575.399 135.354 575.399 135.354 575.399 135.354" stroke="#040000" stroke-width="0.601813"/>
<path d="M576.614 130.63C576.581 135.354 576.581 135.354 576.581 135.354Z" fill="#999999"/>
<path d="M576.614 130.63C576.581 135.354 576.581 135.354 576.581 135.354" stroke="#040000" stroke-width="0.601813"/>
<path d="M577.799 130.63C577.766 135.354 577.766 135.354 577.766 135.354Z" fill="#999999"/>
<path d="M577.799 130.63C577.766 135.354 577.766 135.354 577.766 135.354" stroke="#040000" stroke-width="0.601813"/>
<path d="M578.98 130.63C578.947 135.354 578.947 135.354 578.947 135.354Z" fill="#999999"/>
<path d="M578.98 130.63C578.947 135.354 578.947 135.354 578.947 135.354" stroke="#040000" stroke-width="0.601813"/>
<path d="M579.987 130.63C579.953 135.354 579.953 135.354 579.953 135.354Z" fill="#999999"/>
<path d="M579.987 130.63C579.953 135.354 579.953 135.354 579.953 135.354" stroke="#040000" stroke-width="0.601813"/>
<path d="M581.168 130.63C581.135 135.354 581.135 135.354 581.135 135.354Z" fill="#999999"/>
<path d="M581.168 130.63C581.135 135.354 581.135 135.354 581.135 135.354" stroke="#040000" stroke-width="0.601813"/>
<path d="M5.35059 228.391L747.209 228.878C747.209 228.878 751.159 223.4 754.269 221.178C755.933 219.989 760.622 216.672 762.522 215.915C765.502 214.727 767.634 214.363 770.792 213.8C772.604 213.477 779.436 213.567 779.436 213.567L901.788 213.489L899.851 215.457L895.42 229.584L884.771 265.725C884.771 265.725 882.773 272.742 880.994 274.883C879.086 277.178 877.915 280.51 875.627 282.427C873.46 284.244 870.989 287.55 868.555 288.99C865.515 290.787 862.35 292.775 859.054 294.044C852.237 296.668 845.776 299.88 838.651 301.492C834.404 302.453 826.507 304.326 822.184 304.84C811.498 306.111 803.742 307.068 793.028 308.076C791.082 308.259 784.152 308.612 784.152 308.612L763.983 309.433L674.219 308.781L632.969 308.056L605.74 308.381L551.76 308.36L428.195 307.613L376.497 307.15L307.992 306.719L239.881 305.237L208.052 304.732L154.758 303.607L119.077 300.6L61.8001 297.921L37.0233 296.626L10.2376 294.126L5.67426 232.745L5.35059 228.391Z" fill="#999999" stroke="#040000"/>
<path d="M6.29253 229.41C5.94863 232.314 6.17789 232.44 6.17789 232.44L135.601 232.188V229.031L6.29253 229.41Z" fill="black" stroke="#040000" stroke-width="0.952818"/>
<path d="M739.211 238.841C739.211 241.06 737.411 242.859 735.191 242.859C732.97 242.859 731.17 241.06 731.17 238.841C731.17 236.621 732.97 234.822 735.191 234.822C737.411 234.822 739.211 236.621 739.211 238.841Z" stroke="#040000" stroke-width="0.486053"/>
<path d="M738.211 238.794C738.211 240.373 736.847 241.652 735.164 241.652C733.481 241.652 732.116 240.373 732.116 238.794C732.116 237.216 733.481 235.936 735.164 235.936C736.847 235.936 738.211 237.216 738.211 238.794Z" fill="#0000FF" stroke="#040000" stroke-width="0.356873"/>
<path d="M109.409 228.369V226.31H128.433V228.369H109.409Z" fill="#CCCCCC" stroke="#040000" stroke-width="0.9657"/>
<path d="M110.335 226.276L109.439 221.543H113.919L114.815 226.276H110.335Z" fill="#CCCCCC" stroke="#040000" stroke-width="1.02952"/>
<path d="M115.693 221.542V219.483H107.541V221.542H115.693Z" fill="#CCCCCC" stroke="#040000" stroke-width="0.9657"/>
<path d="M130.292 221.691V219.632H122.139V221.691H130.292Z" fill="#CCCCCC" stroke="#040000" stroke-width="0.9657"/>
<path d="M122.883 226.163C123.39 224.711 123.717 223.856 124.406 221.806H128.869L127.346 226.163H122.883Z" fill="#CCCCCC" stroke="#040000" stroke-width="1.06026"/>
<path d="M747.209 228.878C750.875 224.98 753.889 220.657 759.729 217.392C761.904 216.176 764.187 215.457 766.222 214.898C767.601 214.519 767.99 214.526 769.267 214.228C771.867 213.62 772.119 213.681 774.068 213.441L798.756 213.53L901.788 213.495L900.03 215.747L774.21 215.257C769.259 215.512 764.66 217.423 760.556 219.731C757.222 221.606 754.272 224.883 751.48 228.884L747.209 228.878Z" stroke="#040000" stroke-width="1.019"/>
<path d="M826.581 250.08C826.581 253.116 826.581 253.205 826.581 253.205L890.26 253.473C890.26 253.473 892 253.418 892.706 252.937C893.085 252.68 893.456 252.259 893.522 251.777C893.591 251.274 893.36 250.708 893.033 250.348C892.438 249.694 890.668 249.366 890.668 249.366L826.581 250.08Z" fill="#999999" stroke="#040000" stroke-width="0.955612"/>
<path d="M657.11 229.495V232.968L814.683 233.409L814.661 229.709L657.11 229.495Z" fill="black" stroke="#040000" stroke-width="0.954927"/>
<path d="M8.30005 268.158L10.2375 294.126L37.0188 296.626L61.8 297.908L119.081 300.595L154.738 303.595L208.05 304.72L239.863 305.251L307.988 306.72L376.488 307.158L428.175 307.626L551.738 308.376H605.738L632.956 308.064L674.206 308.783L763.988 309.439L784.144 308.626C784.144 308.626 791.072 308.247 793.019 308.064C803.733 307.056 811.489 306.116 822.175 304.845C826.498 304.331 834.398 302.462 838.644 301.501C845.769 299.889 852.233 296.657 859.05 294.033C862.346 292.764 865.51 290.798 868.55 289.001C870.985 287.562 873.445 284.255 875.613 282.439C877.9 280.522 879.08 277.172 880.988 274.876C882.102 273.536 883.246 270.402 883.988 268.158H8.30005Z" fill="#D40000"/>
<path d="M886.944 256.873L883.05 270.917C883.05 270.917 880.863 275.725 879.084 277.866C877.176 280.161 874.679 283.43 872.391 285.347C870.224 287.164 867.375 289.649 864.94 291.089C861.9 292.886 858.041 294.496 854.745 295.764C847.928 298.388 840.898 301.032 833.773 302.644C829.527 303.605 825.039 304.657 820.716 305.171C810.03 306.442 799.484 307.194 788.77 308.202C786.823 308.385 781.73 308.612 781.73 308.612L763.453 309.37L668.909 308.644L632.606 308.075L601.702 308.423L547.469 308.233L422.905 307.602L371.703 307.128L318.701 306.686L239.183 305.203L207.206 304.445L154.709 303.435L119.001 300.614L60.3956 297.907L37.8584 296.689L10.2377 294.126L9.82764 289.306L152.743 292.524L299.403 295.069L397.04 293.762L536.861 288.672L639.718 282.154C639.718 282.154 811.53 263.818 886.944 256.873V256.873Z" stroke="#040000"/>
<path d="M128.915 244.067L128.742 248.171L628.054 249.055L628.227 245.141L128.915 244.067Z" fill="black" stroke="#040000" stroke-width="0.954867"/>
<path d="M17.6499 292.701L33.7121 292.91L33.1405 314.171L18.5645 314.241L17.6499 292.701Z" fill="#666666" stroke="#040000" stroke-width="1.00145"/>
<path d="M44.6911 302.689L57.6822 301.932L64.7894 303.258L64.8476 305.404L59.1968 306.541L44.691 307.488C44.691 307.488 42.8441 307.452 42.0695 306.983C41.4573 306.611 40.6348 306.037 40.6713 305.278C40.7028 304.623 41.5127 304.323 42.0112 303.952C42.8345 303.339 44.691 302.689 44.691 302.689H44.6911Z" fill="#808080" stroke="#040000" stroke-width="0.960588"/>
<path d="M54.731 293.74L48.7285 307.263L56.5829 306.929L61.5637 293.741L54.731 293.74Z" fill="#808080" stroke="#040000" stroke-width="0.944193"/>
<path d="M44.691 302.689L44.1228 295.555L46.5851 295.618L50.0574 301.679L44.691 302.689Z" fill="#808080" stroke="#040000"/>
<path d="M44.6909 307.488L44.8803 314.559L47.7845 314.369L50.5624 307.235L44.6909 307.488Z" fill="#808080" stroke="#040000"/>
<path d="M64.7893 303.258L163.848 299.343L173.397 299.785C173.397 299.785 175.023 299.491 175.411 300.101C175.568 300.348 175.513 300.979 175.238 300.985C169.676 301.103 157.884 301.3 157.884 301.3L64.8468 305.404L64.7893 303.258Z" fill="#666666" stroke="#040000" stroke-width="0.954545"/>
<path d="M895.248 147.773L894.98 213.562H897.48L897.391 147.773H895.248Z" fill="#B3B3B3" stroke="#040000" stroke-width="1.04869"/>
<path d="M899.523 150.168H893.456V153.077H899.523V150.168Z" fill="#999999" stroke="#040000" stroke-width="0.451"/>
<path d="M875.974 211.381H869.747V213.323H875.974V211.381Z" fill="#999999" stroke="#040000" stroke-width="0.451"/>
<path d="M877.47 209.394H868.34V211.316H877.47V209.394Z" fill="#999999" stroke="#040000" stroke-width="0.436305"/>
<path d="M790.182 213.484V210.77H780.744L779.67 213.453L790.182 213.484Z" fill="#999999" stroke="#040000"/>
<path d="M623.747 238.312C623.747 240.531 621.947 242.33 619.727 242.33C617.506 242.33 615.707 240.531 615.707 238.312C615.707 236.092 617.506 234.293 619.727 234.293C621.947 234.293 623.747 236.092 623.747 238.312Z" stroke="#040000" stroke-width="0.486053"/>
<path d="M622.747 238.265C622.747 239.844 621.383 241.124 619.7 241.124C618.017 241.124 616.653 239.844 616.653 238.265C616.653 236.687 618.017 235.407 619.7 235.407C621.383 235.407 622.747 236.687 622.747 238.265Z" fill="#0000FF" stroke="#040000" stroke-width="0.356873"/>
<path d="M588.518 238.185C588.518 240.405 586.718 242.204 584.498 242.204C582.277 242.204 580.478 240.405 580.478 238.185C580.478 235.966 582.277 234.167 584.498 234.167C586.718 234.167 588.518 235.966 588.518 238.185Z" stroke="#040000" stroke-width="0.486053"/>
<path d="M587.518 238.139C587.518 239.718 586.154 240.997 584.471 240.997C582.788 240.997 581.424 239.718 581.424 238.139C581.424 236.56 582.788 235.281 584.471 235.281C586.154 235.281 587.518 236.56 587.518 238.139Z" fill="#0000FF" stroke="#040000" stroke-width="0.356873"/>
<path d="M518.439 238.185C518.439 240.405 516.639 242.204 514.418 242.204C512.198 242.204 510.398 240.405 510.398 238.185C510.398 235.966 512.198 234.167 514.418 234.167C516.639 234.167 518.439 235.966 518.439 238.185Z" stroke="#040000" stroke-width="0.486053"/>
<path d="M517.439 238.139C517.439 239.718 516.074 240.997 514.391 240.997C512.709 240.997 511.344 239.718 511.344 238.139C511.344 236.56 512.709 235.281 514.391 235.281C516.074 235.281 517.439 236.56 517.439 238.139Z" fill="#0000FF" stroke="#040000" stroke-width="0.356873"/>
<path d="M484.346 238.185C484.346 240.405 482.546 242.204 480.326 242.204C478.106 242.204 476.306 240.405 476.306 238.185C476.306 235.966 478.106 234.167 480.326 234.167C482.546 234.167 484.346 235.966 484.346 238.185Z" stroke="#040000" stroke-width="0.486053"/>
<path d="M483.346 238.139C483.346 239.718 481.982 240.997 480.299 240.997C478.616 240.997 477.252 239.718 477.252 238.139C477.252 236.56 478.616 235.281 480.299 235.281C481.982 235.281 483.346 236.56 483.346 238.139Z" fill="#0000FF" stroke="#040000" stroke-width="0.356873"/>
<path d="M63.87 237.807C63.87 240.026 62.0701 241.825 59.8498 241.825C57.6295 241.825 55.8296 240.026 55.8296 237.807C55.8296 235.587 57.6295 233.788 59.8498 233.788C62.0701 233.788 63.87 235.587 63.87 237.807Z" stroke="#040000" stroke-width="0.486053"/>
<path d="M62.87 237.76C62.87 239.339 61.5057 240.618 59.8228 240.618C58.1399 240.618 56.7756 239.339 56.7756 237.76C56.7756 236.182 58.1399 234.902 59.8228 234.902C61.5057 234.902 62.87 236.182 62.87 237.76Z" fill="#0000FF" stroke="#040000" stroke-width="0.356873"/>
<path d="M377.216 228.072H394.264V223.678H377.172L377.216 228.072Z" fill="#999999" stroke="#040000"/>
<path d="M375.503 221.481V223.722H395.845V221.569L375.503 221.481Z" fill="#999999" stroke="#040000"/>
<path d="M382.62 221.481H388.596V196.086H382.708L382.62 221.481Z" fill="#999999" stroke="#040000"/>
<path d="M384.378 200.392H386.619V221.481H384.202L384.378 200.392Z" fill="#999999" stroke="#040000"/>
<path d="M382.708 200.48L375.547 221.481L382.576 221.393L382.708 200.48Z" fill="#999999" stroke="#040000"/>
<path d="M388.618 200.568L395.779 221.569L388.749 221.481L388.618 200.568Z" fill="#999999" stroke="#040000"/>
<path d="M383.631 196.086L387.453 196.042V178.863L383.587 178.907L383.631 196.086Z" fill="#999999" stroke="#040000"/>
<path d="M385.169 178.907L378.183 178.819L377.392 178.072L377.304 175.656H385.169V178.907Z" fill="#666666" stroke="#040000"/>
<path d="M385.301 166.868L385.388 184.926L391.364 184.794V166.78L385.301 166.868Z" fill="#666666" stroke="#040000"/>
<path d="M357.225 170.603L385.432 170.823L385.3 175.743L357.225 175.875V170.603Z" fill="#666666" stroke="#040000"/>
<path d="M357.247 173.173H355.666V174.645L357.203 174.601L357.247 173.173Z" fill="#666666" stroke="#040000"/>
<path d="M359.18 169.57L359.136 170.625H360.455L360.411 169.57H359.18Z" fill="#999999" stroke="#040000"/>
<path d="M378.71 160.849L381.302 160.805L381.215 193.318L378.71 193.274V160.849Z" fill="#999999" stroke="#040000"/>
<path d="M381.214 157.246V193.406L381.302 193.23" fill="#999999"/>
<path d="M381.214 157.246V193.406L381.302 193.23" stroke="#040000"/>
<path d="M391.496 170.471L401.996 170.427L401.908 176.93L391.408 177.018L391.496 170.471Z" fill="#666666" stroke="#040000"/>
<path d="M391.408 171.921L397.471 168.186L400.283 168.099L400.371 165.199H401.996V167.923L407.884 167.879L407.84 170.12L397.998 170.076L391.408 174.162V171.921Z" fill="#666666" stroke="#040000"/>
<path d="M407.884 168.055C407.884 168.055 408.214 166.1 408.675 165.243C409.078 164.493 409.778 163.945 410.344 163.31C410.834 162.76 411.155 161.957 411.838 161.684C412.247 161.52 412.842 161.464 413.156 161.772C413.398 162.008 413.357 162.464 413.244 162.782C413.011 163.436 412.285 163.786 411.794 164.276C411.376 164.693 410.857 165.022 410.52 165.506C410.082 166.136 409.789 166.872 409.597 167.615C409.362 168.527 409.334 170.164 409.334 170.427C409.334 170.691 409.834 172.467 410.344 173.371C410.86 174.286 411.567 175.105 412.365 175.787C413.014 176.342 413.759 176.816 414.562 177.106C415.106 177.302 415.702 177.296 416.276 177.369C416.714 177.425 417.23 177.25 417.594 177.501C417.836 177.668 418.005 177.998 417.989 178.292C417.973 178.588 417.765 178.894 417.506 179.039C416.995 179.325 416.329 179.159 415.748 179.083C414.825 178.961 413.904 178.702 413.068 178.292C412.192 177.862 411.415 177.237 410.696 176.578C410.052 175.99 409.431 175.349 408.982 174.601C408.521 173.834 408.233 172.965 408.016 172.097C407.84 171.395 407.752 169.944 407.752 169.944L407.884 168.055Z" fill="#666666" stroke="#040000"/>
<path d="M640.486 221.559L640.442 224.414L714.43 224.369L714.519 221.757L640.486 221.559Z" fill="#999999" stroke="#040000"/>
<path d="M689.851 224.552L689.76 228.903L678.126 228.842L678.218 224.557L689.851 224.552Z" fill="#999999" stroke="#040000"/>
<path d="M677.679 224.424L663.477 224.402L663.428 228.912L677.635 228.937L677.679 224.424Z" fill="#999999" stroke="#040000"/>
<path d="M663.548 224.549H640.521L663.492 228.795L663.548 224.549Z" fill="#999999" stroke="#040000"/>
<path d="M713.999 221.821L713.954 207.835L704.382 207.79L704.203 221.784L713.999 221.821Z" fill="#999999" stroke="#040000"/>
<path d="M714.727 207.835L714.77 206.393L703.611 206.295L704.955 207.789L714.727 207.835Z" fill="#999999" stroke="#040000"/>
<path d="M704.16 221.785L704.339 206.909L702.775 205.286L676.445 175.13L676.595 221.809L704.16 221.785Z" fill="#999999" stroke="#040000"/>
<path d="M676.506 221.853L676.445 174.445L669.294 174.357C669.294 174.357 665.255 179.796 664.939 179.796C664.623 179.796 664.552 221.809 664.552 221.809L676.506 221.853Z" fill="#999999" stroke="#040000"/>
<path d="M689.002 189.208L698.748 189.154L698.804 194.01L693.227 194.064L689.002 189.208Z" fill="#4D4D4D" stroke="#040000"/>
<path d="M698.929 190.222L748.116 190.583L748.574 189.369L750.763 189.306L750.738 194.083L748.838 194.171L748.172 193.033L698.942 193.393L698.929 190.222Z" fill="#4D4D4D" stroke="#040000"/>
<path d="M750.858 191.168L756.915 189.902L756.896 193.71L750.883 192.657L750.858 191.168Z" fill="#4D4D4D" stroke="#040000"/>
<path d="M664.697 185.595L655.304 182.146L653.144 189.404H664.697V185.595Z" fill="#4D4D4D" stroke="#040000"/>
<path d="M664.546 189.655L650.128 189.775V198.648L664.469 198.528L664.546 189.655Z" fill="#4D4D4D" stroke="#040000"/>
<path d="M651.906 198.754L649.864 200.677L640.362 200.754L640.401 188.257L650.184 188.312L650.057 198.803L651.906 198.754Z" fill="#4D4D4D" stroke="#040000"/>
<path d="M643.962 200.712L641.94 200.712C641.94 200.712 641.774 203.125 642.083 204.207C642.531 205.775 642.849 207.385 643.426 208.91C644.057 210.582 644.793 212.228 645.729 213.749C646.489 214.984 647.433 216.1 648.393 217.187C649.041 217.921 649.772 218.579 650.475 219.261C651.253 220.014 652.839 221.488 652.839 221.488L659.22 221.498C659.22 221.498 656.964 220.063 656.21 219.466C655.379 218.808 654.51 218.197 653.718 217.493C652.62 216.518 651.552 215.5 650.596 214.385C649.767 213.419 648.998 212.393 648.344 211.3C647.745 210.301 647.302 209.216 646.83 208.151C646.406 207.198 645.924 206.259 645.645 205.253C645.452 204.557 645.425 203.825 645.315 203.111C645.204 202.393 645.108 200.712 645.108 200.712L643.962 200.712Z" fill="#666666" stroke="#040000"/>
<path d="M689.671 224.547L689.803 229.127L713.324 224.591L689.671 224.547Z" fill="#999999" stroke="#040000"/>
<path d="M705.527 228.975V226.916H724.55V228.975H705.527Z" fill="#CCCCCC" stroke="#040000" stroke-width="0.9657"/>
<path d="M706.453 226.882L705.557 222.15H710.037L710.932 226.882H706.453Z" fill="#CCCCCC" stroke="#040000" stroke-width="1.02952"/>
<path d="M711.811 222.148V220.089H703.658V222.148H711.811Z" fill="#CCCCCC" stroke="#040000" stroke-width="0.9657"/>
<path d="M726.41 222.297V220.238H718.257V222.297H726.41Z" fill="#CCCCCC" stroke="#040000" stroke-width="0.9657"/>
<path d="M719 226.77C719.508 225.317 719.834 224.462 720.524 222.412H724.987L723.463 226.77H719Z" fill="#CCCCCC" stroke="#040000" stroke-width="1.06026"/>
<path d="M675.917 194.938L678 194.875L678.126 228.842H675.854L675.917 194.938Z" fill="#CCCCCC" stroke="#040000"/>
<path d="M675.853 199.358L656.577 228.747L658.831 228.725L675.917 201.82L675.853 199.358Z" fill="#CCCCCC" stroke="#040000"/>
<path d="M766.398 214.595L678 197.274" stroke="#040000" stroke-width="0.7"/>
<path d="M606.279 194.875L608.363 194.812L608.489 228.778H606.216L606.279 194.875Z" fill="#CCCCCC" stroke="#040000"/>
<path d="M590.111 119.518C590.111 125.559 590.111 126.204 590.111 126.204H593.454V119.518H590.111Z" fill="#FF0000" stroke="#040000" stroke-width="0.7"/>
<path d="M588.996 119.518H593.454V126.204H588.996V125.09H592.339V123.418H588.996V122.304H592.339V120.632H588.996V119.518Z" fill="#999999" stroke="#040000" stroke-width="0.7"/>
<path d="M600.187 45.5677C600.187 51.6083 600.187 52.2542 600.187 52.2542H596.844V45.5677H600.187Z" fill="#FF0000" stroke="#040000" stroke-width="0.7"/>
<path d="M601.301 45.5677H596.844V52.2542H601.301V51.1398H597.958V49.4682H601.301V48.3538H597.958V46.6822H601.301V45.5677Z" fill="#999999" stroke="#040000" stroke-width="0.7"/>
<path d="M592.896 154.928L597.534 154.912L596.24 18.1072H594.568L592.896 154.928Z" fill="#999999" stroke="#040000" stroke-width="0.7"/>
<path d="M593.454 18.1072V19.7788H597.911V18.1072H593.454Z" fill="#999999" stroke="#040000" stroke-width="0.7"/>
<path d="M593.47 22.0511V23.7228H597.927V22.0511H593.47Z" fill="#999999" stroke="#040000" stroke-width="0.7"/>
<path d="M593.372 26.6648V28.3364H597.829V26.6648H593.372Z" fill="#999999" stroke="#040000" stroke-width="0.7"/>
<path d="M590.279 45.2346L592.143 45.25L592.035 1.10779L590.11 1.12316L590.279 45.2346Z" fill="#999999" stroke="#040000" stroke-width="0.7"/>
<path d="M589.053 33.6074V35.0969H597.86V33.6074H589.053Z" fill="#999999" stroke="#040000" stroke-width="0.7"/>
<path d="M589.103 42.3019V43.7972H597.741V42.3019H589.103Z" fill="#999999" stroke="#040000" stroke-width="0.7"/>
<path d="M594.446 18.1072C594.446 18.1072 594.427 16.9928 594.461 16.5637C594.486 16.2466 594.832 16.0024 595.125 15.8783C595.467 15.7335 595.9 15.7269 596.24 15.8783C596.542 16.0133 596.865 16.2888 596.902 16.6176C596.955 17.0818 596.895 18.1072 596.895 18.1072H594.446Z" fill="#999999" stroke="#040000" stroke-width="0.7"/>
<path d="M589.24 1V2.72538H592.766V1H589.24Z" fill="#999999" stroke="#040000" stroke-width="0.7"/>
<path d="M564.479 39.8381L594.011 53.7681L592.896 55.4398L563.365 41.5097L564.479 39.8381Z" fill="#999999" stroke="#040000" stroke-width="0.7"/>
<path d="M599.257 54.1603C599.257 54.5673 598.896 55.173 598.172 55.4398C597.448 55.7065 596.361 55.6343 595.257 55.6343C594.152 55.6343 593.063 55.7065 592.339 55.4398C591.616 55.173 591.257 54.5673 591.257 54.1603C591.257 53.7532 591.616 53.254 592.339 52.9872C593.063 52.7205 594.152 52.6862 595.257 52.6862C596.361 52.6862 597.427 52.6769 598.15 52.9437C598.874 53.2104 599.257 53.7532 599.257 54.1603Z" fill="#999999" stroke="#040000" stroke-width="0.7"/>
<path d="M597.911 54.162C597.911 54.3796 597.718 54.5559 597.478 54.5559C597.239 54.5559 597.045 54.3796 597.045 54.162C597.045 53.9445 597.239 53.7682 597.478 53.7682C597.718 53.7682 597.911 53.9445 597.911 54.162Z" fill="#999999" stroke="#040000" stroke-width="0.7"/>
<path d="M593.258 54.1203C593.258 54.3378 593.064 54.5142 592.825 54.5142C592.585 54.5142 592.392 54.3378 592.392 54.1203C592.392 53.9028 592.585 53.7264 592.825 53.7264C593.064 53.7264 593.258 53.9028 593.258 54.1203Z" fill="#999999" stroke="#040000" stroke-width="0.7"/>
<path d="M565.146 37.4819C565.44 37.6357 565.742 38.1251 565.661 38.7491C565.581 39.373 565.118 40.1315 564.701 40.9298C564.284 41.7282 563.924 42.5429 563.458 42.9654C562.992 43.3878 562.419 43.418 562.125 43.2642C561.83 43.1105 561.605 42.663 561.685 42.0391C561.766 41.4151 562.153 40.6147 562.57 39.8163C562.987 39.018 563.383 38.2444 563.849 37.822C564.315 37.3996 564.852 37.3282 565.146 37.4819Z" fill="#999999" stroke="#040000" stroke-width="0.7"/>
<path d="M564.639 38.455C564.796 38.5372 564.851 38.7439 564.76 38.9167C564.67 39.0896 564.469 39.1631 564.312 39.081C564.155 38.9988 564.101 38.7921 564.191 38.6192C564.281 38.4464 564.482 38.3728 564.639 38.455Z" fill="#999999" stroke="#040000" stroke-width="0.7"/>
<path d="M562.851 41.8032C563.009 41.8854 563.063 42.0921 562.972 42.2649C562.882 42.4378 562.681 42.5113 562.524 42.4292C562.367 42.347 562.313 42.1403 562.403 41.9674C562.493 41.7946 562.694 41.721 562.851 41.8032Z" fill="#999999" stroke="#040000" stroke-width="0.7"/>
<path d="M579.878 160.559C593.106 160.853 592.418 160.67 592.418 160.67L592.836 229.105L579.86 229.185L579.878 160.559Z" fill="#666666" stroke="#040000" stroke-width="0.9"/>
<path d="M592.393 166.846L594.514 166.771L594.437 174.632L592.441 174.707L592.393 166.846Z" fill="#999999" stroke="#040000" stroke-width="0.9"/>
<path d="M592.33 166.722L594.514 166.709L599.164 162.064L592.301 161.856L592.33 166.722Z" fill="#999999" stroke="#040000" stroke-width="0.9"/>
<path d="M592.23 160.609L602.649 160.67L602.659 162.167L592.302 162.043L592.23 160.609Z" fill="#999999" stroke="#040000" stroke-width="0.9"/>
<path d="M592.23 160.484C592.23 160.484 592.212 154.365 592.735 151.248C592.877 150.398 592.898 149.318 593.593 148.809C594.282 148.306 595.411 148.308 596.151 148.731C596.684 149.037 596.822 149.772 597.034 150.348C598.23 153.593 599.156 160.629 599.156 160.629L592.23 160.484Z" fill="#999999" stroke="#040000" stroke-width="0.9"/>
<path d="M582.956 174.266L590.693 174.468L590.777 167.73L583.041 167.777L582.956 174.266Z" fill="#666666" stroke="#040000" stroke-width="0.9"/>
<path d="M584.678 170.2L584.686 171.51L589.116 171.608L589.046 170.298L584.678 170.2Z" fill="#666666" stroke="#040000" stroke-width="0.9"/>
<path d="M582.955 166.467L582.994 167.746L585.895 167.775L585.903 166.434L582.955 166.467Z" fill="#666666" stroke="#040000" stroke-width="0.9"/>
<path d="M588.001 167.747L588.024 166.374L590.737 166.373L590.761 167.73L588.001 167.747Z" fill="#666666" stroke="#040000" stroke-width="0.9"/>
<path d="M579.943 229.112L579.878 160.559L500.292 159.899L499.962 228.586L579.943 229.112Z" fill="#999999" stroke="#040000" stroke-width="0.9"/>
<path d="M561.302 193.738C561.258 193.327 562.107 192.797 562.107 192.797L595.36 192.843C595.36 192.843 596.099 193.282 596.113 193.65C596.129 194.078 595.308 194.653 595.308 194.653L562.368 194.542C562.368 194.542 561.35 194.18 561.302 193.738V193.738Z" fill="#999999" stroke="#040000" stroke-width="0.9"/>
<path d="M507.483 228.655L507.435 170.172L500.134 170.117L499.84 228.603L507.483 228.655Z" fill="#999999" stroke="#040000" stroke-width="0.9"/>
<path d="M507.457 170.183L507.454 166.168L500.131 166.004L500.122 170.106L507.457 170.183Z" fill="#999999" stroke="#040000" stroke-width="0.9"/>
<path d="M506.132 168.129C506.136 168.805 505.028 169.359 503.658 169.368C502.288 169.376 501.173 168.835 501.169 168.159C501.165 167.483 502.273 166.928 503.643 166.92C505.013 166.911 506.128 167.453 506.132 168.129Z" fill="#999999" stroke="#040000" stroke-width="0.9"/>
<path d="M502.371 168.063L502.797 165.568L504.672 165.59L505.205 168.057C505.205 168.057 505.004 168.282 504.876 168.357C504.686 168.467 504.466 168.524 504.249 168.559C504.038 168.593 503.822 168.574 503.609 168.563C503.361 168.55 503.098 168.577 502.87 168.479C502.67 168.394 502.371 168.063 502.371 168.063Z" fill="#999999" stroke="#040000" stroke-width="0.9"/>
<path d="M504.638 165.524C504.64 165.816 504.246 166.056 503.759 166.059C503.272 166.062 502.875 165.827 502.874 165.535C502.872 165.242 503.265 165.003 503.753 165C504.24 164.997 504.636 165.232 504.638 165.524Z" fill="#999999" stroke="#040000" stroke-width="0.9"/>
<path d="M508.913 193.773C508.883 193.343 509.446 192.791 509.446 192.791L531.526 192.917C531.526 192.917 532.019 193.377 532.029 193.762C532.04 194.21 531.496 194.809 531.496 194.809L509.623 194.616C509.623 194.616 508.946 194.235 508.913 193.773V193.773Z" fill="#999999" stroke="#040000" stroke-width="0.9"/>
<path d="M581.485 160.69L581.483 155.309L564.233 155.227L564.203 160.468L581.485 160.69Z" fill="#999999" stroke="#040000" stroke-width="0.9"/>
<path d="M564.194 160.418L564.314 144.051L499.952 144.003L500.182 159.971L564.194 160.418Z" fill="#999999" stroke="#040000" stroke-width="0.9"/>
<path d="M534.485 177.385L533.035 177.347C533.035 177.347 533.348 175.44 533.735 174.566C534.172 173.58 534.882 172.737 535.528 171.873C536.058 171.164 536.58 170.435 537.231 169.835C537.874 169.243 538.606 168.741 539.374 168.324C540.326 167.808 541.366 167.466 542.392 167.121C543.076 166.891 543.765 166.648 544.479 166.546C545.714 166.37 546.982 166.351 548.222 166.492C549.064 166.589 549.892 166.817 550.69 167.101C551.614 167.431 552.498 167.876 553.349 168.364C553.984 168.728 554.606 169.128 555.166 169.6C555.868 170.193 556.487 170.883 557.081 171.585C557.662 172.273 558.249 172.971 558.685 173.759C559.019 174.364 559.205 175.04 559.445 175.688C559.658 176.265 560.048 177.431 560.048 177.431L558.52 177.378" fill="#999999"/>
<path d="M534.485 177.385L533.035 177.347C533.035 177.347 533.348 175.44 533.735 174.566C534.172 173.58 534.882 172.737 535.528 171.873C536.058 171.164 536.58 170.435 537.231 169.835C537.874 169.243 538.606 168.741 539.374 168.324C540.326 167.808 541.366 167.466 542.392 167.121C543.076 166.891 543.765 166.648 544.479 166.546C545.714 166.37 546.982 166.351 548.222 166.492C549.064 166.589 549.892 166.817 550.69 167.101C551.614 167.431 552.498 167.876 553.349 168.364C553.984 168.728 554.606 169.128 555.166 169.6C555.868 170.193 556.487 170.883 557.081 171.585C557.662 172.273 558.249 172.971 558.685 173.759C559.019 174.364 559.205 175.04 559.445 175.688C559.658 176.265 560.048 177.431 560.048 177.431L558.52 177.378" stroke="#040000" stroke-width="0.9"/>
<path d="M534.052 185.513L534.198 209.437C534.198 209.437 534.6 211.515 534.996 212.489C535.333 213.317 535.807 214.089 536.321 214.821C536.774 215.467 537.309 216.056 537.86 216.621C538.518 217.295 539.17 217.999 539.961 218.511C540.689 218.98 541.517 219.285 542.339 219.557C543.16 219.828 544.016 219.99 544.869 220.134C545.22 220.193 545.575 220.233 545.93 220.252C546.709 220.293 547.498 220.35 548.269 220.238C549.286 220.09 550.28 219.774 551.227 219.378C552.18 218.978 553.1 218.476 553.932 217.864C554.667 217.323 555.322 216.671 555.917 215.98C556.374 215.449 556.778 214.868 557.123 214.257C557.459 213.661 557.709 213.019 557.954 212.38C558.201 211.736 558.452 211.086 558.597 210.411C558.713 209.869 558.774 208.757 558.774 208.757L558.751 179.498C558.751 179.498 558.568 177.683 558.298 176.818C558.031 175.966 557.601 175.169 557.16 174.392C556.697 173.577 556.217 172.755 555.586 172.062C554.767 171.161 553.798 170.385 552.765 169.74C551.841 169.163 550.842 168.677 549.793 168.386C548.703 168.083 547.552 168.053 546.422 168.001C545.747 167.969 545.062 167.936 544.395 168.044C543.612 168.171 542.853 168.438 542.122 168.744C541.242 169.113 540.385 169.555 539.603 170.101C538.878 170.607 538.223 171.215 537.618 171.86C537.066 172.449 536.569 173.093 536.132 173.772C535.617 174.574 535.139 175.413 534.806 176.307C534.59 176.888 534.48 177.506 534.381 178.118C534.242 178.974 534.2 179.843 534.147 180.709C534.098 181.509 534.084 182.31 534.068 183.111C534.052 183.912 534.052 185.513 534.052 185.513L534.052 185.513Z" fill="#999999" stroke="#040000" stroke-width="0.9"/>
<path d="M535.284 193.726C535.274 193.252 535.833 192.479 535.833 192.479L540.304 192.451C540.304 192.451 540.93 192.975 540.934 193.399C540.939 193.893 540.283 194.547 540.283 194.547L535.708 194.597C535.708 194.597 535.295 194.237 535.284 193.726L535.284 193.726Z" fill="#999999" stroke="#040000" stroke-width="0.9"/>
<path d="M499.851 228.614L461.561 228.76L461.664 187.733L500.044 187.896L499.851 228.614Z" fill="#999999" stroke="#040000" stroke-width="0.9"/>
<path d="M461.664 187.733L461.806 144.005L499.996 143.959L500.066 187.896L461.664 187.733Z" fill="#999999" stroke="#040000" stroke-width="0.9"/>
<path d="M558.758 180.435L560.804 180.411L560.882 184.59L558.736 184.577L558.758 180.435Z" fill="#999999" stroke="#040000" stroke-width="0.9"/>
<path d="M558.855 203.746L560.902 203.722L560.98 207.901L558.834 207.888L558.855 203.746Z" fill="#999999" stroke="#040000" stroke-width="0.9"/>
<path d="M468.608 219.717L483.033 219.629C483.033 219.629 484.217 219.484 484.707 219.178C485.14 218.908 485.498 218.487 485.714 218.025C485.947 217.525 485.969 216.391 485.969 216.391L486.234 194.729C486.234 194.729 486.121 193.625 485.871 193.144C485.626 192.672 485.278 192.201 484.805 191.959C484.225 191.663 482.863 191.75 482.863 191.75L468.261 191.751C468.261 191.751 467.451 191.996 467.117 192.243C466.681 192.566 466.312 193.002 466.066 193.485C465.901 193.809 465.808 194.545 465.808 194.545L465.597 217.795C465.597 217.795 465.948 218.518 466.221 218.805C466.555 219.158 466.959 219.476 467.417 219.636C467.793 219.768 468.608 219.717 468.608 219.717V219.717Z" fill="#999999" stroke="#040000" stroke-width="0.9"/>
<path d="M467.245 206.456C467.236 205.982 467.794 205.209 467.794 205.209L472.266 205.181C472.266 205.181 472.891 205.705 472.896 206.129C472.901 206.623 472.245 207.277 472.245 207.277L467.669 207.327C467.669 207.327 467.256 206.967 467.245 206.456L467.245 206.456Z" fill="#999999" stroke="#040000" stroke-width="0.9"/>
<path d="M461.542 228.753L452.963 228.618L453.119 187.723L461.665 187.671L461.542 228.753Z" fill="#999999" stroke="#040000" stroke-width="0.9"/>
<path d="M461.634 187.64L453.056 187.692L453.382 144.082L461.82 143.984L461.634 187.64Z" fill="#999999" stroke="#040000" stroke-width="0.9"/>
<path d="M485.936 212.901L487.983 212.878L488.061 217.056L485.915 217.043L485.936 212.901Z" fill="#999999" stroke="#040000" stroke-width="0.9"/>
<path d="M486.141 195.96L488.188 195.937L488.266 200.115L486.12 200.102L486.141 195.96Z" fill="#999999" stroke="#040000" stroke-width="0.9"/>
<path d="M453.067 189.439C453.067 189.439 451.944 189.535 451.413 189.387C450.929 189.251 450.443 189.013 450.099 188.646C449.634 188.151 449.214 186.811 449.214 186.811L449.398 145.448C449.398 145.448 449.778 144.769 450.079 144.539C450.469 144.242 451.448 144.001 451.448 144.001L526.187 144.012L526.196 145.54L452.33 145.461C452.33 145.461 451.728 145.493 451.489 145.653C451.266 145.803 451.025 146.311 451.025 146.311L450.58 185.805C450.58 185.805 450.681 186.608 450.868 186.957C451 187.204 451.182 187.456 451.433 187.577C451.931 187.818 453.087 187.692 453.087 187.692L453.067 189.439Z" fill="#999999" stroke="#040000" stroke-width="0.9"/>
<path d="M565.464 166.416L565.51 167.685L567.977 167.717L567.972 166.369L565.464 166.416Z" fill="#999999" stroke="#040000" stroke-width="0.9"/>
<path d="M572.494 167.627L572.462 166.342L575.026 166.311L575.038 167.658L572.494 167.627Z" fill="#999999" stroke="#040000" stroke-width="0.9"/>
<path d="M565.674 174.328L575.054 174.347L575.057 167.658L565.568 167.716L565.674 174.328Z" fill="#999999" stroke="#040000" stroke-width="0.9"/>
<path d="M568.09 170.026L568.098 171.427L573.027 171.523L573.027 170.122L568.09 170.026Z" fill="#999999" stroke="#040000" stroke-width="0.9"/>
<path d="M538.978 195.001L541.061 194.938L541.187 228.905H538.915L538.978 195.001Z" fill="#CCCCCC" stroke="#040000"/>
<path d="M406.648 194.623L408.731 194.559L408.858 228.526H406.585L406.648 194.623Z" fill="#CCCCCC" stroke="#040000"/>
<path d="M340.02 194.496L342.103 194.433L342.229 228.4H339.957L340.02 194.496Z" fill="#CCCCCC" stroke="#040000"/>
<path d="M675.684 197.073L608.452 196.983" stroke="#040000" stroke-width="0.7"/>
<path d="M606.13 196.894L541.041 196.805" stroke="#040000" stroke-width="0.7"/>
<path d="M538.898 196.805L474.88 196.537" stroke="#040000" stroke-width="0.7"/>
<path d="M472.738 196.537H408.898" stroke="#040000" stroke-width="0.7"/>
<path d="M406.648 196.39L342.188 195.948" stroke="#040000" stroke-width="0.7"/>
<path d="M339.978 196.075L275.454 195.759" stroke="#040000" stroke-width="0.7"/>
<path d="M273.308 195.948L208.721 195.696" stroke="#040000" stroke-width="0.7"/>
<path d="M739.901 227.17V228.878H747.209V227.226L739.901 227.17Z" fill="#999999" stroke="#040000" stroke-width="0.9"/>
<path d="M741.189 227.198C741.189 227.198 741.111 224.902 741.077 223.754C741.046 222.718 740.941 221.681 740.993 220.646C741.034 219.848 741.06 219.029 741.301 218.267C741.537 217.522 741.95 216.837 742.393 216.195C742.874 215.498 743.424 214.834 744.073 214.291C744.734 213.737 745.489 213.281 746.285 212.947C746.809 212.727 747.937 212.527 747.937 212.527L747.153 223.586C747.153 223.586 746.534 223.726 746.341 223.95C746.094 224.236 746.075 224.666 746.033 225.042C745.953 225.757 746.145 227.198 746.145 227.198H741.189Z" fill="#999999" stroke="#040000" stroke-width="0.9"/>
<path d="M748.3 211.183L749.84 211.211L748.58 223.922H747.041L748.3 211.183Z" fill="#999999" stroke="#040000" stroke-width="0.9"/>
<path d="M737.031 226V228.905L747.209 228.878L749.531 225.874L737.031 226Z" fill="#999999" stroke="#040000"/>
<path d="M324.821 226.555V228.599H333.567V226.622L324.821 226.555Z" fill="#999999" stroke="#040000" stroke-width="1.07719"/>
<path d="M326.362 226.589C326.362 226.589 326.269 223.841 326.228 222.467C326.192 221.227 326.065 219.986 326.128 218.747C326.177 217.791 326.207 216.812 326.496 215.899C326.779 215.009 327.273 214.189 327.803 213.42C328.379 212.586 329.037 211.791 329.814 211.141C330.606 210.478 331.509 209.932 332.461 209.532C333.088 209.269 334.438 209.03 334.438 209.03L333.5 222.266C333.5 222.266 332.76 222.433 332.528 222.702C332.232 223.044 332.21 223.559 332.16 224.008C332.064 224.864 332.294 226.589 332.294 226.589H326.362Z" fill="#999999" stroke="#040000" stroke-width="1.07719"/>
<path d="M334.874 207.421L336.717 207.455L335.209 222.668H333.366L334.874 207.421Z" fill="#999999" stroke="#040000" stroke-width="1.07719"/>
<path d="M240.063 226.679V228.625H248.388V226.743L240.063 226.679Z" fill="#B3B3B3" stroke="#040000" stroke-width="1.02533"/>
<path d="M241.53 226.711C241.53 226.711 241.442 224.096 241.403 222.788C241.368 221.608 241.247 220.427 241.307 219.248C241.353 218.338 241.383 217.405 241.658 216.537C241.926 215.689 242.397 214.908 242.902 214.176C243.449 213.383 244.076 212.626 244.816 212.007C245.569 211.377 246.429 210.857 247.335 210.476C247.932 210.226 249.217 209.998 249.217 209.998L248.324 222.597C248.324 222.597 247.62 222.756 247.399 223.011C247.118 223.338 247.096 223.827 247.048 224.255C246.957 225.07 247.176 226.711 247.176 226.711H241.53Z" fill="#B3B3B3" stroke="#040000" stroke-width="1.02533"/>
<path d="M249.632 208.467L251.386 208.499L249.951 222.98H248.196L249.632 208.467Z" fill="#B3B3B3" stroke="#040000" stroke-width="1.02533"/>
<path d="M218.304 227.337V229.045H225.611V227.393L218.304 227.337Z" fill="#999999" stroke="#040000" stroke-width="0.9"/>
<path d="M219.592 227.365C219.592 227.365 219.514 225.069 219.48 223.921C219.449 222.886 219.343 221.849 219.396 220.814C219.436 220.015 219.462 219.196 219.704 218.434C219.94 217.69 220.352 217.005 220.796 216.362C221.276 215.666 221.827 215.002 222.475 214.458C223.137 213.905 223.892 213.448 224.687 213.115C225.211 212.895 226.339 212.695 226.339 212.695L225.555 223.753C225.555 223.753 224.937 223.893 224.743 224.117C224.496 224.404 224.477 224.833 224.435 225.209C224.355 225.924 224.547 227.365 224.547 227.365H219.592Z" fill="#999999" stroke="#040000" stroke-width="0.9"/>
<path d="M226.703 211.351L228.243 211.379L226.983 224.089H225.443L226.703 211.351Z" fill="#999999" stroke="#040000" stroke-width="0.9"/>
<path d="M613.952 229.061L633.56 229.083V224.961H613.909L613.952 229.061Z" fill="#999999" stroke="#040000" stroke-width="0.7"/>
<path d="M612.829 224.961H634.913L634.891 223.032L612.85 223.032L612.829 224.961Z" fill="#999999" stroke="#040000" stroke-width="0.7"/>
<path d="M633.56 229.041L636.325 229.062V221.643H631.347V222.951L634.956 223.015L634.892 224.923H633.56V229.041Z" fill="#999999" stroke="#040000" stroke-width="0.7"/>
<path d="M616.156 223.075V220.539H621.952V222.197H617.529V223.054L616.156 223.075Z" fill="#999999" stroke="#040000" stroke-width="0.7"/>
<path d="M464.713 228.931L484.321 228.953V224.832H464.67L464.713 228.931Z" fill="#999999" stroke="#040000" stroke-width="0.7"/>
<path d="M463.59 224.832H485.674L485.652 222.903L463.611 222.903L463.59 224.832Z" fill="#999999" stroke="#040000" stroke-width="0.7"/>
<path d="M484.321 228.912L487.086 228.933V221.514H482.109V222.822L485.718 222.886L485.653 224.793H484.321V228.912Z" fill="#999999" stroke="#040000" stroke-width="0.7"/>
<path d="M466.917 222.946V220.409H472.713V222.068H468.291V222.924L466.917 222.946Z" fill="#999999" stroke="#040000" stroke-width="0.7"/>
<path d="M472.813 194.623L474.896 194.559L475.022 228.526H472.75L472.813 194.623Z" fill="#CCCCCC" stroke="#040000"/>
<path d="M345.959 228.475L365.566 228.497V224.375H345.915L345.959 228.475Z" fill="#999999" stroke="#040000" stroke-width="0.7"/>
<path d="M344.835 224.375H366.919L366.897 222.446L344.857 222.446L344.835 224.375Z" fill="#999999" stroke="#040000" stroke-width="0.7"/>
<path d="M365.566 228.455L368.332 228.477V221.057H363.354V222.365L366.963 222.429L366.898 224.337H365.566V228.455Z" fill="#999999" stroke="#040000" stroke-width="0.7"/>
<path d="M348.163 222.49V219.953H353.958V221.612H349.536V222.468L348.163 222.49Z" fill="#999999" stroke="#040000" stroke-width="0.7"/>
<path d="M364.742 228.044V225.985H383.765V228.044H364.742Z" fill="#CCCCCC" stroke="#040000" stroke-width="0.9657"/>
<path d="M365.668 225.951L364.772 221.219H369.252L370.148 225.951H365.668Z" fill="#CCCCCC" stroke="#040000" stroke-width="1.02952"/>
<path d="M371.026 221.217V219.159H362.873V221.217H371.026Z" fill="#CCCCCC" stroke="#040000" stroke-width="0.9657"/>
<path d="M385.625 221.366V219.307H377.472V221.366H385.625Z" fill="#CCCCCC" stroke="#040000" stroke-width="0.9657"/>
<path d="M378.215 225.839C378.723 224.386 379.049 223.532 379.739 221.481H384.202L382.679 225.839H378.215Z" fill="#CCCCCC" stroke="#040000" stroke-width="1.06026"/>
<path d="M262.269 226.441L281.877 226.462V222.341H262.226L262.269 226.441Z" fill="#999999" stroke="#040000" stroke-width="0.7"/>
<path d="M261.146 222.341H283.229L283.208 220.412L261.167 220.412L261.146 222.341Z" fill="#999999" stroke="#040000" stroke-width="0.7"/>
<path d="M281.877 226.421L284.642 226.442V219.023H279.664V220.331L283.273 220.395L283.208 222.302H281.877V226.421Z" fill="#999999" stroke="#040000" stroke-width="0.7"/>
<path d="M264.473 220.455V217.919H270.269V219.577H265.846V220.433L264.473 220.455Z" fill="#999999" stroke="#040000" stroke-width="0.7"/>
<path d="M151.176 221.942L151.104 203.924H155.188L155.117 221.87L151.176 221.942Z" fill="#999999" stroke="#040000"/>
<path d="M153.779 169.138L153.677 185.197L169.23 185.096L169.078 169.087L153.779 169.138Z" fill="#666666" stroke="#040000"/>
<path fill-rule="evenodd" clip-rule="evenodd" d="M165.203 175.04C164.867 175.05 164.519 175.138 164.211 175.263C163.885 175.395 163.36 175.871 163.36 175.871L153.013 185.955L145.784 197.456L145.521 200.797L146.128 202.417L146.189 204.503L142.929 220.5L141.511 221.775V223.132L165.081 223.335L165.02 222.12L163.704 220.965L162.955 217.827L161.335 208.391L160.728 203.126L161.234 201.405L161.376 192.09L167.714 179.273C167.714 179.273 167.938 177.765 167.754 177.045C167.629 176.554 167.381 176.069 167.005 175.729C166.607 175.369 166.059 175.133 165.527 175.061C165.417 175.046 165.315 175.037 165.203 175.04V175.04ZM165.061 176.62C165.961 176.62 166.701 177.335 166.701 178.22C166.701 179.104 165.961 179.819 165.061 179.819C164.161 179.819 163.441 179.104 163.441 178.22C163.441 177.335 164.161 176.62 165.061 176.62ZM153.175 204.908C153.444 204.894 153.732 204.924 153.985 205.009C154.338 205.127 154.637 205.37 154.916 205.617C155.172 205.843 155.584 206.406 155.584 206.406C156.007 210.545 156.554 215.045 156.455 218.92C156.045 219.468 155.544 220.325 155.017 220.763C154.759 220.978 154.452 221.166 154.126 221.249C153.513 221.405 152.852 221.423 152.243 221.249C151.89 221.148 151.569 220.904 151.292 220.662C150.623 220.078 149.876 219.457 149.591 218.617C149.298 217.752 149.692 215.863 149.692 215.863L151.352 206.244C151.352 206.244 151.599 205.629 151.838 205.414C152.134 205.149 152.52 204.996 152.912 204.928C152.999 204.913 153.085 204.912 153.175 204.908V204.908Z" fill="#999999" stroke="#040000"/>
<path d="M141.164 225.219L165.836 225.016V228.258L140.962 228.157L141.164 225.219Z" fill="#999999" stroke="#040000"/>
<path d="M141.215 223.091V225.371L165.329 225.32L165.228 223.243L141.215 223.091Z" fill="#999999" stroke="#040000"/>
<path d="M145.774 198.926L135.49 198.673L135.997 195.887L146.382 196.089L145.774 198.926Z" fill="#999999" stroke="#040000"/>
<path d="M154.404 191.859C154.404 195.061 151.762 197.657 148.504 197.657C145.245 197.657 142.604 195.061 142.604 191.859C142.604 188.657 145.245 186.061 148.504 186.061C151.762 186.061 154.404 188.657 154.404 191.859Z" fill="#F2F2F2" stroke="#040000"/>
<path d="M152.835 191.886C152.835 194.319 150.828 196.292 148.352 196.292C145.876 196.292 143.868 194.319 143.868 191.886C143.868 189.453 145.876 187.48 148.352 187.48C150.828 187.48 152.835 189.453 152.835 191.886Z" fill="#F9F9F9" stroke="#040000"/>
<path d="M147.479 187.652H149.181L149.252 196.07L147.443 196.07L147.479 187.652Z" fill="#999999" stroke="#040000"/>
<path d="M144.181 192.79L144.185 191.089L152.604 191.04L152.599 192.849L144.181 192.79Z" fill="#999999" stroke="#040000"/>
<path d="M150.034 191.803C150.034 192.687 149.305 193.404 148.405 193.404C147.506 193.404 146.776 192.687 146.776 191.803C146.776 190.919 147.506 190.203 148.405 190.203C149.305 190.203 150.034 190.919 150.034 191.803Z" fill="#999999" stroke="#040000"/>
<path d="M147.574 197.223C145.46 196.842 143.737 195.291 143.157 193.247C142.948 192.51 142.932 191.263 143.124 190.565C143.66 188.609 145.137 187.136 147.098 186.605C147.862 186.398 149.148 186.398 149.912 186.605C152.042 187.182 153.583 188.857 153.956 191C154.156 192.147 154.002 193.12 153.438 194.268C152.753 195.663 151.453 196.691 149.795 197.15C149.407 197.257 148.016 197.303 147.574 197.223H147.574ZM149.311 196.465C151.335 196.047 152.8 194.496 153.067 192.486C153.347 190.382 152.122 188.318 150.14 187.555C149.91 187.466 149.646 187.357 149.551 187.312C149.337 187.209 147.234 187.206 147.096 187.308C147.044 187.347 146.807 187.454 146.571 187.547C144.017 188.549 142.878 191.499 144.092 193.963C145.027 195.86 147.199 196.901 149.311 196.465V196.465Z" fill="#999999"/>
<path d="M161.314 194.825L164.968 194.789L164.932 197.798L161.385 197.834L161.314 194.825Z" fill="#999999" stroke="#040000"/>
<path d="M164.86 192.532L164.824 201.201C164.824 201.201 165.398 202.133 165.863 202.133C166.362 202.132 166.974 201.13 166.974 201.13L167.009 192.317C167.009 192.317 166.57 191.069 166.042 191.063C165.414 191.057 164.86 192.532 164.86 192.532V192.532Z" fill="#999999" stroke="#040000"/>
<path d="M166.974 199.732L170.198 199.697V201.38L167.009 201.344L166.974 199.732Z" fill="#999999" stroke="#040000"/>
<path d="M153.728 174.711L89.7444 175.876V178.915L153.829 179.777L153.728 174.711Z" fill="#666666" stroke="#040000"/>
<path d="M134.426 205.005H132.552L142.431 152.623H144.508L134.426 205.005Z" fill="#999999" stroke="#040000"/>
<path d="M146.028 176.129V178.257L158.287 178.156V176.23L146.028 176.129Z" fill="#666666" stroke="#040000"/>
<path d="M153.779 170.405H147.497L147.446 174.204L153.829 174.153L153.779 170.405Z" fill="#666666" stroke="#040000"/>
<path d="M153.677 180.689L143.596 180.638L143.647 184.285L153.728 184.235L153.677 180.689Z" fill="#666666" stroke="#040000"/>
<path d="M169.129 170.557H178.653V174.305L169.027 174.154L169.129 170.557Z" fill="#666666" stroke="#040000"/>
<path d="M169.129 174.204L178.653 174.305L178.703 179.523L169.129 179.574V174.204Z" fill="#666666" stroke="#040000"/>
<path d="M169.23 180.689L178.551 180.79V184.387L169.179 184.285L169.23 180.689Z" fill="#666666" stroke="#040000"/>
<path d="M178.45 169.341L178.349 185.603L182.503 185.501L182.351 169.391L178.45 169.341Z" fill="#666666" stroke="#040000"/>
<path d="M182.351 175.167H186.961L187.113 185.299L182.351 185.451V175.167Z" fill="#666666" stroke="#040000"/>
<path d="M195.146 223.031L195.309 228.874L215.678 228.955L215.597 222.95L195.146 223.031Z" fill="#999999" stroke="#040000"/>
<path d="M193.388 223.131L217.202 223.016L217.316 201.383L193.502 201.325L193.388 223.131Z" fill="#999999" stroke="#040000"/>
<path d="M192.412 201.383L192.47 198.973L218.636 199.03L218.579 201.555L192.412 201.383Z" fill="#999999" stroke="#040000"/>
<path d="M218.304 229.045L237.911 229.067V224.945H218.26L218.304 229.045Z" fill="#999999" stroke="#040000" stroke-width="0.7"/>
<path d="M217.18 224.945H239.264L239.242 223.016L217.202 223.016L217.18 224.945Z" fill="#999999" stroke="#040000" stroke-width="0.7"/>
<path d="M237.911 229.025L240.677 229.046V221.627H235.699V222.935L239.308 222.999L239.243 224.907H237.911V229.025Z" fill="#999999" stroke="#040000" stroke-width="0.7"/>
<path d="M220.508 223.059V220.523H226.303V222.181H221.881V223.038L220.508 223.059Z" fill="#999999" stroke="#040000" stroke-width="0.7"/>
<path d="M254.294 228.674L254.238 226.38L334.977 226.537V228.579L254.294 228.674Z" fill="#999999" stroke="#040000"/>
<path d="M339.956 198.916L320.68 228.305L322.934 228.283L340.02 201.378L339.956 198.916Z" fill="#CCCCCC" stroke="#040000"/>
<path d="M273.308 194.496L275.391 194.433L275.517 228.4H273.245L273.308 194.496Z" fill="#CCCCCC" stroke="#040000"/>
<path d="M48.1111 228.384L67.7188 228.406V224.285H48.0679L48.1111 228.384Z" fill="#999999" stroke="#040000" stroke-width="0.7"/>
<path d="M46.9875 224.285H69.0715L69.0499 222.356L47.0091 222.356L46.9875 224.285Z" fill="#999999" stroke="#040000" stroke-width="0.7"/>
<path d="M67.7187 228.364L70.4842 228.386V220.967H65.5063V222.275L69.1154 222.339L69.0505 224.246H67.7187V228.364Z" fill="#999999" stroke="#040000" stroke-width="0.7"/>
<path d="M50.3152 222.399V219.862H56.1106V221.521H51.6884V222.377L50.3152 222.399Z" fill="#999999" stroke="#040000" stroke-width="0.7"/>
<path d="M76.8286 226.726V228.433H84.1359V226.782L76.8286 226.726Z" fill="#999999" stroke="#040000" stroke-width="0.9"/>
<path d="M78.1164 226.754C78.1164 226.754 78.0386 224.458 78.0044 223.31C77.9736 222.274 77.8678 221.237 77.9205 220.202C77.9611 219.403 77.9868 218.585 78.2284 217.823C78.4642 217.078 78.877 216.393 79.3203 215.751C79.801 215.054 80.3512 214.39 81.0002 213.847C81.6617 213.293 82.4165 212.837 83.2119 212.503C83.7358 212.283 84.8638 212.083 84.8638 212.083L84.0798 223.142C84.0798 223.142 83.4617 223.281 83.2679 223.506C83.0208 223.792 83.002 224.222 82.9599 224.598C82.8799 225.313 83.0719 226.754 83.0719 226.754H78.1164Z" fill="#999999" stroke="#040000" stroke-width="0.9"/>
<path d="M85.2277 210.739L86.7675 210.767L85.5076 223.478H83.9678L85.2277 210.739Z" fill="#999999" stroke="#040000" stroke-width="0.9"/>
<path d="M564.76 38.9168L593.47 22.0511" stroke="#040000" stroke-width="0.5"/>
<path d="M562.524 42.4291L592.597 146.324Z" fill="#808000"/>
<path d="M562.524 42.4291L592.597 146.324" stroke="#040000" stroke-width="0.5"/>
<path d="M594.101 57.723L564.203 160.468" stroke="#040000" stroke-width="0.5"/>
<path d="M596.706 57.8362L623.551 228.872" stroke="#040000" stroke-width="0.5"/>
<path d="M577.885 146.573H583.404L585.244 160.677H575.433L577.885 146.573Z" fill="#999999" stroke="#040000"/>
<path d="M575.433 130.63V141.668H584.631V130.63H575.433Z" fill="#999999" stroke="#040000"/>
<path d="M579.725 146.573V136.149H582.178V146.573H579.725Z" fill="#999999" stroke="#040000"/>
<path d="M584.631 131.856H587.084V140.441H584.631V131.856Z" fill="#999999" stroke="#040000"/>
<path d="M575.433 131.243C575.433 131.243 574.544 131.651 574.206 132.12C573.939 132.491 573.43 133.01 573.281 133.442C572.943 134.428 572.915 135.109 572.98 136.149C573.02 136.794 573.082 137.391 573.329 137.989C573.504 138.411 573.883 139.203 574.206 139.527C574.529 139.85 575.433 140.441 575.433 140.441V131.243Z" fill="#999999" stroke="#040000"/>
<path d="M576.927 127.564H582.791V131.856H576.975L576.927 127.564Z" fill="#999999" stroke="#040000"/>
<path d="M582.575 135.72C582.575 136.486 581.889 137.107 581.042 137.107C580.196 137.107 579.509 136.486 579.509 135.72C579.509 134.954 580.196 134.333 581.042 134.333C581.889 134.333 582.575 134.954 582.575 135.72Z" fill="#999999" stroke="#040000"/>
<path d="M498.612 172.8C498.612 176.407 497.179 179.867 494.628 182.417C492.078 184.968 488.618 186.401 485.011 186.401C481.404 186.401 477.945 184.968 475.395 182.417C472.844 179.867 471.411 176.407 471.411 172.8C471.411 169.193 472.844 165.734 475.395 163.183C477.945 160.633 481.404 159.2 485.011 159.2C488.618 159.2 492.078 160.633 494.628 163.183C497.179 165.734 498.612 169.193 498.612 172.8Z" fill="white" stroke="#040000"/>
<path d="M484.133 186.511C480.788 186.511 477.58 185.167 475.215 182.776C472.849 180.384 471.52 177.14 471.52 173.757H484.133V186.511Z" fill="#FF0000" stroke="#040000" stroke-width="1.07124"/>
<path d="M498.327 172.358C498.327 168.905 496.912 165.593 494.392 163.152C491.872 160.71 488.454 159.338 484.89 159.338V172.358H498.327Z" fill="#FF0000" stroke="#040000" stroke-width="1.07204"/>
<path d="M492.623 173.081C492.623 175.131 491.809 177.097 490.359 178.547C488.91 179.996 486.944 180.811 484.894 180.811C482.844 180.811 480.878 179.996 479.428 178.547C477.979 177.097 477.164 175.131 477.164 173.081C477.164 171.031 477.979 169.065 479.428 167.616C480.878 166.166 482.844 165.352 484.894 165.352C486.944 165.352 488.91 166.166 490.359 167.616C491.809 169.065 492.623 171.031 492.623 173.081Z" fill="#999999" stroke="#040000"/>
<path d="M475.125 132.373C475.125 134.979 473.011 137.093 470.405 137.093C467.798 137.093 465.685 134.979 465.685 132.373C465.685 129.766 467.798 127.653 470.405 127.653C473.011 127.653 475.125 129.766 475.125 132.373Z" fill="#999999" stroke="#040000"/>
<path d="M464.013 131.888L465.554 132.915L469.662 128.292L468.122 127.265L464.013 131.888Z" fill="#999999" stroke="#040000"/>
<path d="M469.528 126.734H471.735V133.96H469.528V126.734Z" fill="#999999" stroke="#040000"/>
<path d="M466.067 135.997V137.537H474.799V135.997H466.067Z" fill="#999999" stroke="#040000"/>
<path d="M464.526 137.537H475.826V140.106H464.526V137.537Z" fill="#999999" stroke="#040000"/>
<path d="M466.067 140.106V143.701H474.799V140.106H466.067Z" fill="#999999" stroke="#040000"/>
<path d="M735.579 223.791V225.937L749.531 225.874L751.362 223.664L735.579 223.791Z" fill="#999999" stroke="#040000"/>
<path d="M139.967 194.244L142.051 194.181L142.177 228.147H139.904L139.967 194.244Z" fill="#CCCCCC" stroke="#040000"/>
<path d="M206.385 195.885L142.051 196.012" stroke="#040000" stroke-width="0.7"/>
<path d="M206.511 194.37L208.595 194.307L208.721 228.273H206.448L206.511 194.37Z" fill="#CCCCCC" stroke="#040000"/>
<path fill-rule="evenodd" clip-rule="evenodd" d="M20.9426 216C20.9426 220.516 17.1511 224.178 12.474 224.178C7.7969 224.178 4.00537 220.516 4.00537 216C4.00537 211.484 7.7969 207.822 12.474 207.822C17.1511 207.822 20.9426 211.484 20.9426 216Z" fill="black" stroke="#040000"/>
<path fill-rule="evenodd" clip-rule="evenodd" d="M19.0584 215.967C19.0584 219.479 16.1098 222.327 12.4725 222.327C8.83529 222.327 5.88672 219.479 5.88672 215.967C5.88672 212.455 8.83529 209.608 12.4725 209.608C16.1098 209.608 19.0584 212.455 19.0584 215.967Z" fill="#666666" stroke="#040000"/>
<path fill-rule="evenodd" clip-rule="evenodd" d="M15.9834 215.845C15.9834 217.864 14.3667 219.501 12.3723 219.501C10.378 219.501 8.76123 217.864 8.76123 215.845C8.76123 213.826 10.378 212.189 12.3723 212.189C14.3667 212.189 15.9834 213.826 15.9834 215.845Z" fill="black" stroke="#040000"/>
<path fill-rule="evenodd" clip-rule="evenodd" d="M38.0366 212.642C38.0366 217.159 34.2451 220.82 29.568 220.82C24.8909 220.82 21.0994 217.159 21.0994 212.642C21.0994 208.126 24.8909 204.465 29.568 204.465C34.2451 204.465 38.0366 208.126 38.0366 212.642Z" fill="black" stroke="#040000"/>
<path fill-rule="evenodd" clip-rule="evenodd" d="M36.1526 212.61C36.1526 216.122 33.204 218.969 29.5668 218.969C25.9295 218.969 22.981 216.122 22.981 212.61C22.981 209.097 25.9295 206.25 29.5668 206.25C33.204 206.25 36.1526 209.097 36.1526 212.61Z" fill="#666666" stroke="#040000"/>
<path fill-rule="evenodd" clip-rule="evenodd" d="M33.0774 212.487C33.0774 214.506 31.4607 216.143 29.4663 216.143C27.472 216.143 25.8552 214.506 25.8552 212.487C25.8552 210.468 27.472 208.831 29.4663 208.831C31.4607 208.831 33.0774 210.468 33.0774 212.487Z" fill="black" stroke="#040000"/>
<path fill-rule="evenodd" clip-rule="evenodd" d="M54.7927 209.686C54.7927 214.202 51.0012 217.863 46.3241 217.863C41.647 217.863 37.8555 214.202 37.8555 209.686C37.8555 205.169 41.647 201.508 46.3241 201.508C51.0012 201.508 54.7927 205.169 54.7927 209.686Z" fill="black" stroke="#040000"/>
<path fill-rule="evenodd" clip-rule="evenodd" d="M52.9085 209.653C52.9085 213.165 49.9599 216.012 46.3226 216.012C42.6854 216.012 39.7368 213.165 39.7368 209.653C39.7368 206.14 42.6854 203.293 46.3226 203.293C49.9599 203.293 52.9085 206.14 52.9085 209.653Z" fill="#666666" stroke="#040000"/>
<path fill-rule="evenodd" clip-rule="evenodd" d="M49.8335 209.53C49.8335 211.55 48.2168 213.187 46.2224 213.187C44.2281 213.187 42.6113 211.55 42.6113 209.53C42.6113 207.511 44.2281 205.874 46.2224 205.874C48.2168 205.874 49.8335 207.511 49.8335 209.53Z" fill="black" stroke="#040000"/>
<path fill-rule="evenodd" clip-rule="evenodd" d="M71.8867 206.521C71.8867 211.037 68.0952 214.699 63.4181 214.699C58.741 214.699 54.9495 211.037 54.9495 206.521C54.9495 202.005 58.741 198.344 63.4181 198.344C68.0952 198.344 71.8867 202.005 71.8867 206.521Z" fill="black" stroke="#040000"/>
<path fill-rule="evenodd" clip-rule="evenodd" d="M70.0027 206.488C70.0027 210.001 67.0541 212.848 63.4169 212.848C59.7796 212.848 56.8311 210.001 56.8311 206.488C56.8311 202.976 59.7796 200.129 63.4169 200.129C67.0541 200.129 70.0027 202.976 70.0027 206.488Z" fill="#666666" stroke="#040000"/>
<path fill-rule="evenodd" clip-rule="evenodd" d="M66.9275 206.366C66.9275 208.385 65.3108 210.022 63.3164 210.022C61.3221 210.022 59.7053 208.385 59.7053 206.366C59.7053 204.347 61.3221 202.71 63.3164 202.71C65.3108 202.71 66.9275 204.347 66.9275 206.366Z" fill="black" stroke="#040000"/>
<path fill-rule="evenodd" clip-rule="evenodd" d="M87.0493 203.505C87.0493 208.021 83.2578 211.682 78.5807 211.682C73.9036 211.682 70.1121 208.021 70.1121 203.505C70.1121 198.988 73.9036 195.327 78.5807 195.327C83.2578 195.327 87.0493 198.988 87.0493 203.505Z" fill="black" stroke="#040000"/>
<path fill-rule="evenodd" clip-rule="evenodd" d="M85.1653 203.472C85.1653 206.984 82.2167 209.831 78.5795 209.831C74.9422 209.831 71.9937 206.984 71.9937 203.472C71.9937 199.96 74.9422 197.112 78.5795 197.112C82.2167 197.112 85.1653 199.96 85.1653 203.472Z" fill="#666666" stroke="#040000"/>
<path fill-rule="evenodd" clip-rule="evenodd" d="M82.0901 203.349C82.0901 205.369 80.4734 207.006 78.479 207.006C76.4847 207.006 74.8679 205.369 74.8679 203.349C74.8679 201.33 76.4847 199.693 78.479 199.693C80.4734 199.693 82.0901 201.33 82.0901 203.349Z" fill="black" stroke="#040000"/>
<path fill-rule="evenodd" clip-rule="evenodd" d="M102.598 200.533C102.598 205.05 98.8066 208.711 94.1295 208.711C89.4524 208.711 85.6609 205.05 85.6609 200.533C85.6609 196.017 89.4524 192.356 94.1295 192.356C98.8066 192.356 102.598 196.017 102.598 200.533Z" fill="black" stroke="#040000"/>
<path fill-rule="evenodd" clip-rule="evenodd" d="M100.714 200.501C100.714 204.013 97.7656 206.86 94.1283 206.86C90.4911 206.86 87.5425 204.013 87.5425 200.501C87.5425 196.988 90.4911 194.141 94.1283 194.141C97.7656 194.141 100.714 196.988 100.714 200.501Z" fill="#808080" stroke="#040000"/>
<path fill-rule="evenodd" clip-rule="evenodd" d="M97.6389 200.378C97.6389 202.397 96.0222 204.034 94.0278 204.034C92.0335 204.034 90.4167 202.397 90.4167 200.378C90.4167 198.359 92.0335 196.722 94.0278 196.722C96.0222 196.722 97.6389 198.359 97.6389 200.378Z" fill="black" stroke="#040000"/>
<path d="M85.2928 190.913L3.29918 205.979C3.29918 205.979 2.62519 206.272 2.38169 206.534C2.0924 206.845 1.80225 207.669 1.80225 207.669L4.77198 225.415L4.6754 228.457L31.8792 228.276L31.9475 220.491L7.56793 225.408L4.69975 209.155L84.9406 194.678L85.2928 190.913Z" fill="#999999" stroke="#040000"/>
<path d="M94.2963 192.971L5.45093 209.019Z" fill="#999999"/>
<path d="M94.2963 192.971L5.45093 209.019" stroke="#040000"/>
<path d="M8.07959 225.342L96.7853 209.069Z" fill="#999999"/>
<path d="M8.07959 225.342L96.7853 209.069" stroke="#040000"/>
<path d="M57.0442 218.872L57.0925 228.288L73.6554 228.24V220.658L66.2673 225.391L62.1145 224.57L57.0442 218.872Z" fill="#999999" stroke="#040000"/>
<path d="M3.67545 206.287C3.37384 206.035 2.51451 206.492 2.51451 206.492C2.51451 206.492 1.63798 207.687 2.03651 208.063C9.04406 214.657 19.4505 224.93 19.4505 224.93C19.4505 224.93 21.5453 226.431 22.7284 226.911C23.2913 227.139 23.8968 227.302 24.5039 227.32C25.4727 227.35 26.492 227.248 27.3721 226.842C28.5604 226.294 29.5614 225.339 30.3769 224.316C30.9986 223.535 31.7427 221.652 31.7427 221.652L32.2207 206.082C32.2207 206.082 32.5641 204.471 33.0402 203.829C33.5825 203.097 35.2255 202.19 35.2255 202.19L52.0248 198.843C52.0248 198.843 53.8443 198.785 54.6198 199.185C55.4215 199.598 56.0637 200.357 56.4637 201.165C56.8835 202.014 56.9417 203.965 56.9417 203.965L57.0783 219.467C57.0783 219.467 57.4745 220.384 57.6929 220.833C58.165 221.803 58.511 222.866 59.1953 223.701C60.0675 224.765 61.1857 225.658 62.4049 226.296C62.9092 226.56 63.479 226.705 64.0439 226.774C65.197 226.916 66.397 226.909 67.5267 226.637C68.4774 226.409 69.4087 225.996 70.19 225.408C71.0798 224.739 71.7272 223.787 72.3753 222.882C73.1887 221.745 74.4922 219.262 74.4922 219.262L86.7162 193.722C86.7162 193.722 86.9699 192.753 86.8527 192.288C86.7326 191.81 86.4675 191.291 86.0333 191.058C85.6921 190.876 85.2099 190.869 84.8723 191.058C84.4535 191.293 84.1211 192.288 84.1211 192.288L70.3266 221.447C70.3266 221.447 69.2266 222.879 68.4827 223.36C67.9141 223.727 67.2352 223.915 66.5706 224.042C65.9666 224.159 65.3316 224.222 64.7268 224.111C63.7538 223.931 62.7714 223.563 61.9952 222.95C61.1522 222.284 60.5992 221.297 60.083 220.355C59.7784 219.799 59.4001 218.579 59.4001 218.579L59.2636 202.19C59.2636 202.19 58.5768 200.34 58.0343 199.526C57.6053 198.883 57.1144 198.237 56.4637 197.819C55.6579 197.302 54.6724 197.111 53.7321 196.931C52.6791 196.73 50.5224 196.726 50.5224 196.726L33.8597 200.073C33.8597 200.073 31.9579 201.011 31.2647 201.78C30.8011 202.294 30.5293 202.968 30.3086 203.624C29.8814 204.894 29.6257 207.585 29.6257 207.585L29.1476 220.833C29.1476 220.833 28.8177 222.205 28.3965 222.745C27.7943 223.517 26.9341 224.139 26.0063 224.452C25.2942 224.692 24.4917 224.658 23.7527 224.52C23.0004 224.381 21.6357 223.633 21.6357 223.633C21.6357 223.633 9.8593 211.452 3.67545 206.287V206.287Z" fill="#999999" stroke="#040000"/>
<path d="M96.789 209.121L94.2281 193.005C94.2281 193.005 94.1247 191.744 94.2281 191.127C94.2858 190.782 94.3359 190.396 94.5696 190.137C94.8217 189.857 95.2212 189.714 95.5939 189.658C95.9124 189.611 96.3039 189.587 96.55 189.795C96.8058 190.011 96.8573 190.751 96.8573 190.751L99.4182 208.507C99.4182 208.507 99.4726 209.409 99.2474 209.77C99.0952 210.013 98.8074 210.172 98.5304 210.248C98.1127 210.362 97.5871 210.429 97.2329 210.18C96.92 209.959 96.789 209.121 96.789 209.121V209.121Z" fill="#999999" stroke="#040000"/>
<path d="M96.584 189.795C96.1299 188.654 95.934 187.358 96.106 186.142C96.1738 185.662 96.3312 185.139 96.6864 184.81C96.8897 184.621 97.1949 184.549 97.4717 184.537C97.7999 184.522 98.1812 184.559 98.4278 184.776C98.85 185.147 98.9321 185.795 99.0424 186.346C99.143 186.849 99.0009 187.376 99.0766 187.883C99.2007 188.713 99.393 189.552 99.7595 190.307C100.03 190.864 100.513 191.292 100.852 191.81C101.504 192.804 102.188 193.792 102.662 194.883C102.998 195.656 103.189 196.486 103.379 197.307C103.548 198.038 103.682 198.78 103.754 199.526C103.884 200.864 103.964 202.216 103.857 203.555C103.812 204.11 103.652 205.058 103.55 205.194C103.447 205.331 103.018 206.283 102.764 206.833C102.435 207.546 102.336 208.404 101.808 208.985C101.465 209.362 100.986 209.733 100.477 209.736C100.1 209.736 99.6045 209.547 99.4863 209.189C99.2549 208.488 100.12 207.855 100.408 207.175C100.762 206.342 101.166 205.522 101.398 204.648C101.62 203.814 101.733 202.949 101.774 202.087C101.818 201.177 101.757 200.259 101.637 199.356C101.525 198.501 101.383 197.64 101.091 196.829C100.84 196.13 100.425 195.5 100.067 194.849C99.6536 194.098 99.2575 193.333 98.7693 192.629C98.4098 192.11 97.9587 191.661 97.5742 191.161C97.2315 190.715 96.7919 190.318 96.584 189.795V189.795Z" fill="#999999" stroke="#040000"/>
<path d="M6.13466 194.37L8.2181 194.307L8.34437 228.273H6.07153L6.13466 194.37Z" fill="#CCCCCC" stroke="#040000"/>
<path d="M73.0449 195.822L8.45825 195.759" stroke="#040000" stroke-width="0.7"/>
<path d="M73.2975 194.37L75.381 194.307L75.5072 228.273H73.2344L73.2975 194.37Z" fill="#CCCCCC" stroke="#040000"/>
<path d="M139.904 195.948L75.3809 195.57" stroke="#040000" stroke-width="0.7"/>
</svg>
