<svg width="800" height="273" viewBox="0 0 800 273" fill="none" xmlns="http://www.w3.org/2000/svg">
<path d="M525.718 117.067L525.975 96.0218H522.199V95.0331H525.167V93.5479H522.199V92.5557H525.167V91.0705H522.199V90.0818H526.048L527.147 0H528.632L529.755 118.806C530.608 121.931 531.222 126.602 531.222 126.602L525.071 126.47C525.071 126.47 525.066 124.76 525.143 122.767C525.203 121.21 525.314 119.482 525.519 118.267L525.58 117.868L525.628 117.525C525.651 117.368 525.68 117.215 525.718 117.067ZM59.2329 186.804V185.191C59.3716 185.153 59.5087 185.111 59.6457 185.066C59.7828 185.021 59.9198 184.969 60.0534 184.913C60.5426 184.716 61.0092 184.459 61.4272 184.143C62.1609 183.595 62.7074 182.828 63.2434 182.075L63.3683 181.898C64.0899 180.888 65.2486 178.685 65.2486 178.685L68.4768 171.939L68.8792 171.95C72.6122 171.95 75.7085 169.327 76.2983 165.885C76.9679 166.919 77.9011 167.779 79.006 168.379C80.0954 168.973 81.3513 169.313 82.6887 169.313C83.4727 169.313 84.2291 169.195 84.9403 168.98L85.0513 169.677C85.0513 169.677 85.0825 169.879 85.1536 170.101C85.2178 170.305 85.3132 170.523 85.445 170.618C85.5786 170.711 85.7382 170.753 85.9065 170.763C86.1372 170.78 86.3835 170.735 86.5969 170.676C86.8431 170.611 87.0999 170.468 87.2352 170.253C87.4347 169.93 87.3861 169.129 87.3861 169.129L87.2022 167.859C87.9586 167.311 88.6039 166.627 89.102 165.847C88.9404 166.398 88.7131 166.925 88.4807 167.456L88.2656 167.946C88.0088 168.55 87.2404 169.111 87.4468 169.736C87.5509 170.055 87.9915 170.221 88.3263 170.221C88.779 170.218 89.2042 169.888 89.5097 169.555C89.674 169.371 89.7921 169.156 89.8889 168.931C90.0665 168.514 90.1687 168.053 90.3579 167.644L90.4751 167.39L90.7326 166.832C90.8783 166.519 91.0062 166.249 91.055 166.186C91.1119 166.11 91.1883 165.756 91.2478 165.381C91.2842 165.152 91.3135 164.92 91.3286 164.733C91.4227 163.542 91.3517 162.341 91.2371 161.151C91.1732 160.488 91.0533 159.829 90.9041 159.181L90.7167 158.4C90.5985 157.931 90.46 157.47 90.2673 157.029C89.8907 156.162 89.3685 155.371 88.8462 154.583L88.6594 154.299C88.5362 154.111 88.3922 153.934 88.2483 153.761C88.0401 153.507 87.8319 153.258 87.6897 152.963C87.3636 152.293 87.1936 151.547 87.0826 150.811C87.0149 150.36 87.1416 149.892 87.0531 149.444L87.0218 149.281C86.9334 148.833 86.8397 148.344 86.5066 148.049C86.373 147.932 86.1927 147.872 86.007 147.848C85.8891 147.834 85.7695 147.83 85.6567 147.837C85.4121 147.848 85.1398 147.914 84.9593 148.081C84.7824 148.243 84.661 148.462 84.5778 148.698C84.5483 148.778 84.5239 148.862 84.5032 148.944C84.4771 149.052 84.458 149.159 84.4442 149.264C84.2915 150.342 84.465 151.495 84.8692 152.508L84.8969 152.574C84.8779 152.55 84.8588 152.525 84.8379 152.508C84.6193 152.324 84.2724 152.345 83.9897 152.386C83.8405 152.408 83.6862 152.446 83.5404 152.505C83.4745 152.532 83.4103 152.563 83.3496 152.601C83.249 152.661 83.157 152.73 83.0807 152.814C82.8725 153.043 82.8275 153.386 82.7772 153.691C82.7286 153.979 82.7234 154.427 82.7373 154.784H82.6887C78.9575 154.784 75.8559 157.401 75.2644 160.843C74.9956 160.43 74.6851 160.041 74.3382 159.687L76.1057 155.996C76.1057 155.996 76.3296 155.135 76.2255 154.722C76.1196 154.299 75.8837 153.837 75.4986 153.629C75.3078 153.528 75.0684 153.476 74.8412 153.5L46.2022 158.764C45.9108 158.737 45.5933 158.715 45.2915 158.702C44.5821 158.667 43.9593 158.664 43.9593 158.664L32.0667 161.054L31.829 159.816L33.3607 159.521L32.8247 156.627L31.2721 156.908L30.7691 154.281L32.3337 153.979L31.7977 151.089L30.214 151.374L29.6225 148.282L31.2201 147.973L30.6841 145.083L10.1737 148.782L10.2083 148.955L0 150.797L0.63141 153.924L2.14749 153.633L2.6835 156.52L1.11364 156.804L1.74332 159.93L3.26113 159.638L3.7104 162.061L2.14055 162.345L2.77196 165.472L4.28804 165.18L4.51874 166.426L2.01913 166.884C2.01913 166.884 1.42067 167.144 1.20384 167.376C0.947118 167.654 0.690388 168.386 0.690388 168.386L3.32704 184.15L3.24205 186.853L3.84397 186.849L7.52314 236.33H6.46154L8.18231 245.185L7.81803 248.01L12.4201 248.114L15.0203 249.911L15.5771 263.051L28.5227 262.989L28.6217 259.307L31.9677 261.618L38.9132 261.979L38.9497 263.336L41.5291 263.166L41.9315 262.132L53.9751 262.756L104.849 265.144L136.518 267.809L183.865 268.808L212.121 269.28L272.625 270.585L333.462 270.973L379.367 271.39L489.108 272.056H537.068L561.24 271.778L597.876 272.416L677.616 273L695.518 272.278C695.518 272.278 701.67 271.941 703.4 271.778C712.241 270.945 718.815 270.165 727.318 269.151L727.433 269.141L729.293 268.919C732.678 268.517 738.531 267.181 742.453 266.282L743.921 265.949C750.249 264.516 755.988 261.646 762.043 259.314C763.268 258.842 764.471 258.263 765.656 257.632L766.695 257.062L767.585 256.556C768.251 256.17 768.912 255.779 769.564 255.39L770.48 254.845C771.796 254.064 773.121 252.673 774.391 251.337C775.209 250.48 776.002 249.647 776.754 249.016C777.955 248.01 778.812 246.556 779.663 245.116C780.251 244.12 780.836 243.13 781.528 242.298C782.517 241.108 783.533 238.321 784.192 236.33H780.9C782.173 234.283 783.358 231.673 783.358 231.673L786.817 219.199L785.063 219.362L794.345 187.852L798.281 175.305L800 173.556L796.175 173.56L796.096 115.18H794.192L793.954 173.56L691.336 173.625C691.336 173.625 685.268 173.546 683.658 173.831C682.364 174.06 681.264 174.253 680.196 174.5L679.498 174.666L679.233 174.739L678.787 174.857L678.724 174.879C678.41 174.968 678.092 175.069 677.768 175.176C677.304 175.333 676.823 175.51 676.313 175.711C675.612 175.992 674.483 176.662 673.298 177.429L672.186 178.161C671.642 178.525 671.109 178.893 670.625 179.23C669.994 179.667 669.442 180.059 669.054 180.333L668.985 180.385C666.221 182.359 662.714 187.224 662.714 187.224L613.056 187.19L632.619 183.418L633.601 183.22L633.681 180.899H633.218L633.178 168.532L624.676 168.494L624.638 167.709L623.25 166.269L599.865 139.482V138.871L593.513 138.795C593.513 138.795 589.926 143.625 589.646 143.625C589.506 143.625 589.42 152.807 589.369 162.061C589.321 170.738 589.304 179.479 589.302 180.781L567.929 180.725L567.889 183.262L588.348 183.247L588.346 183.38H567.96L588.304 187.182L525.607 187.141L525.314 139.104L527.032 139.038L527.099 132.057L525.271 132.119V132.012L527.099 132.001L531.176 127.927L534.332 127.966L534.324 126.637L531.222 126.602L525.071 126.581L525.074 126.664C524.743 126.686 523.775 126.702 520.997 126.664L520.287 126.661H520.226C519.809 126.657 519.356 126.654 518.866 126.644L517.232 114.114H516.143V109.759H518.322V108.667H520.501V103.014L523.444 103.292L523.415 100.516L520.001 101.042H518.322V99.9534H516.688V97.229H511.479L511.51 99.9534H510.154V100.498C510.154 100.498 509.362 100.859 509.062 101.275C508.915 101.484 508.68 101.741 508.495 102.001L508.358 102.205C508.309 102.289 508.268 102.372 508.242 102.451C507.941 103.326 507.916 103.929 507.974 104.856C508.01 105.429 508.065 105.96 508.283 106.49C508.44 106.865 508.776 107.57 509.062 107.854C509.18 107.972 509.385 108.132 509.586 108.278C509.874 108.485 510.154 108.667 510.154 108.667V109.759H513.965V114.114H512.331L510.986 121.855L500.205 121.804L500.278 111.876L495.768 111.872V106.719H489.355C489.355 106.719 488.382 107.906 487.75 108.323C486.951 108.853 485.821 109.395 484.93 109.752C484.486 109.929 484.09 110.061 483.69 110.169C483.288 110.28 482.878 110.369 482.406 110.464C482.234 110.495 482.061 110.516 481.887 110.529C481.494 110.564 481.095 110.56 480.7 110.557L480.267 110.551L479.295 110.54C478.729 110.526 478.161 110.502 477.596 110.464C476.338 110.373 475.056 110.304 473.854 109.925C473.355 109.77 472.871 109.568 472.401 109.339C472.126 109.204 471.857 109.058 471.593 108.906C471.271 108.718 470.956 108.524 470.647 108.323C470.315 108.108 469.993 107.879 469.677 107.639C468.883 107.036 468.137 106.362 467.44 105.651C467.16 105.367 466.9 105.065 466.65 104.755C466.381 104.419 466.123 104.072 465.864 103.725L465.607 103.381L465.303 102.979L464.874 102.438C464.659 102.171 464.444 101.9 464.239 101.626C464.048 101.369 463.866 101.109 463.698 100.838C463.28 100.161 462.63 98.7009 462.63 98.7009H453.543V111.838L409.237 111.834L401.754 111.904L401.466 150.641L401.521 150.669L401.383 186.995L296.595 186.96V185.146L251.891 185.062V178.47H247.469V179.632L250.675 179.692L250.63 180.979L250.616 179.705L243.76 179.712L243.674 156.627L241.825 156.686L241.782 179.715L235.197 179.723V178.962H239.126V177.491H233.978V179.705H231.041L231.023 181.419H241.778L241.771 185.031L224.888 185.007L224.935 186.94L219.693 186.936V185.329L218.616 185.302C218.616 185.302 218.421 183.841 218.501 183.119L218.514 182.994C218.536 182.801 218.556 182.599 218.608 182.415C218.652 182.266 218.714 182.127 218.813 182.013C218.965 181.838 219.375 181.714 219.552 181.665L219.521 181.985H221.08L222.355 169.122L220.796 169.094L219.84 178.765L220.428 170.454C220.428 170.454 219.287 170.656 218.756 170.878C217.953 171.217 217.187 171.679 216.52 172.238C215.862 172.789 215.305 173.463 214.82 174.167C214.37 174.816 213.953 175.51 213.715 176.263C213.471 177.033 213.445 177.863 213.403 178.671C213.349 179.719 213.456 180.766 213.487 181.815L213.6 185.302L212.843 185.284V180.784H208.422V181.947L211.629 182.002L211.583 183.289L211.569 182.02H200.775L201.8 171.683L200.433 171.655L199.588 180.201L200.109 172.848C200.109 172.848 199.108 173.029 198.643 173.223C198.341 173.348 198.046 173.494 197.761 173.66C197.38 173.882 197.014 174.136 196.678 174.417C196.101 174.899 195.612 175.489 195.186 176.106C194.792 176.679 194.425 177.287 194.216 177.95C194.015 178.584 193.981 179.261 193.948 179.927L193.943 180.062C193.91 180.684 193.943 181.305 193.977 181.926L193.981 182.02H191.994L192.096 162.949L193.217 162.956L193.269 160.711L184.366 160.694L184.351 156.516L182.5 156.571L182.491 160.69L170.03 160.663L169.978 162.803L170.946 162.81L170.845 182.12L172.408 182.113L172.542 186.905L73.8126 186.829V185.364L72.8689 185.34C72.8689 185.34 72.6972 184.059 72.7683 183.425L72.7787 183.314C72.8116 183.008 72.8464 182.679 73.0424 182.453C73.0597 182.432 73.0823 182.415 73.1083 182.397L73.2106 182.328L73.358 182.259C73.4847 182.207 73.6131 182.169 73.6911 182.148L73.6634 182.429H75.032L76.1509 171.138L74.7822 171.113L73.9426 179.597L74.4596 172.307C74.4596 172.307 73.4586 172.484 72.992 172.678C72.286 172.977 71.6165 173.383 71.0284 173.872C70.4526 174.355 69.9634 174.944 69.5366 175.565L69.3077 175.909C69.1741 176.117 69.0474 176.328 68.933 176.547C68.7873 176.825 68.6607 177.109 68.567 177.404C68.3519 178.081 68.3293 178.809 68.2929 179.517C68.2461 180.437 68.3398 181.36 68.3675 182.28L68.4663 185.34L67.3232 185.313V186.829L59.2329 186.804ZM59.2329 186.804L41.8188 186.787L41.7807 183.147H40.8196L40.8405 181.433H43.7755V179.215H48.9239V180.691H44.9949V181.45L50.9482 181.443L50.8198 181.163L50.6568 180.802L50.459 180.358L50.329 180.08C50.1347 179.681 49.7825 178.865 49.7825 178.865L49.7235 172.116C49.0176 171.328 48.4832 170.388 48.1797 169.358C47.9924 168.726 47.8917 168.057 47.8917 167.366C47.8917 165.933 48.322 164.597 49.0644 163.473C49.1668 163.317 49.2743 163.164 49.3888 163.018C49.3454 162.862 49.2951 162.727 49.2361 162.609C49.1251 162.387 48.995 162.168 48.8458 161.96C48.74 161.815 48.6238 161.672 48.4989 161.54L40.7866 162.935C44.681 163.209 47.753 166.346 47.753 170.177C47.753 174.188 44.3843 177.439 40.2316 177.439C39.5083 177.439 38.8074 177.338 38.1466 177.155C37.1664 176.884 36.2697 176.423 35.4977 175.819C33.9713 174.625 32.9374 172.866 32.7431 170.867L32.6078 170.891C32.7796 171.502 32.8715 172.141 32.8715 172.804C32.8715 176.106 30.5869 178.893 27.4629 179.774L27.4022 186.689L59.2329 186.804ZM191.994 182.02L190.572 182.026L190.636 186.919H192.969L192.934 183.73H191.975L191.994 182.02ZM84.9836 152.737C85.0305 152.855 85.0599 152.99 85.0808 153.109C85.1051 153.251 85.112 153.358 85.112 153.358L85.3878 155.266C85.7764 155.409 86.1493 155.582 86.5032 155.787C86.9785 156.058 87.4191 156.377 87.8197 156.738L87.4382 156.047C87.2422 155.697 87.0375 155.353 86.8102 155.027C86.6871 154.851 86.5517 154.684 86.413 154.517L86.2014 154.267L86.1389 154.194L86.1111 154.163C85.988 154.017 85.8649 153.875 85.7486 153.722C85.6636 153.611 85.5717 153.504 85.4798 153.396L85.2386 153.109C85.1449 152.99 85.0565 152.865 84.9836 152.737ZM24.9754 180.08C21.3188 179.906 18.3473 177.189 17.8894 173.736L17.4106 173.823C17.591 174.448 17.6882 175.107 17.6882 175.787C17.6882 177.488 17.0828 179.049 16.0697 180.288L17.5355 181.776L24.9216 180.288L24.9754 180.08ZM14.9266 182.304L14.4097 181.783C13.2023 182.581 11.7418 183.05 10.1685 183.05C8.31935 183.05 6.62461 182.404 5.31495 181.336L5.81106 184.143L14.9266 182.304ZM5.10506 169.584L5.06689 169.378L4.91251 169.406L5.10506 169.584ZM3.53347 171.239L3.97234 171.665L3.77806 171.95L3.68438 172.099L3.53347 171.239ZM50.6308 161.151L51.9439 160.919C51.5675 161.11 51.2101 161.329 50.8736 161.575L50.7921 161.422L50.7245 161.304L50.6308 161.151ZM52.9274 180.489C52.7592 180.215 52.6031 179.93 52.4504 179.653C52.1798 179.16 51.845 178.077 51.845 178.077L51.8086 173.744C52.0098 173.851 52.2163 173.949 52.4261 174.038C52.6343 174.125 52.8476 174.202 53.0644 174.271C53.349 174.362 53.6404 174.435 53.9387 174.49C54.4157 174.58 54.9084 174.628 55.4132 174.628C59.016 174.628 62.0273 172.182 62.7629 168.917C63.559 169.993 64.6537 170.847 65.9269 171.37L61.5486 180.624C61.5486 180.624 61.3907 180.829 61.1601 181.103C60.9519 181.346 60.6847 181.648 60.4194 181.905L60.4141 181.433L53.6091 181.44C53.3541 181.148 53.1321 180.826 52.9274 180.489ZM72.1768 158.153L72.6347 157.186L70.4526 157.581C71.0579 157.706 71.6356 157.896 72.1768 158.153ZM33.2808 167.398L32.705 164.393L36.9999 163.619C35.326 164.385 33.9938 165.736 33.2808 167.398ZM56.2337 160.146L64.7681 158.608C63.148 159.635 61.9614 161.252 61.5347 163.144C60.9692 162.38 60.2545 161.728 59.4306 161.224C58.4853 160.645 57.3993 160.266 56.2337 160.146ZM243.78 185.035L249.435 185.042V181.419H243.766L243.78 185.035ZM482.136 95.106V106.778H487.807V104.683L493.806 104.71L491.176 104.77L491.709 106.661L495.549 106.692L495.372 104.71H493.865L495.078 104.683L496.939 103.468L496.968 101.4L493.837 100.485L493.865 104.71H493.806V100.516L487.807 100.485V95.0465L482.136 95.106ZM474.571 100.543L481.959 100.516L481.927 105.096L474.659 105.154L474.571 100.543ZM96.2586 184.945V186.773H113.156V184.945H96.2586ZM97.0811 184.913L96.2862 180.711L94.6005 180.708V178.879H101.841V180.708L100.264 180.711L101.06 184.913H97.0811ZM107.566 180.84H114.806V179.011H107.566V180.84ZM108.629 183.675L108.226 184.812H112.19L113.543 180.944H109.579C109.164 182.175 108.898 182.921 108.629 183.675ZM771.543 171.683H777.075V173.407H771.543V171.683ZM778.402 169.917H770.295V171.623H778.402V169.917ZM619.673 151.939L611.018 151.988L614.77 156.3L619.724 156.252L619.673 151.939ZM700.879 171.142V173.549L691.543 173.525L692.497 171.142H700.879ZM619.835 152.886L663.518 153.209L663.926 152.13L665.871 152.075L665.848 156.318L664.16 156.394L663.569 155.384L619.845 155.704L619.835 152.886ZM671.333 152.601L665.953 153.729L665.977 155.051L671.317 155.985L671.333 152.601ZM589.432 148.778L581.09 145.714L579.172 152.161H589.432V148.778ZM576.491 152.49L589.297 152.383L589.229 160.266L576.491 160.371V155.346L576.429 160.51L578.071 160.468L576.257 162.175L572.033 162.206C572.033 162.206 572.118 163.699 572.217 164.337C572.314 164.972 572.338 165.621 572.511 166.238C572.759 167.134 573.187 167.966 573.563 168.813L573.773 169.292L574.195 170.239C574.299 170.465 574.406 170.69 574.521 170.913C574.601 171.065 574.682 171.217 574.769 171.37L574.908 171.61C575.489 172.582 576.173 173.494 576.908 174.351C577.525 175.072 578.195 175.746 578.887 176.395C579.149 176.638 579.414 176.877 579.682 177.113L579.986 177.377L580.444 177.748L581.123 178.272C581.381 178.467 581.64 178.664 581.893 178.865C582.563 179.396 584.566 180.67 584.566 180.67L578.899 180.659L577.782 179.615L576.8 178.682C576.295 178.192 575.775 177.717 575.289 177.207L574.951 176.839C574.559 176.395 574.171 175.947 573.799 175.485C573.362 174.941 572.949 174.379 572.585 173.785C571.754 172.436 571.1 170.975 570.54 169.49C570.2 168.591 569.962 167.661 569.725 166.731C569.603 166.256 569.481 165.78 569.346 165.312C569.072 164.351 569.219 162.206 569.219 162.206L567.818 162.245L567.852 151.141L576.542 151.19L576.491 152.49ZM135.626 138.614L135.622 139.111L123.614 139.329L127.432 119.489H125.588L121.84 139.361L78.7944 140.145V142.844L121.077 143.414L116.813 166.02H118.478L122.823 143.438L135.606 143.607L135.575 144.42L126.622 144.375L126.667 147.615L135.58 147.57L135.575 148.424H135.679L134.987 149.097L128.565 159.312L128.332 162.283L128.87 163.719L128.925 165.572L126.031 179.785L125.338 180.406L125.25 156.405L123.399 156.46L123.343 186.576L124.282 186.586L146.374 186.676V183.796L145.911 183.8L145.835 182.22H145.699L145.65 181.221L144.48 180.198L143.816 177.408L142.376 169.028L141.839 164.351L142.287 162.82L142.369 157.421L142.421 159.649L145.488 159.618L145.476 162.64C145.476 162.64 145.985 163.47 146.398 163.47C146.551 163.47 146.716 163.362 146.867 163.223C147.152 162.96 147.386 162.578 147.386 162.578L147.415 154.749C147.415 154.749 147.026 153.639 146.557 153.635C146.485 153.635 146.416 153.657 146.349 153.691C146.207 153.768 146.076 153.91 145.96 154.073C145.689 154.451 145.507 154.94 145.507 154.94L145.499 156.946L142.358 156.977L142.412 154.548L145.472 148.358L149.389 148.334L149.344 147.615L157.495 147.702L157.489 148.785L161.176 148.695V148.646L165.271 148.514L165.136 139.513H161.043V134.385L157.577 134.34L157.569 135.419H149.299L149.254 134.114L135.666 134.16V135.283H130.086L130.041 138.66L135.626 138.614ZM137.295 179.437C137.441 179.247 137.584 179.039 137.717 178.841C137.831 178.674 137.941 178.515 138.043 178.379C138.119 175.42 137.768 172.047 137.434 168.823L137.424 168.74L137.269 167.262L137.106 167.047L136.91 166.811L136.858 179.934C137.007 179.795 137.153 179.621 137.295 179.437ZM133.349 179.834L133.304 168.321L132.035 175.662C132.035 175.662 131.686 177.342 131.946 178.112C132.037 178.387 132.185 178.633 132.365 178.862C132.647 179.222 133.005 179.535 133.349 179.834ZM157.521 143.383L157.514 144.51L149.389 144.42L149.358 146.634L149.299 143.427L157.521 143.383Z" fill="black"/>
</svg>
