<svg width="430" height="147" viewBox="0 0 430 147" fill="none" xmlns="http://www.w3.org/2000/svg">
<path d="M282.511 62.9499L282.649 51.6423H280.62V51.1111H282.215V50.3131H280.62V49.78H282.215V48.982H280.62V48.4508H282.688L283.279 0.0503235H284.077L284.68 63.8839C285.139 65.5634 285.469 68.0729 285.469 68.0729L282.163 68.0018C282.163 68.0018 282.161 67.0831 282.202 66.0125C282.234 65.1759 282.294 64.2471 282.404 63.5947L282.437 63.3804L282.462 63.1957C282.475 63.1117 282.491 63.0296 282.511 62.9499ZM31.8415 100.419V99.5524C31.916 99.5319 31.9897 99.5094 32.0633 99.4851C32.1369 99.4612 32.2106 99.4331 32.2824 99.403C32.5452 99.2971 32.796 99.1591 33.0206 98.9892C33.4149 98.6947 33.7085 98.2828 33.9965 97.8781L34.0636 97.7831C34.4514 97.2405 35.0741 96.0568 35.0741 96.0568L36.8088 92.4324L37.025 92.4382C39.0309 92.4382 40.6947 91.0288 41.0117 89.1794C41.3715 89.7349 41.873 90.1969 42.4667 90.5195C43.0521 90.8383 43.7269 91.0211 44.4456 91.0211C44.8669 91.0211 45.2734 90.9577 45.6555 90.8422L45.7152 91.2168C45.7152 91.2168 45.7319 91.3252 45.7702 91.4445C45.8047 91.5543 45.8559 91.6717 45.9268 91.7223C45.9985 91.7724 46.0843 91.7948 46.1747 91.8005C46.2987 91.8096 46.4311 91.7853 46.5457 91.7538C46.678 91.7184 46.816 91.6421 46.8887 91.5266C46.9959 91.3529 46.9698 90.9223 46.9698 90.9223L46.871 90.2399C47.2774 89.9454 47.6242 89.5784 47.8919 89.1588C47.805 89.4552 47.6829 89.7382 47.558 90.0236L47.4424 90.2866C47.3044 90.6112 46.8915 90.9128 47.0024 91.2488C47.0584 91.4201 47.2951 91.5094 47.475 91.5094C47.7183 91.5075 47.9468 91.3304 48.1109 91.1514C48.1992 91.0526 48.2627 90.9371 48.3147 90.8159C48.4102 90.5921 48.4651 90.3444 48.5667 90.1243L48.6297 89.9883L48.7681 89.6881C48.8464 89.5201 48.9151 89.375 48.9413 89.3411C48.9719 89.3001 49.0129 89.1101 49.0449 88.9087C49.0645 88.7856 49.0802 88.661 49.0883 88.5603C49.1389 87.9208 49.1007 87.2755 49.0392 86.636C49.0048 86.2799 48.9404 85.9258 48.8602 85.5774L48.7595 85.1578C48.696 84.9058 48.6216 84.6581 48.518 84.4214C48.3157 83.9551 48.035 83.5303 47.7544 83.107L47.654 82.9543C47.5878 82.8536 47.5105 82.7581 47.4331 82.6651C47.3212 82.529 47.2094 82.3949 47.133 82.2365C46.9577 81.8766 46.8664 81.4757 46.8067 81.0805C46.7703 80.8381 46.8384 80.5865 46.7909 80.346L46.7741 80.2582C46.7265 80.0176 46.6762 79.7546 46.4972 79.5962C46.4254 79.5332 46.3285 79.5012 46.2288 79.4883C46.1654 79.4807 46.1011 79.4788 46.0405 79.4826C45.9091 79.4883 45.7627 79.5236 45.6658 79.6134C45.5707 79.7007 45.5054 79.8181 45.4607 79.9451C45.4449 79.988 45.4318 80.0329 45.4206 80.0773C45.4067 80.135 45.3964 80.1928 45.389 80.2491C45.3069 80.8285 45.4001 81.4475 45.6173 81.9921L45.6322 82.0274C45.622 82.0145 45.6117 82.0012 45.6005 81.9921C45.4831 81.8933 45.2967 81.9043 45.1447 81.9267C45.0646 81.9382 44.9816 81.9587 44.9033 81.9902C44.8679 82.005 44.8334 82.0217 44.8007 82.0422C44.7467 82.0742 44.6973 82.1114 44.6563 82.1563C44.5444 82.2794 44.5202 82.4636 44.4932 82.6278C44.4671 82.7825 44.4643 83.023 44.4717 83.2149H44.4456C42.4406 83.2149 40.774 84.6209 40.4561 86.4703C40.3117 86.2484 40.1448 86.0394 39.9584 85.8494L40.9082 83.8659C40.9082 83.8659 41.0285 83.4034 40.9726 83.1815C40.9157 82.9543 40.7889 82.7061 40.582 82.5944C40.4795 82.54 40.3508 82.5123 40.2287 82.5252L24.8393 85.3535C24.6828 85.3387 24.5121 85.3273 24.35 85.3201C23.9687 85.3015 23.6341 85.2996 23.6341 85.2996L17.2435 86.5839L17.1158 85.9186L17.9388 85.7602L17.6508 84.2052L16.8165 84.356L16.5462 82.9447L17.387 82.7825L17.099 81.2294L16.2479 81.3826L15.9301 79.7212L16.7886 79.5556L16.5005 78.0026L5.47913 79.9899L5.49774 80.083L0.012207 81.0729L0.3515 82.7529L1.16618 82.5963L1.45421 84.1475L0.610632 84.3002L0.948991 85.9797L1.7646 85.8232L2.00602 87.1247L1.16245 87.2774L1.50174 88.9574L2.31642 88.8009L2.44039 89.47L1.0972 89.7163C1.0972 89.7163 0.775617 89.8561 0.659101 89.9807C0.521148 90.1301 0.383192 90.5233 0.383192 90.5233L1.80002 98.993L1.75435 100.445L2.0778 100.443L4.05483 127.029H3.48437L4.40904 131.787L4.21329 133.305L6.68623 133.36L8.08347 134.326L8.3827 141.386L15.3391 141.353L15.3923 139.375L17.1903 140.616L20.9225 140.81L20.9421 141.54L22.3282 141.448L22.5445 140.892L29.0162 141.228L56.3535 142.511L73.3712 143.943L98.8137 144.48L113.997 144.733L146.509 145.434L179.201 145.643L203.868 145.866L262.838 146.224H288.61L301.599 146.075L321.286 146.418L364.134 146.732L373.754 146.344C373.754 146.344 377.06 146.163 377.99 146.075C382.741 145.628 386.273 145.208 390.842 144.664L390.904 144.658L391.903 144.539C393.723 144.323 396.868 143.605 398.975 143.122L399.764 142.943C403.164 142.173 406.248 140.631 409.502 139.378C410.16 139.125 410.807 138.814 411.443 138.474L412.002 138.169L412.48 137.896C412.838 137.689 413.193 137.479 413.544 137.27L414.036 136.977C414.743 136.558 415.455 135.81 416.137 135.093C416.577 134.632 417.003 134.184 417.407 133.845C418.052 133.305 418.513 132.523 418.97 131.75C419.286 131.215 419.6 130.683 419.972 130.236C420.504 129.596 421.05 128.099 421.404 127.029H419.635C420.319 125.929 420.956 124.527 420.956 124.527L422.814 117.825L421.872 117.913L426.86 100.982L428.975 94.2408L429.898 93.3011L427.843 93.303L427.8 61.9357H426.778L426.65 93.303L371.507 93.3383C371.507 93.3383 368.246 93.2958 367.381 93.4486C366.686 93.5717 366.095 93.6757 365.521 93.8084L365.145 93.8977L365.003 93.9368L364.764 94.0003L364.73 94.0117C364.561 94.0599 364.39 94.1139 364.216 94.1716C363.967 94.2556 363.709 94.3511 363.434 94.4589C363.058 94.6098 362.451 94.9696 361.814 95.382L361.217 95.7753C360.924 95.9709 360.638 96.1685 360.378 96.3494C360.038 96.5842 359.742 96.7952 359.534 96.9422L359.496 96.9703C358.011 98.0308 356.126 100.645 356.126 100.645L329.443 100.626L339.955 98.5998L340.483 98.4933L340.526 97.2462H340.277L340.255 90.6016L335.687 90.5811L335.666 90.1597L334.92 89.386L322.355 74.9934V74.665L318.941 74.624C318.941 74.624 317.014 77.2194 316.863 77.2194C316.788 77.2194 316.742 82.1525 316.714 87.1247C316.688 91.7872 316.679 96.4835 316.678 97.1827L305.193 97.1531L305.172 98.5158L316.166 98.5081L316.165 98.5792H305.21L316.142 100.622L282.451 100.6L282.294 74.7901L283.217 74.7547L283.253 71.0039L282.271 71.0373V70.9795L283.253 70.9738L285.444 68.785L287.14 68.8055L287.135 68.0915L285.469 68.0729L282.163 68.0615L282.165 68.1063C281.987 68.1178 281.467 68.1269 279.974 68.1063L279.593 68.1044H279.56C279.335 68.1025 279.092 68.1011 278.829 68.0953L277.951 61.3629H277.366V59.0233H278.537V58.4363H279.707V55.3989L281.289 55.5483L281.273 54.0568L279.439 54.3399H278.537V53.7547H277.658V52.2909H274.859L274.876 53.7547H274.147V54.0473C274.147 54.0473 273.722 54.2411 273.561 54.4649C273.482 54.5771 273.356 54.715 273.256 54.8548L273.182 54.9646C273.156 55.0095 273.134 55.0543 273.12 55.0968C272.958 55.5669 272.945 55.891 272.976 56.3888C272.995 56.6966 273.025 56.9821 273.142 57.267C273.226 57.4684 273.407 57.8469 273.561 57.9996C273.624 58.0631 273.734 58.149 273.842 58.2273C273.997 58.3389 274.147 58.4363 274.147 58.4363V59.0233H276.195V61.3629H275.317L274.594 65.5224L268.801 65.4947L268.84 60.1607L266.417 60.1588V57.3901H262.971C262.971 57.3901 262.448 58.0278 262.109 58.2516C261.679 58.5365 261.072 58.8277 260.593 59.0195C260.354 59.1145 260.142 59.1856 259.927 59.2434C259.711 59.303 259.491 59.3512 259.237 59.4018C259.145 59.4185 259.051 59.43 258.958 59.4371C258.747 59.4558 258.532 59.4538 258.32 59.4519L258.087 59.4486L257.565 59.4429C257.261 59.4352 256.956 59.4223 256.652 59.4018C255.976 59.3531 255.287 59.3159 254.641 59.1126C254.373 59.0291 254.113 58.9207 253.86 58.7976C253.713 58.7251 253.568 58.6468 253.426 58.5647C253.253 58.464 253.084 58.3595 252.918 58.2516C252.74 58.1361 252.567 58.013 252.397 57.8841C251.97 57.56 251.569 57.1983 251.195 56.816C251.044 56.6632 250.904 56.501 250.77 56.3349C250.626 56.154 250.487 55.9678 250.348 55.7812L250.21 55.5965L250.046 55.3803L249.816 55.0897C249.7 54.946 249.585 54.8004 249.475 54.6534C249.372 54.5155 249.274 54.3757 249.184 54.2301C248.959 53.8664 248.61 53.0818 248.61 53.0818H243.727V60.1402L219.919 60.1383L215.898 60.1755L215.743 80.9889L215.773 81.0041L215.698 100.522L159.39 100.503V99.5281L135.368 99.4832V95.9414H132.992V96.5656L134.714 96.5976L134.69 97.2892L134.683 96.6048L130.999 96.6086L130.953 84.2052L129.959 84.2367L129.936 96.6105L126.397 96.6143V96.2058H128.509V95.4154H125.742V96.6048H124.164L124.154 97.5259H129.934L129.93 99.4665L120.857 99.4536L120.883 100.492L118.066 100.49V99.6269L117.487 99.6121C117.487 99.6121 117.382 98.8269 117.425 98.4394L117.433 98.3721C117.444 98.2681 117.455 98.1597 117.483 98.0609C117.507 97.9807 117.54 97.9063 117.593 97.8447C117.675 97.7512 117.895 97.6844 117.99 97.6581L117.973 97.8299H118.811L119.497 90.9185L118.659 90.9037L118.145 96.0998L118.461 91.6344C118.461 91.6344 117.848 91.7428 117.562 91.8621C117.131 92.0444 116.72 92.2926 116.361 92.5928C116.008 92.8892 115.708 93.251 115.447 93.6294C115.206 93.9778 114.981 94.3511 114.854 94.7553C114.722 95.1691 114.708 95.6149 114.686 96.0492C114.657 96.6124 114.715 97.1751 114.731 97.7383L114.792 99.6121L114.385 99.6025V97.1846H112.01V97.8094L113.732 97.839L113.708 98.5306L113.7 97.8485H107.9L108.451 92.2945L107.716 92.2797L107.262 96.8715L107.542 92.9207C107.542 92.9207 107.004 93.0181 106.755 93.1221C106.592 93.1894 106.434 93.2677 106.281 93.3569C106.076 93.4762 105.879 93.6127 105.698 93.7636C105.389 94.0227 105.126 94.3396 104.897 94.6713C104.685 94.9792 104.488 95.3056 104.376 95.6617C104.268 96.0024 104.25 96.3661 104.232 96.7241L104.229 96.7966C104.211 97.1307 104.229 97.4643 104.247 97.7979L104.25 97.8485H103.181L103.236 87.602L103.839 87.6058L103.867 86.3992L99.0829 86.3902L99.0748 84.1455L98.0802 84.1751L98.0754 86.3883L91.3791 86.3735L91.351 87.5237L91.8712 87.5275L91.8173 97.9025L92.6567 97.8986L92.7288 100.474L39.676 100.432V99.6455L39.1689 99.6326C39.1689 99.6326 39.0766 98.9444 39.1148 98.6036L39.1204 98.5439C39.1381 98.3797 39.1568 98.2027 39.2621 98.0814C39.2714 98.07 39.2835 98.0609 39.2975 98.0514L39.3525 98.0141L39.4317 97.9769C39.4998 97.9492 39.5688 97.9287 39.6107 97.9173L39.5958 98.0686H40.3312L40.9325 92.0019L40.197 91.9886L39.7458 96.547L40.0236 92.63C40.0236 92.63 39.4858 92.725 39.235 92.8295C38.8557 92.9899 38.4959 93.208 38.1799 93.471C37.8704 93.7301 37.6076 94.0471 37.3783 94.3807L37.2552 94.5654C37.1834 94.677 37.1154 94.7906 37.0539 94.9081C36.9756 95.0574 36.9075 95.2102 36.8572 95.3686C36.7416 95.7323 36.7295 96.1237 36.7099 96.5041C36.6848 96.998 36.7351 97.4939 36.75 97.9884L36.8031 99.6326L36.1889 99.6178V100.432L31.8415 100.419ZM31.8415 100.419L22.4838 100.41L22.4634 98.4542H21.9469L21.9582 97.5331H23.5353V96.3418H26.3018V97.1345H24.1906V97.5426L27.3896 97.5388L27.3206 97.388L27.233 97.1942L27.1267 96.9556L27.0569 96.8062C26.9525 96.5919 26.7632 96.1537 26.7632 96.1537L26.7315 92.5274C26.3522 92.1041 26.0651 91.5991 25.9019 91.0455C25.8013 90.7061 25.7472 90.3463 25.7472 89.9754C25.7472 89.2051 25.9784 88.4873 26.3773 87.8835C26.4323 87.7995 26.4901 87.7175 26.5517 87.6392C26.5283 87.5552 26.5013 87.4826 26.4696 87.4192C26.41 87.2998 26.34 87.1824 26.2599 87.0708C26.203 86.9925 26.1406 86.9156 26.0735 86.845L21.9292 87.5943C24.0219 87.7418 25.6727 89.4271 25.6727 91.4855C25.6727 93.6404 23.8625 95.3872 21.631 95.3872C21.2423 95.3872 20.8657 95.3333 20.5106 95.2345C19.9839 95.0889 19.502 94.8412 19.0872 94.5167C18.2669 93.8752 17.7114 92.9302 17.607 91.8564L17.5343 91.8693C17.6266 92.1976 17.676 92.5408 17.676 92.8968C17.676 94.6713 16.4483 96.1685 14.7696 96.642L14.737 100.358L31.8415 100.419ZM103.181 97.8485L102.417 97.8519L102.452 100.481H103.705L103.687 98.7673H103.171L103.181 97.8485ZM45.6788 82.1152C45.704 82.1787 45.7198 82.2513 45.731 82.3147C45.7441 82.3911 45.7478 82.4488 45.7478 82.4488L45.896 83.474C46.1048 83.5509 46.3052 83.6439 46.4954 83.7537C46.7508 83.8993 46.9875 84.0706 47.2028 84.2649L46.9978 83.8935C46.8925 83.7055 46.7825 83.5208 46.6603 83.3456C46.5942 83.2507 46.5215 83.1609 46.4469 83.0717L46.3332 82.9371L46.2996 82.898L46.2847 82.8813C46.2186 82.803 46.1524 82.7266 46.0899 82.6445C46.0442 82.5849 45.9948 82.5271 45.9454 82.4694L45.8159 82.3147C45.7655 82.2513 45.718 82.184 45.6788 82.1152ZM13.4329 96.8062C11.468 96.7131 9.87129 95.2531 9.62522 93.398L9.36793 93.4447C9.46486 93.7803 9.51707 94.1344 9.51707 94.5C9.51707 95.4135 9.19178 96.2525 8.64738 96.9178L9.43503 97.7178L13.404 96.9178L13.4329 96.8062ZM8.03312 98.0013L7.75536 97.7216C7.10659 98.1502 6.32176 98.4022 5.47631 98.4022C4.48267 98.4022 3.57199 98.0552 2.86824 97.481L3.13482 98.9892L8.03312 98.0013ZM2.75545 91.1667L2.73494 91.0565L2.65198 91.0713L2.75545 91.1667ZM1.91095 92.0559L2.14677 92.285L2.04237 92.4382L1.99204 92.5184L1.91095 92.0559ZM27.219 86.636L27.9247 86.5114C27.7224 86.614 27.5303 86.7314 27.3495 86.8636L27.3057 86.7815L27.2694 86.7181L27.219 86.636ZM28.4532 97.0262C28.3628 96.8787 28.2789 96.726 28.1968 96.5771C28.0514 96.3122 27.8715 95.7304 27.8715 95.7304L27.852 93.4018C27.9601 93.4595 28.071 93.512 28.1838 93.5602C28.2957 93.607 28.4103 93.6481 28.5268 93.6853C28.6797 93.734 28.8363 93.7731 28.9966 93.8027C29.2529 93.8514 29.5177 93.8771 29.7889 93.8771C31.7249 93.8771 33.3431 92.5627 33.7383 90.8088C34.1661 91.3867 34.7543 91.8454 35.4385 92.1265L33.0858 97.0987C33.0858 97.0987 33.001 97.209 32.8771 97.356C32.7652 97.4868 32.6216 97.649 32.479 97.787L32.4762 97.5331L28.8195 97.5369C28.6825 97.3803 28.5632 97.2071 28.4532 97.0262ZM38.797 85.0252L39.043 84.5054L37.8704 84.7178C38.1957 84.7851 38.5061 84.8872 38.797 85.0252ZM17.8959 89.9921L17.5865 88.3775L19.8944 87.9618C18.9949 88.3737 18.2791 89.0992 17.8959 89.9921ZM30.2298 86.0957L34.8159 85.2695C33.9453 85.8213 33.3077 86.6904 33.0784 87.7065C32.7745 87.296 32.3904 86.9457 31.9477 86.6751C31.4397 86.3639 30.8562 86.1606 30.2298 86.0957ZM131.009 99.4684L134.048 99.4722V97.5259H131.002L131.009 99.4684ZM259.092 51.1503V57.4216H262.139V56.2957L265.363 56.3105L263.949 56.3425L264.236 57.3586L266.299 57.3753L266.204 56.3105H265.395L266.046 56.2957L267.046 55.6433L267.062 54.5322L265.379 54.0401L265.395 56.3105H265.363V54.0568L262.139 54.0401V51.1183L259.092 51.1503ZM255.026 54.0716L258.997 54.0568L258.979 56.5177L255.074 56.5492L255.026 54.0716ZM51.7375 99.4202V100.402H60.8176V99.4202H51.7375ZM52.1795 99.403L51.7523 97.1455L50.8465 97.1436V96.1609H54.737V97.1436L53.8899 97.1455L54.3175 99.403H52.1795ZM57.8134 97.2147H61.7039V96.232H57.8134V97.2147ZM58.3846 98.7377L58.1684 99.3491H60.2984L61.0253 97.2705H58.8953C58.6724 97.932 58.5292 98.333 58.3846 98.7377ZM414.607 92.2945H417.58V93.2209H414.607V92.2945ZM418.293 91.3457H413.936V92.2625H418.293V91.3457ZM332.999 81.6862L328.347 81.7124L330.364 84.0296L333.026 84.0038L332.999 81.6862ZM376.635 92.0039V93.2973L371.618 93.2844L372.131 92.0039H376.635ZM333.085 82.1954L356.559 82.3687L356.778 81.7888L357.823 81.7592L357.811 84.0391L356.904 84.0802L356.586 83.5375L333.091 83.7093L333.085 82.1954ZM360.758 82.0422L357.867 82.6483L357.88 83.3585L360.75 83.8601L360.758 82.0422ZM316.748 79.988L312.266 78.3419L311.235 81.8055H316.748V79.988ZM309.794 81.9826L316.675 81.9248L316.639 86.1606L309.794 86.2169V83.517L309.761 86.2914L310.643 86.2689L309.668 87.1863L307.399 87.203C307.399 87.203 307.444 88.0048 307.497 88.3475C307.55 88.6887 307.563 89.0376 307.655 89.3693C307.788 89.8504 308.019 90.2976 308.221 90.7524L308.333 91.0102L308.56 91.5189C308.616 91.6402 308.674 91.7614 308.735 91.8807C308.778 91.9628 308.822 92.0444 308.869 92.1265L308.943 92.2554C309.256 92.7775 309.623 93.2677 310.018 93.7282C310.35 94.1158 310.71 94.4776 311.081 94.8264C311.222 94.9567 311.365 95.0856 311.509 95.2121L311.672 95.3538L311.919 95.5533L312.283 95.8349C312.422 95.9394 312.561 96.0454 312.697 96.1537C313.057 96.4387 314.133 97.1231 314.133 97.1231L311.088 97.1173L310.488 96.5566L309.96 96.0549C309.689 95.792 309.409 95.5366 309.148 95.2627L308.967 95.0651C308.756 94.8264 308.547 94.5859 308.348 94.3377C308.113 94.0451 307.891 93.743 307.695 93.4242C307.249 92.6992 306.897 91.9141 306.596 91.1161C306.414 90.6331 306.286 90.1339 306.158 89.6342C306.093 89.3788 306.027 89.123 305.955 88.8715C305.807 88.3551 305.887 87.203 305.887 87.203L305.134 87.2235L305.152 81.2576L309.822 81.2838L309.794 81.9826ZM72.892 74.5271L72.8896 74.7939L66.4372 74.9113L68.4889 64.2509H67.4982L65.4837 74.928L42.353 75.3494V76.7998L65.0737 77.1058L62.7825 89.2519H63.6773L66.012 77.1187L72.881 77.2098L72.8643 77.6465L68.0537 77.6222L68.0775 79.3633L72.8672 79.3389L72.8643 79.7976H72.9202L72.5484 80.1594L69.0974 85.648L68.9724 87.244L69.2616 88.0158L69.2912 89.0113L67.7358 96.6477L67.3636 96.9813L67.3163 84.0859L66.3217 84.1155L66.2917 100.296L66.7961 100.302L78.6677 100.35V98.8031L78.4185 98.805L78.378 97.9564H78.305L78.2782 97.4195L77.6497 96.8696L77.2927 95.3705L76.5191 90.8684L76.2304 88.3551L76.4714 87.5328L76.5153 84.6319L76.5434 85.8289L78.1914 85.8122L78.1847 87.4359C78.1847 87.4359 78.4586 87.8816 78.6805 87.8816C78.7626 87.8816 78.8514 87.8239 78.9325 87.749C79.0853 87.6077 79.2112 87.4025 79.2112 87.4025L79.227 83.1963C79.227 83.1963 79.018 82.5997 78.7655 82.5978C78.7273 82.5978 78.6901 82.6092 78.6538 82.6278C78.5779 82.6689 78.5073 82.7452 78.4448 82.833C78.2992 83.0359 78.2014 83.2989 78.2014 83.2989L78.1971 84.3766L76.5095 84.3933L76.5387 83.0884L78.1828 79.7623L80.2874 79.7494L80.2636 79.3633L84.6433 79.4101L84.6399 79.9919L86.6215 79.9432V79.9169L88.8221 79.8463L88.7495 75.0101H86.5499V72.2548L84.6872 72.2304L84.6834 72.8103H80.2392L80.2149 72.1092L72.9135 72.1335V72.7373H69.9149L69.8906 74.5514L72.892 74.5271ZM73.7888 96.4611C73.867 96.359 73.9439 96.2468 74.0154 96.1408C74.077 96.0511 74.1357 95.9652 74.1906 95.8927C74.2316 94.3024 74.0431 92.4902 73.8637 90.7582L73.858 90.7133L73.7749 89.9191L73.6871 89.8036L73.5821 89.6771L73.554 96.7279C73.6341 96.6534 73.7124 96.5599 73.7888 96.4611ZM71.6683 96.674L71.644 90.488L70.9625 94.4327C70.9625 94.4327 70.7745 95.3352 70.9143 95.749C70.9635 95.8965 71.0427 96.0287 71.1396 96.1518C71.2908 96.3456 71.4837 96.5136 71.6683 96.674ZM84.6576 77.0891L84.6538 77.6947L80.2874 77.6465L80.2707 78.8359L80.2392 77.1129L84.6576 77.0891Z" fill="black"/>
</svg>
