<svg width="800" height="187" viewBox="0 0 800 187" fill="none" xmlns="http://www.w3.org/2000/svg">
<path d="M425.856 0V39.7586H426.911V72.7599H428.79V74.0026C429.454 73.9156 430.12 73.833 430.786 73.7503V70.5067H435.119V44.8096H433.665L432.54 43.8879V38.1996H433.97V32.3575L434.686 30.7168H437.907L440.054 33.0747V38.1996H440.976V42.6582L439.083 44.8096H437.538V70.5067H442.083V72.5795L444.37 72.6104H463.369V33.6114H461.272V29.9044H465.677V33.6114H465.616V72.6104H483.711C484.559 71.8158 486.573 71.2514 488.158 71.2514C489.743 71.2514 490.426 71.8158 490.66 72.6104H493.982C493.921 72.4895 493.883 72.3661 493.883 72.239C493.883 71.0644 496.677 70.112 498.738 70.112C500.8 70.112 501.347 71.0644 501.347 72.239C501.347 72.3661 501.335 72.4895 501.322 72.6104H504.161C509.864 74.1828 514.36 78.73 516.291 84.8841C517.225 89.9067 520.346 94.913 523.531 98.4628L525.371 98.0211L724.38 97.7737L724.385 97.7757C758.452 100.085 784.32 111.03 795.162 129.252C795.233 129.323 795.306 129.379 795.377 129.446H795.277C797.44 133.128 799.006 137.097 799.89 141.358C800.944 151.492 794.363 159.984 783.826 166.709C783.699 166.79 783.571 166.872 783.442 166.952C782.665 167.44 781.87 167.92 781.053 168.389C780.908 168.473 780.762 168.554 780.616 168.637C779.786 169.106 778.938 169.566 778.07 170.015C777.938 170.085 777.806 170.151 777.673 170.219C776.785 170.673 775.882 171.117 774.959 171.551C774.828 171.613 774.697 171.675 774.565 171.735C773.643 172.163 772.708 172.581 771.754 172.989C771.592 173.059 771.427 173.126 771.264 173.195C770.32 173.593 769.366 173.982 768.394 174.361C768.233 174.423 768.069 174.487 767.906 174.549C766.916 174.931 765.917 175.302 764.902 175.663C764.768 175.706 764.632 175.758 764.497 175.805C763.434 176.179 762.361 176.544 761.275 176.896C761.208 176.92 761.142 176.933 761.076 176.957C759.936 177.324 758.788 177.681 757.628 178.024C757.579 178.036 757.529 178.054 757.479 178.067C756.308 178.411 755.129 178.742 753.94 179.062C753.885 179.074 753.831 179.092 753.777 179.105C752.579 179.425 751.376 179.733 750.164 180.027C750.146 180.031 750.133 180.033 750.115 180.033C748.896 180.328 747.672 180.612 746.443 180.881C746.347 180.906 746.25 180.918 746.153 180.943C743.712 181.473 741.258 181.954 738.805 182.38C738.719 182.392 738.634 182.412 738.548 182.424C728.458 184.162 718.412 185.02 709.541 184.935H231.374C231.369 184.935 231.368 184.935 231.362 184.933H231.343C178.119 179.212 124.767 170.035 72.2018 159.857C64.9818 165.003 61.0689 178.297 56.3117 187H36.3335L36.4252 157.407L33.144 154.299V152.117C32.9397 152.08 32.7335 152.036 32.5286 151.994L19.9687 152.05V152.048H19.9379L19.933 151.08H15.8988V149.759H15.5215C15.8421 150.863 16.0165 152.218 16.0175 153.613C16.0176 155.29 15.7675 156.898 15.3221 158.084C14.8768 159.27 14.2727 159.935 13.6427 159.936C13.4584 159.934 13.2749 159.875 13.0957 159.76C12.9401 161.326 12.6282 162.696 12.2057 163.669C11.7831 164.642 11.2721 165.168 10.7471 165.17C10.0942 165.169 9.46815 164.359 9.00658 162.918C8.54501 161.475 8.28575 159.52 8.28576 157.481C8.2863 156.017 8.42057 154.584 8.67284 153.351C8.92512 152.117 9.28491 151.134 9.70989 150.517H5.31635C3.03314 149.792 1.00542 148.553 0 146.648C1.07354 145.256 3.16878 143.556 5.36701 142.779H9.54162C9.16109 142.111 8.84428 141.139 8.6236 139.963C8.40292 138.787 8.28631 137.449 8.28576 136.086C8.28575 134.046 8.54502 132.091 9.00658 130.649C9.46815 129.207 10.0942 128.396 10.7471 128.396C11.2099 128.398 11.6631 128.807 12.0549 129.577C12.4466 130.347 12.7609 131.446 12.9618 132.748C13.1826 132.572 13.4119 132.482 13.6425 132.482C14.2724 132.482 14.8764 133.148 15.3217 134.334C15.767 135.519 16.0172 137.127 16.0173 138.803C16.0171 140.433 15.78 142.001 15.3558 143.178H15.8979V142.574H19.9713V141.672L27.9825 141.696C28.3572 141.542 28.7409 141.396 29.1175 141.242L37.4833 130.094V97.5804C29.16 96.3349 21.4373 94.3194 15.1351 91.0293C14.0396 90.4834 14.1791 90.3013 15.2151 89.6113C22.9965 84.092 54.6402 77.9677 74.2171 79.4269L74.2152 79.4249C81.4309 80.3838 88.2956 81.8634 89.0812 89.9925C88.7914 96.0601 84.4529 98.6286 79.3339 99.6432C75.5533 99.6308 71.5934 99.6062 67.5857 99.5481C59.6557 108.346 66.9435 118.683 73.3512 125.46V126.288C74.7103 125.906 76.0768 125.532 77.4458 125.16L75.1772 125.147H77.4965C125.999 111.961 180.636 104.592 233.025 101.185L343.535 100.417C355.803 91.9548 371.48 86.0797 388.576 81.4011C396.437 79.7323 404.255 78.0982 412.115 76.6626V69.2911H415.253V51.4078H415.04L415.053 50.4745L414.167 50.4622V47.51H416.318V35.2051H417.135V44.0191H419.123V47.9209H419.086V51.4119H417.157V69.2951H420.16L422.076 72.7615H423.981V39.7603H424.966V0.00161404H425.864L425.856 0ZM465.674 26.1423V29.8869H463.316V26.1423H465.674ZM416.223 42.9532V44.8624H414.015V42.9532H416.223ZM11.8473 142.951C11.7969 143.033 11.7455 143.109 11.6934 143.179H11.9273C11.8999 143.105 11.8732 143.029 11.8473 142.951ZM9.75994 143.126V143.181H9.79687C9.78452 143.163 9.77219 143.145 9.75994 143.126ZM11.7574 149.761H9.75994V150.439C10.07 150.014 10.4047 149.795 10.7431 149.793C11.0424 149.794 11.339 149.964 11.6186 150.297C11.6613 150.112 11.7075 149.932 11.7571 149.76L11.7574 149.761Z" fill="black"/>
</svg>
