<svg width="800" height="187" viewBox="0 0 800 187" fill="none" xmlns="http://www.w3.org/2000/svg">
<path d="M425.856 0V39.6591H426.911V72.5778H428.79V73.8174C429.454 73.7306 430.12 73.6482 430.786 73.5657V70.3302H435.119V44.6975H433.665L432.54 43.7781V38.104H433.97V32.2765L434.686 30.6399H437.907L440.054 32.9919V38.104H440.976V42.5514L439.083 44.6975H437.538V70.3302H442.083V72.3979L444.37 72.4287H463.369V33.5273H461.272V29.8296H465.677V33.5273H465.616V72.4287H483.711C484.559 71.6361 486.573 71.0731 488.158 71.0731C489.743 71.0731 490.426 71.6361 490.66 72.4287H493.982C493.921 72.3081 493.883 72.185 493.883 72.0582C493.883 70.8865 496.677 69.9365 498.738 69.9365C500.8 69.9365 501.347 70.8865 501.347 72.0582C501.347 72.185 501.335 72.3081 501.322 72.4287H504.161C509.864 73.9971 514.36 78.533 516.291 84.6717C517.225 89.6817 520.346 94.6755 523.531 98.2164L525.371 97.7758L724.38 97.529L724.385 97.531C758.452 99.8345 784.32 110.752 795.162 128.929C795.233 128.999 795.306 129.055 795.377 129.122H795.277C797.44 132.795 799.006 136.754 799.89 141.004C800.944 151.113 794.363 159.584 783.826 166.292C783.699 166.373 783.571 166.454 783.442 166.534C782.665 167.021 781.87 167.5 781.053 167.968C780.908 168.051 780.762 168.132 780.616 168.215C779.786 168.683 778.938 169.142 778.07 169.59C777.938 169.659 777.806 169.725 777.673 169.793C776.785 170.246 775.882 170.689 774.959 171.122C774.828 171.184 774.697 171.245 774.565 171.305C773.643 171.732 772.708 172.149 771.754 172.556C771.592 172.626 771.427 172.693 771.264 172.762C770.32 173.159 769.366 173.547 768.394 173.925C768.233 173.986 768.069 174.05 767.906 174.112C766.916 174.493 765.917 174.863 764.902 175.223C764.768 175.266 764.632 175.318 764.497 175.365C763.434 175.738 762.361 176.102 761.275 176.453C761.208 176.477 761.142 176.49 761.076 176.514C759.936 176.88 758.788 177.236 757.628 177.578C757.579 177.59 757.529 177.608 757.479 177.621C756.308 177.964 755.129 178.295 753.94 178.614C753.885 178.626 753.831 178.644 753.777 178.657C752.579 178.976 751.376 179.283 750.164 179.576C750.146 179.58 750.133 179.582 750.115 179.582C748.896 179.877 747.672 180.16 746.443 180.428C746.347 180.453 746.25 180.465 746.153 180.49C743.712 181.019 741.258 181.499 738.805 181.924C738.719 181.936 738.634 181.955 738.548 181.967C728.458 183.701 718.412 184.557 709.541 184.472H231.374C231.369 184.472 231.368 184.472 231.362 184.47H231.343C178.119 178.763 124.767 169.609 72.2021 159.457C64.9821 164.59 61.0692 177.851 56.312 186.532H36.3338L36.4255 157.013L33.1443 153.913V151.736C32.94 151.699 32.7338 151.655 32.5289 151.614L19.969 151.669V151.667H19.9382L19.9333 150.702H15.8991V149.384H15.5218C15.8424 150.485 16.0168 151.837 16.0178 153.229C16.0179 154.901 15.7678 156.505 15.3224 157.688C14.8771 158.871 14.273 159.535 13.643 159.536C13.4587 159.534 13.2752 159.475 13.096 159.36C12.9404 160.922 12.6285 162.289 12.206 163.259C11.7834 164.23 11.2724 164.755 10.7474 164.757C10.0945 164.756 9.4684 163.948 9.00683 162.51C8.54526 161.071 8.286 159.121 8.28601 157.087C8.28655 155.627 8.42082 154.197 8.67309 152.967C8.92537 151.736 9.28516 150.756 9.71014 150.14H5.31659C3.03338 149.417 1.00566 148.181 0.000244141 146.281C1.07378 144.892 3.16902 143.197 5.36725 142.422H9.54187C9.16134 141.755 8.84452 140.786 8.62384 139.613C8.40316 138.44 8.28656 137.105 8.28601 135.745C8.286 133.711 8.54527 131.76 9.00683 130.322C9.4684 128.884 10.0945 128.075 10.7474 128.075C11.2102 128.077 11.6634 128.485 12.0552 129.253C12.4469 130.021 12.7612 131.117 12.9621 132.416C13.1829 132.24 13.4122 132.15 13.6428 132.15C14.2727 132.15 14.8767 132.815 15.322 133.998C15.7673 135.18 16.0175 136.784 16.0176 138.456C16.0174 140.082 15.7803 141.646 15.3561 142.82H15.8982V142.217H19.9716V141.317L27.9828 141.341C28.3575 141.188 28.7412 141.042 29.1178 140.889L37.4836 129.768V97.3362C29.1603 96.0938 21.4376 94.0833 15.1354 90.8015C14.0399 90.2569 14.1794 90.0753 15.2154 89.387C22.9968 83.8815 54.6405 77.7726 74.2174 79.2281L74.2155 79.2261C81.4312 80.1826 88.2959 81.6585 89.0815 89.7673C88.7917 95.8197 84.4532 98.3818 79.3342 99.3938C75.5536 99.3815 71.5937 99.3569 67.586 99.299C59.656 108.075 66.9438 118.386 73.3515 125.146V125.972C74.7106 125.591 76.0771 125.218 77.4461 124.847L75.1775 124.834H77.4968C125.999 111.681 180.636 104.33 233.025 100.932L343.535 100.166C355.803 91.7247 371.48 85.8643 388.576 81.1974C396.437 79.5327 404.255 77.9027 412.115 76.4707V69.1177H415.253V51.2791H415.04L415.053 50.3482L414.167 50.3359V47.3911H416.318V35.117H417.135V43.9089H419.123V47.801H419.086V51.2832H417.157V69.1217H420.16L422.076 72.5794H423.981V39.6608H424.966V0.00161H425.864L425.856 0ZM465.674 26.0769V29.8121H463.316V26.0769H465.674ZM416.223 42.8457V44.7501H414.015V42.8457H416.223ZM11.8476 142.593C11.7972 142.675 11.7458 142.751 11.6937 142.821H11.9276C11.9002 142.747 11.8735 142.671 11.8476 142.593ZM9.76019 142.768V142.823H9.79712C9.78477 142.805 9.77244 142.787 9.76019 142.768ZM11.7577 149.386H9.76019V150.062C10.0703 149.639 10.405 149.42 10.7434 149.418C11.0427 149.419 11.3393 149.589 11.6189 149.921C11.6616 149.736 11.7078 149.557 11.7574 149.385L11.7577 149.386Z" fill="black"/>
</svg>
